<ttFont>
<head>
        <!-- Most of this table will be recalculated by the compiler -->
        <tableVersion value="1.0"/>
        <fontRevision value="1.002"/>
        <checkSumAdjustment value="0x6c6d8593"/>
        <magicNumber value="0x5f0f3cf5"/>
        <flags value="00000000 00001011"/>
        <unitsPerEm value="1000"/>
        <created value="Thu Jan 14 16:22:35 2016"/>
        <modified value="Sun Aug 21 15:54:01 2016"/>
        <xMin value="-1564"/>
        <yMin value="-288"/>
        <xMax value="630"/>
        <yMax value="1144"/>
        <macStyle value="00000000 00000000"/>
        <lowestRecPPEM value="8"/>
        <fontDirectionHint value="2"/>
        <indexToLocFormat value="0"/>
        <glyphDataFormat value="0"/>
    </head>
                    <CharString index="0">
                        -216 -177 -87 -147 0 -145 0 -142 85 -144 214 -176 rrcurveto
56 51 rlineto
-201 159 -74 128 0 127 0 127 73 128 205 160 rrcurveto
return
                    </CharString>
                    <CharString index="1">
                        217 178 86 147 0 145 0 141 -85 144 -214 177 rrcurveto
-55 -53 rlineto
200 -158 74 -128 0 -126 0 -128 -73 -127 -205 -161 rrcurveto
return
                    </CharString>
                    <CharString index="2">
                        139 88 132 199 196 -74 117 -139 -139 -87 -131 -200 -195 74 -118 138 hvcurveto
return
                    </CharString>
                    <CharString index="3">
                        84 6 rlineto
-57 207 -59 204 -65 208 rrcurveto
-116 hlineto
return
                    </CharString>
                    <CharString index="4">
                        -65 -209 -59 -206 -57 -207 rrcurveto
83 hlineto
17 63 16 64 17 63 rrcurveto
209 hlineto
18 -64 17 -65 17 -64 rrcurveto
return
                    </CharString>
                    <CharString index="5">
                        8 hlineto
29 -99 27 -100 27 -99 rrcurveto
-175 hlineto
28 99 27 99 29 100 rrcurveto
return
                    </CharString>
                    <CharString index="6">
                        -259 -11 -68 87 0 167 0 142 50 92 271 3 rrcurveto
-5 80 rlineto
-304 -10 -98 -148 0 -170 0 -186 89 -139 317 22 rrcurveto
return
                    </CharString>
                    <CharString index="7">
                        0 240 -114 101 -302 -42 rrcurveto
-622 vlineto
278 -42 138 122 0 243 rrcurveto
return
                    </CharString>
                    <CharString index="8">
                        0 -183 -76 -86 -174 26 rrcurveto
489 vlineto
180 22 70 -81 0 -187 rrcurveto
return
                    </CharString>
                    <CharString index="9">
                        -298 211 253 63 -253 204 293 71 -376 -620 373 hlineto
return
                    </CharString>
                    <CharString index="10">
                        -2 80 1 96 0 128 rrcurveto
-78 hlineto
0 -92 2 -93 1 -67 -198 -13 -64 98 0 165 0 138 49 102 267 -1 rrcurveto
-5 80 rlineto
-304 -11 -92 -146 0 -177 0 -217 128 -133 295 63 rrcurveto
return
                    </CharString>
                    <CharString index="11">
                        154 66 -390 -66 153 -488 -153 -66 388 hlineto
6 66 -158 0 rlineto
return
                    </CharString>
                    <CharString index="12">
                        91 11 -212 312 197 303 -89 0 -173 -273 -68 0 0 273 -83 0 rlineto
return
                    </CharString>
                    <CharString index="13">
                        8 71 -301 0 0 549 -84 0 0 -620 rlineto
return
                    </CharString>
                    <CharString index="14">
                        3 -472 -4 0 -225 472 -87 0 0 -620 77 0 rlineto
return
                    </CharString>
                    <CharString index="15">
                        -3 481 5 0 rlineto
return
                    </CharString>
                    <CharString index="16">
                        147 0 94 121 -1 218 rrcurveto
200 -79 111 -139 -147 -93 -120 -219 -199 80 -112 138 vhcurveto
return
                    </CharString>
                    <CharString index="17">
                        95 52 -90 -170 -166 -49 -86 -92 -96 -51 90 170 166 48 86 93 hvcurveto
return
                    </CharString>
                    <CharString index="18">
                        89 13 -148 268 rlineto
60 43 44 56 0 82 0 127 -96 82 -285 -42 rrcurveto
return
                    </CharString>
                    <CharString index="19">
                        -619 83 226 vlineto
127 4 rlineto
return
                    </CharString>
                    <CharString index="20">
                        151 22 65 -53 0 -90 0 -63 -33 -48 -48 -32 rrcurveto
-135 -4 rlineto
return
                    </CharString>
                    <CharString index="21">
                        -1 -77 rlineto
287 -16 107 101 0 95 0 148 -309 43 0 107 0 51 57 40 217 -15 rrcurveto
-5 77 rlineto
-255 14 -99 -92 0 -88 0 -145 309 -38 0 -114 0 -59 -82 -51 -226 19 rrcurveto
return
                    </CharString>
                    <CharString index="22">
                        191 71 -463 hlineto
-7 -71 195 0 0 -549 84 0 rlineto
return
                    </CharString>
                    <CharString index="23">
                        127 77 80 139 hvcurveto
416 -83 -429 vlineto
-94 -37 -40 -76 -74 -45 47 102 vhcurveto
414 -84 -420 vlineto
-139 73 -76 122 vhcurveto
return
                    </CharString>
                    <CharString index="24">
                        87 hlineto
15 117 21 236 13 267 rrcurveto
-78 hlineto
-5 -124 -16 -329 -7 -61 rrcurveto
-3 hlineto
-30 110 -30 111 -29 109 rrcurveto
-50 hlineto
-28 -108 -25 -100 -33 -122 rrcurveto
-4 hlineto
-6 61 -18 329 -5 124 rrcurveto
-82 hlineto
13 -267 20 -236 15 -117 rrcurveto
88 0 87 330 rlineto
return
                    </CharString>
                    <CharString index="25">
                        199 414 -86 0 -153 -334 rlineto
return
                    </CharString>
                    <CharString index="26">
                        -156 336 -89 -4 201 -412 0 -206 rlineto
return
                    </CharString>
                    <CharString index="27">
                        7 73 -330 -1 323 477 0 71 -404 0 -6 -73 321 1 -325 -477 0 -71 rlineto
return
                    </CharString>
                    <CharString index="28">
                        324 0 7 66 -253 0 0 742 249 0 0 66 -327 0 rlineto
return
                    </CharString>
                    <CharString index="29">
                        -3 -66 328 0 0 873 -326 0 0 -66 249 0 0 -741 rlineto
return
                    </CharString>
                    <CharString index="30">
                        -55 42 -92 84 -50 54 rrcurveto
-60 -67 rlineto
62 -49 103 -65 68 -35 rrcurveto
return
                    </CharString>
                    <CharString index="31">
                        74 5 rlineto
-4 70 -4 69 0 102 0 189 -76 59 -283 8 rrcurveto
-9 -70 rlineto
219 -8 62 -29 7 -113 -217 13 -100 -76 0 -101 rrcurveto
return
                    </CharString>
                    <CharString index="32">
                        -79 61 -48 89 vhcurveto
77 0 57 35 40 37 rrcurveto
2 -22 4 -31 1 -10 rrcurveto
return
                    </CharString>
                    <CharString index="33">
                        0 -150 83 -111 297 20 rrcurveto
9 68 rlineto
-240 -11 -69 66 0 129 0 104 49 69 253 -1 rrcurveto
-6 77 rlineto
-285 -6 -91 -119 0 -135 rrcurveto
return
                    </CharString>
                    <CharString index="34">
                        76 4 rlineto
-5 111 -2 155 0 220 rrcurveto
0 218 rlineto
return
                    </CharString>
                    <CharString index="35">
                        -14 2 -15 1 -15 0 rrcurveto
-149 -128 -102 -179 -145 78 -87 106 hvcurveto
60 0 49 28 35 33 rrcurveto
return
                    </CharString>
                    <CharString index="36">
                        8 69 rlineto
-237 6 -73 44 -8 116 rrcurveto
335 8 rlineto
18 162 -68 108 -134 0 -127 0 -104 -115 0 -149 0 -159 83 -89 307 -1 rrcurveto
return
                    </CharString>
                    <CharString index="37">
                        82 0 39 -59 1 -94 -69 -2 -134 -4 -56 -2 6 105 50 56 81 0 rrcurveto
return
                    </CharString>
                    <CharString index="38">
                        270 14 67 104 0 169 0 57 0 268 -1 39 -49 15 -46 8 -48 0 rrcurveto
-140 -121 -98 -158 -129 79 -78 106 hvcurveto
58 0 47 21 35 27 -2 -139 -31 -28 -232 -18 rrcurveto
return
                    </CharString>
                    <CharString index="39">
                        -77 -58 53 108 109 66 59 86 hvcurveto
31 0 30 -6 32 -9 -1 -76 1 -137 0 -67 -32 -20 -39 -14 -39 0 rrcurveto
return
                    </CharString>
                    <CharString index="40">
                        86 12 -188 249 rlineto
62 73 59 79 56 79 rrcurveto
return
                    </CharString>
                    <CharString index="41">
                        -83 6 rlineto
-51 -75 -53 -69 -58 -68 rrcurveto
-76 -2 0 428 rlineto
return
                    </CharString>
                    <CharString index="42">
                        -81 -7 0 -699 81 0 0 218 73 2 rlineto
return
                    </CharString>
                    <CharString index="43">
                        7 62 -160 0 0 636 -226 0 rlineto
return
                    </CharString>
                    <CharString index="44">
                        151 -7 0 -571 -159 0 0 -62 rlineto
return
                    </CharString>
                    <CharString index="45">
                        62 37 -33 -94 hvcurveto
-305 81 332 vlineto
120 -58 49 -88 vhcurveto
-70 0 -53 -31 -41 -34 rrcurveto
return
                    </CharString>
                    <CharString index="46">
                        -5 56 -75 -5 rlineto
5 -113 2 -160 0 -214 rrcurveto
81 hlineto
return
                    </CharString>
                    <CharString index="47">
                        0 171 -2 129 -2 89 rrcurveto
38 26 41 17 47 0 rrcurveto
return
                    </CharString>
                    <CharString index="48">
                        126 105 106 162 157 -86 92 -122 -126 -106 -108 -159 -158 88 -92 121 hvcurveto
return
                    </CharString>
                    <CharString index="49">
                        -83 -57 70 128 120 56 66 80 84 57 -71 -127 -121 -56 -65 -81 hvcurveto
return
                    </CharString>
                    <CharString index="50">
                        7 62 -166 0 rlineto
-1 114 -2 96 -1 85 rrcurveto
return
                    </CharString>
                    <CharString index="51">
                        54 35 71 22 100 8 rrcurveto
-4 86 rlineto
-101 -12 -75 -40 -48 -50 rrcurveto
return
                    </CharString>
                    <CharString index="52">
                        -1 23 -4 51 -1 10 rrcurveto
-190 0 -6 -58 124 -7 rlineto
3 -98 1 -115 2 -150 rrcurveto
-130 -62 hlineto
return
                    </CharString>
                    <CharString index="53">
                        -250 19 -84 -80 0 -78 0 -123 274 -14 0 -87 0 -44 -61 -36 -214 17 rrcurveto
-3 -72 rlineto
275 -15 87 77 0 80 0 125 -276 22 0 81 0 40 54 34 201 -18 rrcurveto
return
                    </CharString>
                    <CharString index="54">
                        9 68 rlineto
-164 3 -47 22 0 85 rrcurveto
257 200 63 -200 143 vlineto
return
                    </CharString>
                    <CharString index="55">
                        -81 -7 0 -136 -93 0 -8 -63 101 0 0 -270 rlineto
0 -121 71 -47 212 3 rrcurveto
return
                    </CharString>
                    <CharString index="56">
                        75 5 rlineto
-5 113 -2 160 0 214 rrcurveto
-81 hlineto
return
                    </CharString>
                    <CharString index="57">
                        0 -172 2 -128 2 -88 -37 -27 -41 -18 -47 0 rrcurveto
-61 -36 32 96 hvcurveto
0 308 rlineto
return
                    </CharString>
                    <CharString index="58">
                        -81 -6 0 -329 rlineto
-121 57 -49 87 vhcurveto
70 0 52 32 41 34 rrcurveto
return
                    </CharString>
                    <CharString index="59">
                        75 hlineto
17 116 21 190 11 184 rrcurveto
-76 hlineto
return
                    </CharString>
                    <CharString index="60">
                        -7 -140 -7 -118 -8 -132 rrcurveto
-4 hlineto
-10 32 -70 199 -8 25 rrcurveto
-50 hlineto
-7 -24 -69 -199 -10 -31 rrcurveto
-4 hlineto
-10 132 -7 117 -7 139 rrcurveto
-80 hlineto
11 -184 21 -190 18 -116 rrcurveto
73 0 93 274 rlineto
return
                    </CharString>
                    <CharString index="61">
                        166 20 47 46 66 173 rrcurveto
return
                    </CharString>
                    <CharString index="62">
                        64 162 52 146 41 121 rrcurveto
-78 hlineto
-26 -69 -70 -221 -37 -100 rrcurveto
-10 hlineto
return
                    </CharString>
                    <CharString index="63">
                        -55 125 -56 142 -49 125 rrcurveto
-83 -5 rlineto
49 -120 94 -227 57 -125 rrcurveto
9 -2 rlineto
-34 -80 -29 -17 -125 -19 rrcurveto
return
                    </CharString>
                    <CharString index="64">
                        6 72 -320 -2 311 352 0 68 -395 0 -6 -72 308 2 -311 -351 0 -69 rlineto
return
                    </CharString>
                    <CharString index="65">
                        28 66 rlineto
-175 53 -76 39 0 53 0 58 88 42 0 63 rrcurveto
return
                    </CharString>
                    <CharString index="66">
                        0 56 -96 49 0 52 0 45 78 40 181 51 rrcurveto
-26 67 rlineto
-230 -73 -81 -69 0 -69 rrcurveto
return
                    </CharString>
                    <CharString index="67">
                        1 -75 100 -43 0 -45 0 -30 -36 -23 -125 -11 rrcurveto
-2 -59 rlineto
return
                    </CharString>
                    <CharString index="68">
                        0 -47 -92 -43 0 -79 rrcurveto
0 -74 78 -46 226 -73 rrcurveto
return
                    </CharString>
                    <CharString index="69">
                        230 73 80 70 0 68 0 76 -101 43 0 45 rrcurveto
return
                    </CharString>
                    <CharString index="70">
                        0 29 37 24 124 11 rrcurveto
3 58 rlineto
return
                    </CharString>
                    <CharString index="71">
                        0 47 93 44 0 78 0 74 -78 46 -226 73 rrcurveto
-28 -66 rlineto
175 -53 76 -38 0 -54 0 -58 -89 -42 0 -63 rrcurveto
return
                    </CharString>
                    <CharString index="72">
                        0 -57 95 -49 0 -51 0 -45 -78 -41 -180 -50 rrcurveto
return
                    </CharString>
                    <CharString index="73">
                        2 136 -83 0 -1 -136 rlineto
return
                    </CharString>
                    <CharString index="74">
                        60 47 -168 218 170 209 -59 49 -169 -220 -4 -81 rlineto
return
                    </CharString>
                    <CharString index="75">
                        60 47 -170 217 172 210 -59 49 -169 -220 -4 -81 rlineto
return
                    </CharString>
                    <CharString index="76">
                        -334 -70 334 hlineto
return
                    </CharString>
                    <CharString index="77">
                        57 -213 vlineto
129 89 71 65 0 75 0 66 -61 53 -208 -1 rrcurveto
-5 -58 rlineto
162 -3 46 -27 0 -47 0 -60 -78 -59 -145 -97 rrcurveto
7 -53 rlineto
return
                    </CharString>
                    <CharString index="78">
                        207 6 77 53 0 66 0 47 -46 39 -129 20 rrcurveto
return
                    </CharString>
                    <CharString index="79">
                        165 122 -4 53 -269 0 0 -57 195 2 0 -3 -162 -121 0 -33 rlineto
return
                    </CharString>
                    <CharString index="80">
                        136 -13 50 -27 0 -31 0 -35 -57 -23 -168 -5 rrcurveto
return
                    </CharString>
                    <CharString index="81">
                        23 -36 rlineto
68 33 108 65 59 53 rrcurveto
-65 63 rlineto
-48 -57 -87 -81 -58 -40 rrcurveto
return
                    </CharString>
                    <CharString index="82">
                        5 55 -114 0 0 356 -64 -5 0 -60 -120 -16 2 -48 118 7 0 -234 -125 0 0 -55 rlineto
return
                    </CharString>
                    <CharString index="83">
                        169 220 5 81 -171 222 -60 -47 170 -217 -172 -210 rlineto
return
                    </CharString>
                    <CharString index="84">
                        169 220 4 81 -170 222 -60 -47 170 -216 -172 -211 rlineto
return
                    </CharString>
                    <CharString index="85">
                        428 55 -428 hlineto
return
                    </CharString>
                    <CharString index="86">
                        5 55 -57 -1 1 137 -62 -5 2 -132 -148 1 rlineto
2 31 46 180 15 51 rrcurveto
-70 5 rlineto
-33 -119 -17 -126 1 -77 rrcurveto
203 1 -1 -81 62 0 -1 81 rlineto
return
                    </CharString>
                    <CharString index="87">
                        51 49 -176 144 -4 0 -176 -153 40 -39 132 113 rlineto
return
                    </CharString>
                    <CharString index="88">
                        50 0 46 54 36 85 rrcurveto
-46 20 rlineto
-27 -59 -25 -34 -25 0 -42 0 -41 101 -64 0 -51 0 -46 -54 -35 -85 rrcurveto
45 -20 rlineto
27 58 25 34 26 0 rrcurveto
42 0 41 -100 64 0 rrcurveto
return
                    </CharString>
                    <CharString index="89">
                        -80 -51 -47 -61 -58 54 -46 77 80 52 46 62 hvcurveto
56 -54 48 -78 vhcurveto
return
                    </CharString>
                    <CharString index="90">
                        6 -305 -102 hlineto
32 102 33 103 31 100 rrcurveto
return
                    </CharString>
                    <CharString index="91">
                        244 0 6 71 -177 0 0 211 146 0 0 63 -146 0 0 204 173 0 0 71 -301 0 rlineto
-69 -206 -70 -208 -64 -206 rrcurveto
81 hlineto
18 60 19 61 19 61 rrcurveto
121 hlineto
return
                    </CharString>
                    <CharString index="92">
                        0 240 -114 101 -302 -42 rrcurveto
-277 -70 -59 70 -286 vlineto
278 -42 138 122 0 243 rrcurveto
return
                    </CharString>
                    <CharString index="93">
                        219 128 vlineto
3 59 -131 0 0 211 rlineto
180 22 70 -81 0 -187 0 -183 -76 -86 -174 26 rrcurveto
return
                    </CharString>
                    <CharString index="94">
                        50 0 46 54 36 85 rrcurveto
-46 20 rlineto
-27 -59 -25 -34 -25 0 -42 0 -41 101 -64 0 -51 0 -46 -54 -35 -85 rrcurveto
45 -20 rlineto
27 58 25 34 26 0 42 0 41 -100 64 0 rrcurveto
return
                    </CharString>
                    <CharString index="95">
                        167 49 85 93 vhcurveto
38 0 31 -14 24 -28 rrcurveto
-209 -380 rlineto
-17 43 -9 56 0 71 rrcurveto
return
                    </CharString>
                    <CharString index="96">
                        -38 0 -32 14 -23 28 rrcurveto
209 380 rlineto
17 -42 9 -57 0 -71 0 -167 -50 -85 -92 0 rrcurveto
return
                    </CharString>
                    <CharString index="97">
                        147 0 94 121 -1 218 rrcurveto
return
                    </CharString>
                    <CharString index="98">
                        0 101 -20 79 -38 53 rrcurveto
39 71 rlineto
return
                    </CharString>
                    <CharString index="99">
                        -53 28 -29 -56 rlineto
-32 23 -39 12 -46 0 -147 0 -93 -120 0 -219 0 -102 21 -79 39 -53 rrcurveto
-39 -70 rlineto
return
                    </CharString>
                    <CharString index="100">
                        52 -28 30 55 rlineto
32 -22 38 -12 45 0 rrcurveto
return
                    </CharString>
                    <CharString index="101">
                        -61 -40 30 52 hvcurveto
0 67 59 39 179 -19 0 -48 1 -36 1 -32 -38 -30 -52 -23 -49 0 rrcurveto
return
                    </CharString>
                    <CharString index="102">
                        47 0 18 -52 -1 -100 rrcurveto
-135 -2 rlineto
3 107 23 47 45 0 rrcurveto
return
                    </CharString>
                    <CharString index="103">
                        -35 -24 25 52 60 40 28 84 hvcurveto
0 -43 4 -38 11 -32 rrcurveto
-20 -31 -27 -21 -33 0 rrcurveto
return
                    </CharString>
                    <CharString index="104">
                        7 68 rlineto
-166 4 -33 44 -1 114 rrcurveto
209 5 rlineto
11 167 -44 100 -93 0 -54 0 -41 -31 -25 -55 rrcurveto
return
                    </CharString>
                    <CharString index="105">
                        -28 58 -60 19 -118 7 rrcurveto
-6 -69 rlineto
144 -9 32 -25 3 -116 -135 -3 -65 -57 0 -99 0 -78 44 -45 62 0 59 0 44 36 26 40 rrcurveto
35 -48 68 -26 125 -1 rrcurveto
return
                    </CharString>
                    <CharString index="106">
                        6 62 -184 0 0 428 -258 0 -6 -57 183 -8 0 -363 -184 0 0 -62 rlineto
return
                    </CharString>
                    <CharString index="107">
                        0 171 -2 129 -2 89 38 26 41 17 47 0 rrcurveto
return
                    </CharString>
                    <CharString index="108">
                        121 57 65 80 vhcurveto
33 0 29 -11 23 -21 rrcurveto
-195 -282 rlineto
-17 32 -10 43 0 53 rrcurveto
return
                    </CharString>
                    <CharString index="109">
                        -32 0 -29 10 -22 20 rrcurveto
195 282 rlineto
17 -32 9 -42 0 -51 0 -122 -56 -65 -82 0 rrcurveto
return
                    </CharString>
                    <CharString index="110">
                        0 74 -19 60 -33 42 rrcurveto
42 61 rlineto
return
                    </CharString>
                    <CharString index="111">
                        -48 32 -37 -53 rlineto
-32 22 -38 11 -43 0 -126 0 -106 -108 0 -159 0 -76 20 -60 35 -43 rrcurveto
-42 -59 rlineto
return
                    </CharString>
                    <CharString index="112">
                        48 -32 36 52 rlineto
32 -21 38 -11 42 0 rrcurveto
return
                    </CharString>
                    <CharString index="113">
                        71 0 66 56 56 92 rrcurveto
-48 25 rlineto
-47 -70 -39 -37 -52 0 -49 0 -37 31 -49 80 rrcurveto
-57 -33 rlineto
54 -97 61 -47 70 0 rrcurveto
return
                    </CharString>
                    <CharString index="114">
                        5 136 -85 0 -3 -136 rlineto
return
                    </CharString>
                    <CharString index="115">
                        176 151 -41 40 -131 -112 -133 113 -51 -49 176 -143 rlineto
return
                    </CharString>
                    <CharString index="116">
                        176 151 -41 40 -131 -112 rlineto
return
                    </CharString>
                    <CharString index="117">
                        -133 113 -51 -49 rlineto
return
                    </CharString>
                    <CharString index="118">
                        37 -13 rlineto
60 89 16 79 -11 83 rrcurveto
-91 -1 rlineto
19 -75 7 -73 -37 -89 rrcurveto
return
                    </CharString>
                    <CharString index="119">
                        41 -13 rlineto
55 64 19 79 -9 67 -5 0 -90 -5 -5 0 22 -58 5 -64 -33 -70 rrcurveto
return
                    </CharString>
                    <CharString index="120">
                        -41 13 rlineto
-55 -64 -19 -79 9 -67 rrcurveto
100 5 rlineto
-22 58 -5 64 33 70 rrcurveto
return
                    </CharString>
                    <CharString index="121">
                        41 -13 rlineto
55 64 19 79 -9 67 -5 0 -90 -5 -5 0 rrcurveto
22 -58 5 -64 -33 -70 rrcurveto
return
                    </CharString>
                    <CharString index="122">
                        39 -26 rlineto
52 52 62 78 34 56 rrcurveto
-81 39 rlineto
-23 -58 -45 -86 -38 -55 rrcurveto
return
                    </CharString>
                    <CharString index="123">
                        39 -24 rlineto
53 52 61 77 35 56 rrcurveto
-84 35 rlineto
-23 -59 -43 -81 -38 -56 rrcurveto
return
                    </CharString>
                    <CharString index="124">
                        -80 -51 -47 -61 -58 54 -46 77 80 52 46 62 56 -54 48 -78 hvcurveto
return
                    </CharString>
                    <CharString index="125">
                        5 120 -98 0 -5 -120 rlineto
return
                    </CharString>
                    <CharString index="126">
                        54 56 -232 207 238 205 -54 56 -244 -221 -5 -81 rlineto
return
                    </CharString>
                    <CharString index="127">
                        244 221 5 82 -243 221 -54 -56 232 -207 -238 -204 rlineto
return
                    </CharString>
                    <CharString index="128">
                        104 68 87 126 124 -58 77 -103 -104 -67 -87 -126 -125 58 -76 102 hvcurveto
return
                    </CharString>
                    <CharString index="129">
                        66 35 -58 -98 -93 -33 -55 -66 -66 -35 58 98 93 32 55 67 hvcurveto
return
                    </CharString>
                    <CharString index="130">
                        0 54 -51 45 -163 15 rrcurveto
8 95 188 0 6 57 -248 0 -15 -198 rlineto
159 -11 54 -25 0 -33 0 -42 -59 -25 -164 -11 rrcurveto
4 -61 rlineto
194 13 87 55 0 72 rrcurveto
return
                    </CharString>
                    <CharString index="131">
                        84 71 55 82 hvcurveto
0 118 -145 32 -99 -82 13 68 52 47 125 45 rrcurveto
-23 55 rlineto
-157 -57 -75 -91 0 -113 rrcurveto
-104 63 -55 91 vhcurveto
return
                    </CharString>
                    <CharString index="132">
                        -56 -42 37 77 hvcurveto
4 vlineto
89 59 96 -20 0 -78 rrcurveto
-49 -38 -30 -49 vhcurveto
return
                    </CharString>
                    <CharString index="133">
                        45 118 63 116 76 112 rrcurveto
56 -296 vlineto
-5 -58 232 0 2 -3 rlineto
-78 -110 -62 -110 -45 -113 rrcurveto
return
                    </CharString>
                    <CharString index="134">
                        99 62 51 58 hvcurveto
0 48 -49 30 -53 26 rrcurveto
return
                    </CharString>
                    <CharString index="135">
                        60 26 34 32 0 47 rrcurveto
58 -60 38 -79 -98 -53 -55 -51 vhcurveto
0 -46 43 -30 48 -26 rrcurveto
return
                    </CharString>
                    <CharString index="136">
                        -61 -25 -37 -35 0 -47 rrcurveto
-59 56 -40 88 vhcurveto
return
                    </CharString>
                    <CharString index="137">
                        27 28 24 52 52 30 -24 -33 vhcurveto
0 -31 -28 -25 -44 -18 rrcurveto
-48 23 -42 23 0 34 rrcurveto
return
                    </CharString>
                    <CharString index="138">
                        -56 -31 26 35 hvcurveto
0 31 27 26 47 19 52 -25 48 -23 0 -34 rrcurveto
-31 -33 -24 -54 vhcurveto
return
                    </CharString>
                    <CharString index="139">
                        157 57 75 90 0 113 rrcurveto
104 -64 56 -90 -84 -71 -56 -82 vhcurveto
0 -118 145 -31 98 81 -13 -69 -52 -46 -125 -44 rrcurveto
return
                    </CharString>
                    <CharString index="140">
                        49 40 31 48 56 41 -37 -77 vhcurveto
-4 vlineto
-88 -60 -97 20 0 78 rrcurveto
return
                    </CharString>
                    <CharString index="141">
                        29 0 53 199 3 0 -1 -253 52 0 0 329 -64 0 -55 -200 -2 0 -59 200 -63 0 0 -329 50 0 -1 253 3 0 rlineto
return
                    </CharString>
                    <CharString index="142">
                        60 26 34 32 0 47 rrcurveto
58 -60 38 -79 -98 -53 -55 -51 vhcurveto
return
                    </CharString>
                    <CharString index="143">
                        0 -46 43 -30 48 -26 rrcurveto
return
                    </CharString>
                    <CharString index="144">
                        -6.4375 -8.5625 -5.9209 -9.0791 hvcurveto
-185 vlineto
return
                    </CharString>
                    <CharString index="145">
                        -6.4375 5.9209 -8.5625 9.0791 vhcurveto
185 hlineto
return
                    </CharString>
                    <CharString index="146">
                        6.4375 8.5625 5.9209 9.0791 hvcurveto
185 vlineto
return
                    </CharString>
                    <CharString index="147">
                        6.4375 -5.9209 8.5625 -9.0791 vhcurveto
return
                    </CharString>
                    <CharString index="148">
                        175 -175 -175 hlineto
return
                    </CharString>
                    <CharString index="149">
                        -2.14551 -2.85449 -1.97363 -3.02637 hvcurveto
-185 vlineto
-2.14551 1.97363 -2.85449 3.02637 vhcurveto
185 hlineto
2.14551 2.85449 1.97363 3.02637 hvcurveto
185 vlineto
2.14551 -1.97363 2.85449 -3.02637 vhcurveto
return
                    </CharString>
                    <CharString index="150">
                        -185 185 185 vlineto
return
                    </CharString>
                    <CharString index="151">
                        145 -145 -145 hlineto
return
                    </CharString>
                    <CharString index="152">
                        -8.58398 -11.41602 -7.89355 -12.10645 hvcurveto
-185 vlineto
return
                    </CharString>
                    <CharString index="153">
                        -8.58398 7.89355 -11.41602 12.10645 vhcurveto
185 hlineto
return
                    </CharString>
                    <CharString index="154">
                        8.58398 11.41602 7.89355 12.10645 hvcurveto
185 vlineto
return
                    </CharString>
                    <CharString index="155">
                        8.58398 -7.89355 11.41602 -12.10645 vhcurveto
return
                    </CharString>
                    <CharString index="156">
                        -155 -155 155 hlineto
return
                    </CharString>
                    <CharString index="157">
                        6.4375 8.5625 -5.9209 -9.0791 hvcurveto
-185 vlineto
-6.4375 -5.9209 -8.5625 -9.0791 vhcurveto
-185 hlineto
-6.4375 -8.5625 5.9209 9.0791 hvcurveto
185 vlineto
6.4375 5.9209 8.5625 9.0791 vhcurveto
return
                    </CharString>
                    <CharString index="158">
                        -175 -175 175 hlineto
return
                    </CharString>
                    <CharString index="159">
                        2.14551 2.85449 -1.97363 -3.02637 hvcurveto
-185 vlineto
-2.14551 -1.97363 -2.85449 -3.02637 vhcurveto
-185 hlineto
-2.14551 -2.85449 1.97363 3.02637 hvcurveto
185 vlineto
2.14551 1.97363 2.85449 3.02637 vhcurveto
return
                    </CharString>
                    <CharString index="160">
                        -185 -185 185 vlineto
return
                    </CharString>
                    <CharString index="161">
                        -145 -145 145 hlineto
return
                    </CharString>
                    <CharString index="162">
                        8.58398 11.41602 -7.89355 -12.10645 hvcurveto
-185 vlineto
-8.58398 -7.89355 -11.41602 -12.10645 vhcurveto
-185 hlineto
-8.58398 -11.41602 7.89355 12.10645 hvcurveto
185 vlineto
8.58398 7.89355 11.41602 12.10645 vhcurveto
return
                    </CharString>
                    <CharString index="163">
                        232.5 -232.5 -232.5 hlineto
return
                    </CharString>
                    <CharString index="164">
                        -9.65625 -12.84375 -8.88184 -13.61816 hvcurveto
-277.5 vlineto
-9.65625 8.88184 -12.84375 13.61816 vhcurveto
277.5 hlineto
9.65625 12.84375 8.88184 13.61816 hvcurveto
277.5 vlineto
9.65625 -8.88184 12.84375 -13.61816 vhcurveto
return
                    </CharString>
                    <CharString index="165">
                        252.5 -252.5 -252.5 hlineto
return
                    </CharString>
                    <CharString index="166">
                        -5.36523 -7.13477 -4.9336 -7.5664 hvcurveto
-277.5 vlineto
return
                    </CharString>
                    <CharString index="167">
                        -5.36523 4.9336 -7.13477 7.5664 vhcurveto
277.5 hlineto
return
                    </CharString>
                    <CharString index="168">
                        5.36523 7.13477 4.9336 7.5664 hvcurveto
277.5 vlineto
return
                    </CharString>
                    <CharString index="169">
                        5.36523 -4.9336 7.13477 -7.5664 vhcurveto
return
                    </CharString>
                    <CharString index="170">
                        -252.5 -252.5 vlineto
return
                    </CharString>
                    <CharString index="171">
                        -277.5 277.5 277.5 vlineto
return
                    </CharString>
                    <CharString index="172">
                        217.5 -217.5 -217.5 hlineto
return
                    </CharString>
                    <CharString index="173">
                        -5.36523 -7.13477 -4.9336 -7.5664 hvcurveto
-277.5 vlineto
-5.36523 4.9336 -7.13477 7.5664 vhcurveto
277.5 hlineto
5.36523 7.13477 4.9336 7.5664 hvcurveto
277.5 vlineto
5.36523 -4.9336 7.13477 -7.5664 vhcurveto
return
                    </CharString>
                    <CharString index="174">
                        -232.5 -232.5 232.5 hlineto
return
                    </CharString>
                    <CharString index="175">
                        9.65625 12.84375 -8.88184 -13.61816 hvcurveto
-277.5 vlineto
-9.65625 -8.88184 -12.84375 -13.61816 vhcurveto
-277.5 hlineto
-9.65625 -12.84375 8.88184 13.61816 hvcurveto
277.5 vlineto
9.65625 8.88184 12.84375 13.61816 vhcurveto
return
                    </CharString>
                    <CharString index="176">
                        -252.5 -252.5 252.5 hlineto
return
                    </CharString>
                    <CharString index="177">
                        5.36523 7.13477 -4.9336 -7.5664 hvcurveto
-277.5 vlineto
-5.36523 -4.9336 -7.13477 -7.5664 vhcurveto
-277.5 hlineto
-5.36523 -7.13477 4.9336 7.5664 hvcurveto
277.5 vlineto
5.36523 4.9336 7.13477 7.5664 vhcurveto
return
                    </CharString>
                    <CharString index="178">
                        -277.5 -277.5 277.5 vlineto
return
                    </CharString>
                    <CharString index="179">
                        -217.5 -217.5 217.5 hlineto
return
                    </CharString>
                    <CharString index="180">
                        132 357.9209 -132 vlineto
return
                    </CharString>
                    <CharString index="181">
                        9 7 6 9 9 7 -6 -9 -9 -7 -7 -9 vhcurveto
-9 -7 6 10 hvcurveto
return
                    </CharString>
                    <CharString index="182">
                        8 -2 3 -4 -4 -2 -3 -8 -9 2 -3 4 vhcurveto
4 2 3 9 hvcurveto
return
                    </CharString>
                    <CharString index="183">
                        -6 2 -3 5 vhcurveto
4 0 2 2 1 4 rrcurveto
5 hlineto
return
                    </CharString>
                    <CharString index="184">
                        -479 -889 1094 752 -479 hlineto
return
                    </CharString>
                    <CharString index="185">
                        66 43 84 12 76 -20 69 -18 60 -44 38 -60 -36 -21 -34 -20 -37 -21 -23 32 -34 25 -41 9 -60 14 -66 -24 -37 -50 -39 -50 -4 -73 33 -54 rrcurveto
24 -41 44 -29 47 -7 60 -10 62 29 34 49 35 -20 36 -22 36 -21 -37 -59 -60 -44 -68 -18 -72 -20 -80 10 -65 37 -43 25 -36 36 -25 43 rrcurveto
-37 62 -11 77 17 70 17 71 46 63 61 39 rrcurveto
return
                    </CharString>
                    <CharString index="186">
                        -369 -213 rlineto
-24 -15 -15 -28 1 -29 rrcurveto
-419 vlineto
0 -13 5 -14 6 -11 rrcurveto
177 102 rlineto
-38 65 -12 80 18 73 17 74 48 65 64 41 69 45 88 13 79 -21 76 -20 66 -50 39 -68 58 35 60 33 59 34 -7 11 -9 10 -11 7 rrcurveto
-120 69 -121 70 -120 69 -25 16 -33 2 -26 -13 rrcurveto
return
                    </CharString>
                    <CharString index="187">
                        -36 -46 -4 -67 30 -50 42 26 45 23 42 26 42 25 43 26 43 23 -22 34 -34 27 -40 9 -55 13 -62 -23 -34 -46 rrcurveto
return
                    </CharString>
                    <CharString index="188">
                        22 -38 41 -27 44 -6 59 -9 61 30 29 51 -43 24 -42 24 -42 26 -42 -26 -45 -23 -42 -26 rrcurveto
return
                    </CharString>
                    <CharString index="189">
                        7 -11 9 -10 11 -7 120 -69 121 -70 120 -69 27 -18 38 0 27 18 120 69 121 70 120 69 11 7 9 10 7 11 -59 34 -60 34 -58 35 rrcurveto
-38 -67 -66 -51 -75 -20 -75 -21 -84 11 -67 39 -45 26 -38 37 -26 45 rrcurveto
return
                    </CharString>
                    <CharString index="190">
                        0 -11 4 -10 8 -8 8 -8 10 -4 11 0 11 0 10 4 8 8 8 8 4 10 0 11 0 11 -4 10 -8 8 -8 8 -10 4 -11 0 rrcurveto
-11 0 -10 -4 -8 -8 -8 -8 -4 -10 0 -11 rrcurveto
return
                    </CharString>
                    <CharString index="191">
                        0 -11 4 -10 8 -8 8 -8 10 -4 11 0 11 0 10 4 8 8 8 8 4 10 0 11 0 11 -4 9 -8 8 -8 8 -10 4 -11 0 rrcurveto
-11 0 -10 -4 -8 -8 -8 -8 -4 -9 0 -11 rrcurveto
return
                    </CharString>
                    <CharString index="192">
                        0 12 -4.83333 11.83333 -9.66667 11.66667 rrcurveto
return
                    </CharString>
                    <CharString index="193">
                        -3.33333 0 -3.33334 0.16667 -3.33333 0.33333 rrcurveto
return
                    </CharString>
                    <CharString index="194">
                        3 -1.66667 2.83333 -2.5 2.66667 -3.33333 3.33333 3.33333 3.66667 2.5 4 1.66667 rrcurveto
return
                    </CharString>
                    <CharString index="195">
                        29 hlineto
-0.66667 5.33333 -1.83333 3.66667 -3 2 -3 2 -3.16667 1 -3.33333 0 -2.66667 0 -2.83333 -1 -3 -2 -3 -2 -1.83333 -3.66667 -0.66667 -5.33333 rrcurveto
return
                    </CharString>
                    <CharString index="196">
                        0 149 -101 35 0 -148 rlineto
return
                    </CharString>
                    <CharString index="197">
                        0 149 101 35 0 -148 rlineto
return
                    </CharString>
                    <CharString index="198">
                        -0.33333 1 0.83333 0.5 2 0 rrcurveto
return
                    </CharString>
                    <CharString index="199">
                        -1.33333 -0.66667 0.5 1 hvcurveto
return
                    </CharString>
                    <CharString index="200">
                        -0.66667 -1.33333 -0.5 -1.33334 -0.33333 -1.33333 -0.33333 -1.33333 -0.5 -1.33334 -0.66667 -1.33333 rrcurveto
-2 -4 rlineto
return
                    </CharString>
                    <CharString index="201">
                        -0.66667 -1.33333 -0.33333 -1.33334 0 -1.33333 rrcurveto
2 -1 rlineto
0.66667 1.33333 0.5 1.33334 0.33333 1.33333 rrcurveto
return
                    </CharString>
                    <CharString index="202">
                        0.33333 1.33333 0.16667 1.66667 0 2 0 1.33333 0.16667 1.33334 0.33333 1.33333 0.33333 1.33333 0.5 1.33334 0.66667 1.33333 rrcurveto
return
                    </CharString>
                    <CharString index="203">
                        0.66667 0 0.5 0.16667 0.33333 0.33333 rrcurveto
return
                    </CharString>
                    <CharString index="204">
                        -138 -112 -112 -138 -138 -112 112 138 138 112 112 138 138 112 -112 -138 vhcurveto
return
                    </CharString>
                    <CharString index="205">
                        0 17 -19 7 -13 2 rrcurveto
-280 40 -125 254 rlineto
-5 11 -10 12 -13 0 -13 0 -9 -12 -5 -11 rrcurveto
-126 -254 -280 -40 rlineto
-14 -2 -17 -7 0 -17 0 -10 7 -10 7 -7 rrcurveto
203 -197 -48 -279 rlineto
-1 -4 0 -3 0 -4 0 -15 7 -13 16 0 8 0 8 2 7 4 rrcurveto
250 132 251 -132 rlineto
7 -4 7 -2 8 0 16 0 7 13 0 15 0 4 0 3 -1 4 rrcurveto
-48 279 203 197 rlineto
7 7 8 10 0 10 rrcurveto
return
                    </CharString>
                    <CharString index="206">
                        118 -96 97 -118 -118 -96 -97 -118 -118 96 -96 118 118 96 96 118 vhcurveto
return
                    </CharString>
                    <CharString index="207">
                        -20 -15 -16 -20 vhcurveto
-72 hlineto
-20 -16 16 20 hvcurveto
71 vlineto
20 16 16 20 vhcurveto
72 hlineto
20 15 -16 -20 hvcurveto
return
                    </CharString>
                    <CharString index="208">
                        -20 -16 -16 -20 vhcurveto
-71 hlineto
-20 -16 16 20 hvcurveto
71 vlineto
20 16 16 20 vhcurveto
71 hlineto
20 16 -16 -20 hvcurveto
return
                    </CharString>
                    <CharString index="209">
                        39 -33 32 -39 vhcurveto
-286 hlineto
-39 -32 -32 -39 hvcurveto
-215 vlineto
-39 32 -32 39 vhcurveto
286 hlineto
39 33 32 39 hvcurveto
return
                    </CharString>
                    <CharString index="210">
                        39 -33 33 -39 vhcurveto
-286 hlineto
-39 -32 -33 -39 hvcurveto
-214 vlineto
-39 32 -32 39 vhcurveto
286 hlineto
39 33 32 39 hvcurveto
return
                    </CharString>
                    <CharString index="211">
                        30 -24 23 -30 vhcurveto
-178 hlineto
-30 -24 -23 -30 hvcurveto
-107 vlineto
-30 24 -24 30 vhcurveto
178 hlineto
30 24 24 30 hvcurveto
return
                    </CharString>
                    <CharString index="212">
                        30 -24 24 -30 vhcurveto
-178 hlineto
-30 -24 -24 -30 hvcurveto
-107 vlineto
-30 24 -23 30 vhcurveto
178 hlineto
30 24 23 30 hvcurveto
return
                    </CharString>
                    <CharString index="213">
                        30 -24 24 -30 vhcurveto
-178 hlineto
-30 -24 -24 -30 hvcurveto
-107 vlineto
-30 24 -24 30 vhcurveto
178 hlineto
30 24 24 30 hvcurveto
return
                    </CharString>
                    <CharString index="214">
                        0 19 -8 18 -13 13 rrcurveto
-191 191 rlineto
45 65 24 79 0 79 rrcurveto
217 -176 176 -217 -217 -176 -176 -217 -217 176 -176 217 vhcurveto
79 0 79 24 65 45 rrcurveto
191 -191 rlineto
13 -13 18 -8 19 0 40 0 32 32 0 40 rrcurveto
return
                    </CharString>
                    <CharString index="215">
                        10 -8 8 -10 vhcurveto
-36 hlineto
-10 -8 -8 -10 hvcurveto
-321 vlineto
-10 8 -8 10 vhcurveto
36 hlineto
10 8 8 10 hvcurveto
return
                    </CharString>
                    <CharString index="216">
                        27 65 rlineto
2 2 5 3 3 1 rrcurveto
177 hlineto
3 -1 4 -3 2 -2 rrcurveto
27 -65 rlineto
return
                    </CharString>
                    <CharString index="217">
                        10 -8 8 -10 vhcurveto
-173 0 -39 93 rlineto
-11 27 -33 23 -30 0 rrcurveto
-178 hlineto
-30 0 -34 -23 -11 -27 rrcurveto
-39 -93 -172 0 rlineto
-10 -8 -8 -10 hvcurveto
-36 vlineto
-10 8 -8 10 vhcurveto
53 -531 hlineto
-61 41 -50 49 vhcurveto
464 hlineto
49 40 52 61 hvcurveto
529 54 vlineto
10 8 8 10 hvcurveto
return
                    </CharString>
                    <CharString index="218">
                        -174 174 rlineto
-21 21 -40 17 -30 0 rrcurveto
-500 hlineto
-30 -24 -23 -30 hvcurveto
-893 vlineto
-30 24 -24 30 vhcurveto
750 hlineto
30 23 24 30 hvcurveto
643 vlineto
0 30 -17 40 -21 21 rrcurveto
return
                    </CharString>
                    <CharString index="219">
                        9 -3 10 -5 4 -4 rrcurveto
175 -175 rlineto
4 -4 5 -10 3 -9 rrcurveto
-210 hlineto
return
                    </CharString>
                    <CharString index="220">
                        -715 857 429 -232 hlineto
-30 24 -24 30 vhcurveto
232 hlineto
return
                    </CharString>
                    <CharString index="221">
                        -167 -136 -136 -167 -167 -137 136 167 167 137 137 167 167 136 -137 -167 vhcurveto
return
                    </CharString>
                    <CharString index="222">
                        237 -191 192 -237 -237 -192 -192 -237 -237 192 -191 237 237 191 191 237 vhcurveto
return
                    </CharString>
                    <CharString index="223">
                        -20 -15 -16 -20 -20 -16 16 20 20 16 16 20 20 15 -16 -20 vhcurveto
return
                    </CharString>
                    <CharString index="224">
                        167 136 -137 -167 -167 -136 -136 -167 -167 -137 136 167 167 137 137 167 hvcurveto
return
                    </CharString>
                    <CharString index="225">
                        237 -191 192 -237 vhcurveto
0 vlineto
-237 -192 -192 -237 -237 192 -191 237 237 191 191 237 hvcurveto
return
                    </CharString>
                    <CharString index="226">
                        9 -9 9 -9 vhcurveto
-35 hlineto
-9 -9 -9 -9 hvcurveto
-35 vlineto
-9 9 -9 9 vhcurveto
35 hlineto
9 9 9 9 hvcurveto
return
                    </CharString>
                    <CharString index="227">
                        9 -9 9 -9 vhcurveto
-535 hlineto
-9 -9 -9 -9 hvcurveto
-35 vlineto
-9 9 -9 9 vhcurveto
535 hlineto
9 9 9 9 hvcurveto
return
                    </CharString>
                    <CharString index="228">
                        20 -16 15 -20 vhcurveto
-9 0 -9 -3 -7 -7 rrcurveto
-186 -186 -146 0 rlineto
-20 -16 -16 -20 hvcurveto
-214 vlineto
-20 16 -16 20 vhcurveto
146 0 186 -186 rlineto
7 -7 9 -3 9 0 rrcurveto
20 16 16 20 hvcurveto
return
                    </CharString>
                    <CharString index="229">
                        0 56 -35 54 -52 21 -4 2 -6 1 -4 0 -20 0 -15 -16 0 -20 0 -42 64 12 0 -68 0 -68 -64 12 0 -42 0 -20 15 -16 20 0 rrcurveto
4 0 6 1 4 2 52 21 35 54 0 56 rrcurveto
return
                    </CharString>
                    <CharString index="230">
                        -357 -357 357 hlineto
return
                    </CharString>
                    <CharString index="231">
                        785 -18 -785 vlineto
return
                    </CharString>
                    <CharString index="232">
                        785 -35 -785 vlineto
return
                    </CharString>
                    <CharString index="233">
                        -40 -31 -31 -40 -40 -32 31 40 40 32 32 40 40 31 -32 -40 vhcurveto
return
                    </CharString>
                    <CharString index="234">
                        0 19 -7 18 -13 13 rrcurveto
-399 399 rlineto
-28 28 -54 23 -40 0 rrcurveto
-233 hlineto
-39 -32 -33 -39 hvcurveto
-232 vlineto
0 -40 23 -54 28 -28 rrcurveto
399 -399 rlineto
13 -13 18 -8 19 0 19 0 19 8 13 13 rrcurveto
274 274 rlineto
13 13 7 19 0 19 rrcurveto
return
                    </CharString>
                    <CharString index="235">
                        -585 hlineto
-8 0 -9 -2 -8 -3 -25 -9 -15 -24 0 -25 rrcurveto
-719 vlineto
0 -25 15 -24 25 -9 8 -3 9 -2 8 0 17 0 16 7 13 12 rrcurveto
246 236 246 -236 rlineto
13 -12 17 -6 17 0 8 0 8 1 8 3 25 9 15 24 0 25 rrcurveto
719 vlineto
0 25 -15 24 -25 9 -8 3 -8 2 -8 0 rrcurveto
return
                    </CharString>
                    <CharString index="236">
                        -20 -16 -15 -20 -20 -15 15 20 20 15 16 20 20 16 -16 -20 vhcurveto
return
                    </CharString>
                    <CharString index="237">
                        -138 -112 112 138 138 112 112 138 138 112 -112 -138 -138 -112 -112 -138 hvcurveto
return
                    </CharString>
                    <CharString index="238">
                        20 -16 16 -20 vhcurveto
-928 hlineto
-20 -16 -16 -20 hvcurveto
-71 vlineto
-20 16 -16 20 vhcurveto
928 hlineto
20 16 16 20 hvcurveto
return
                    </CharString>
                    <CharString index="239">
                        20 -16 16 -20 vhcurveto
-714 hlineto
-20 -16 -16 -20 hvcurveto
-71 vlineto
-20 16 -16 20 vhcurveto
714 hlineto
20 16 16 20 hvcurveto
return
                    </CharString>
                    <CharString index="240">
                        20 -16 15 -20 vhcurveto
-857 hlineto
-20 -16 -15 -20 hvcurveto
-72 vlineto
-20 16 -15 20 vhcurveto
857 hlineto
20 16 15 20 hvcurveto
return
                    </CharString>
                    <CharString index="241">
                        9 -9 9 -9 vhcurveto
-107 hlineto
-9 -9 -9 -9 hvcurveto
-107 vlineto
-9 9 -9 9 vhcurveto
107 hlineto
9 9 9 9 hvcurveto
return
                    </CharString>
                    <CharString index="242">
                        9 -9 9 -9 vhcurveto
-750 hlineto
-9 -9 -9 -9 hvcurveto
-107 vlineto
-9 9 -9 9 vhcurveto
750 hlineto
9 9 9 9 hvcurveto
return
                    </CharString>
                    <CharString index="243">
                        9 -9 9 -9 vhcurveto
-964 hlineto
-9 -9 -9 -9 hvcurveto
-107 vlineto
-9 9 -9 9 vhcurveto
964 hlineto
9 9 9 9 hvcurveto
return
                    </CharString>
                    <CharString index="244">
                        9 -9 9 -9 vhcurveto
-607 hlineto
-9 -9 -9 -9 hvcurveto
-107 vlineto
-9 9 -9 9 vhcurveto
607 hlineto
9 9 9 9 hvcurveto
return
                    </CharString>
                    <CharString index="245">
                        9 -9 8 -9 vhcurveto
-607 hlineto
-9 -9 -8 -9 hvcurveto
-108 vlineto
-9 9 -8 9 vhcurveto
607 hlineto
9 9 8 9 hvcurveto
return
                    </CharString>
                    <CharString index="246">
                        59 -48 48 -59 -59 -48 -48 -59 -59 48 -48 59 59 48 48 59 vhcurveto
return
                    </CharString>
                    <CharString index="247">
                        -79 -64 -64 -79 -79 -64 64 79 79 64 64 79 79 64 -64 -79 vhcurveto
return
                    </CharString>
                    <CharString index="248">
                        20 -16 16 -20 vhcurveto
-285 hlineto
-20 -16 -16 -20 hvcurveto
-786 vlineto
-20 16 -15 20 vhcurveto
285 hlineto
20 16 15 20 hvcurveto
return
                    </CharString>
                    <CharString index="249">
                        20 -16 16 -20 vhcurveto
-785 hlineto
-20 -16 -16 -20 hvcurveto
-786 vlineto
-20 16 -15 20 vhcurveto
785 hlineto
20 16 15 20 hvcurveto
return
                    </CharString>
                    <CharString index="250">
                        -237 -192 -192 -237 -237 192 -191 237 237 191 191 237 237 -191 192 -237 hvcurveto
return
                    </CharString>
                    <CharString index="251">
                        -15 -12 -12 -15 -64 -52 -52 -64 -15 -12 -12 -15 -15 -12 12 15 93 77 76 93 15 12 -11 -15 vhcurveto
return
                    </CharString>
                    <CharString index="252">
                        39 -33 32 -39 vhcurveto
-71 54 hlineto
49 -41 40 -49 vhcurveto
-35 hlineto
-49 -41 -40 -49 hvcurveto
-54 -214 54 vlineto
49 -40 40 -49 vhcurveto
-36 hlineto
-49 -40 -40 -49 hvcurveto
-54 -72 vlineto
-39 -32 -32 -39 hvcurveto
-714 vlineto
-39 32 -33 39 vhcurveto
786 hlineto
39 33 33 39 hvcurveto
return
                    </CharString>
                    <CharString index="253">
                        20 -16 16 -20 vhcurveto
-214 hlineto
-20 -16 -16 -20 hvcurveto
-214 vlineto
-20 16 -16 20 vhcurveto
214 hlineto
20 16 16 20 hvcurveto
return
                    </CharString>
                    <CharString index="254">
                        69 -56 56 -69 vhcurveto
-375 18 hlineto
69 -56 56 -69 vhcurveto
-179 hlineto
-69 -56 -56 -69 hvcurveto
-536 vlineto
-69 56 -56 69 vhcurveto
679 hlineto
69 56 56 69 hvcurveto
return
                    </CharString>
                    <CharString index="255">
                        -1072 786 -71 -857 1143 hlineto
return
                    </CharString>
                    <CharString index="256">
                        89 -72 72 -89 vhcurveto
-535 hlineto
-89 -72 -72 -89 hvcurveto
-536 vlineto
-89 72 -71 89 vhcurveto
535 hlineto
89 72 71 89 hvcurveto
return
                    </CharString>
                    <CharString index="257">
                        79 -64 64 -79 -79 -64 -64 -79 -79 64 -64 79 79 64 64 79 vhcurveto
return
                    </CharString>
                    <CharString index="258">
                        -20 -16 16 20 20 16 16 20 hvcurveto
20 16 -16 -20 hvcurveto
return
                    </CharString>
                    <CharString index="259">
                        -20 -15 -16 -20 -20 -16 16 20 20 16 15 20 20 15 -15 -20 vhcurveto
return
                    </CharString>
                    <CharString index="260">
                        25 -19 19 -25 -25 -20 -19 -25 -25 20 -20 25 25 19 20 25 vhcurveto
return
                    </CharString>
                    <CharString index="261">
                        -20 -16 -16 -20 -20 -16 16 20 20 16 16 20 vhcurveto
20 16 -16 -20 hvcurveto
return
                    </CharString>
                    <CharString index="262">
                        -20 -16 -16 -20 -20 -16 16 20 20 16 16 20 20 16 -16 -20 vhcurveto
return
                    </CharString>
                    <CharString index="263">
                        -20 -15 -15 -20 -20 -16 15 20 20 16 16 20 vhcurveto
20 15 -16 -20 hvcurveto
return
                    </CharString>
                    <CharString index="264">
                        9 -9 9 -9 vhcurveto
-678 hlineto
-9 -9 -9 -9 hvcurveto
-107 vlineto
-9 9 -9 9 vhcurveto
678 hlineto
9 9 9 9 hvcurveto
return
                    </CharString>
                    <CharString index="265">
                        10 -9 8 -9 vhcurveto
-678 hlineto
-10 -8 -8 -10 hvcurveto
-107 vlineto
-9 8 -9 10 vhcurveto
678 hlineto
9 9 9 9 hvcurveto
return
                    </CharString>
                    <CharString index="266">
                        -10 -8 -8 -10 vhcurveto
-179 hlineto
-10 -8 8 10 hvcurveto
107 vlineto
10 8 8 10 vhcurveto
179 hlineto
10 8 -8 -10 hvcurveto
return
                    </CharString>
                    <CharString index="267">
                        -10 -7 -8 -10 vhcurveto
-179 hlineto
-10 -8 8 10 hvcurveto
107 vlineto
10 8 8 10 vhcurveto
179 hlineto
10 7 -8 -10 hvcurveto
return
                    </CharString>
                    <CharString index="268">
                        -10 -8 -8 -10 vhcurveto
-178 hlineto
-10 -8 8 10 hvcurveto
107 vlineto
10 8 8 10 vhcurveto
178 hlineto
10 8 -8 -10 hvcurveto
return
                    </CharString>
                    <CharString index="269">
                        20 -15 16 -20 vhcurveto
-500 hlineto
-20 -16 -16 -20 hvcurveto
0 -9 4 -9 7 -7 rrcurveto
250 -250 rlineto
7 -7 9 -4 9 0 9 0 9 4 7 7 rrcurveto
250 250 rlineto
7 7 3 9 0 9 rrcurveto
return
                    </CharString>
                    <CharString index="270">
                        0 9 -3 9 -7 7 rrcurveto
-250 250 rlineto
-7 7 -9 4 -9 0 -9 0 -9 -4 -7 -7 rrcurveto
-250 -250 rlineto
-7 -7 -4 -9 0 -9 rrcurveto
-20 16 -15 20 vhcurveto
500 hlineto
20 15 15 20 hvcurveto
return
                    </CharString>
                    <CharString index="271">
                        236 -192 193 -236 vhcurveto
-110 0 -107 -45 -79 -74 rrcurveto
-72 72 rlineto
-10 11 -16 3 -13 -6 -13 -6 -9 -12 0 -15 rrcurveto
-250 vlineto
-20 16 -15 20 vhcurveto
250 hlineto
15 0 12 9 6 13 6 13 -3 15 -11 10 rrcurveto
-77 77 rlineto
52 49 70 28 73 0 rrcurveto
157 128 -129 -157 -157 -128 -129 -157 hvcurveto
-89 0 -82 40 -55 71 -3 4 -5 2 -5 1 -5 0 -5 -2 -4 -3 rrcurveto
-76 -77 rlineto
-6 -6 -1 -11 6 -7 81 -98 121 -56 128 0 rrcurveto
236 192 192 236 hvcurveto
return
                    </CharString>
                    <CharString index="272">
                        -40 -31 -31 -40 -40 -31 31 40 40 31 32 40 40 31 -32 -40 vhcurveto
return
                    </CharString>
                    <CharString index="273">
                        -40 -32 -31 -40 -40 -31 31 40 40 31 32 40 40 32 -32 -40 vhcurveto
return
                    </CharString>
                    <CharString index="274">
                        232 197 -131 -155 -155 -197 -131 -232 hvcurveto
-24 0 -25 2 -24 3 rrcurveto
-31 3 -24 -21 rlineto
-46 -40 -52 -32 -56 -23 15 26 13 30 11 40 rrcurveto
15 53 -48 28 rlineto
-97 55 -56 79 0 83 rrcurveto
155 197 131 232 vhcurveto
return
                    </CharString>
                    <CharString index="275">
                        0 99 -68 87 -97 23 15 23 8 27 0 27 0 79 -64 64 -79 0 -34 0 -33 -13 -26 -22 -44 107 -104 71 -116 0 -158 0 -128 -128 0 -158 rrcurveto
0 -8 0 -8 1 -8 -88 -41 -56 -88 0 -97 rrcurveto
-138 112 -112 138 vhcurveto
607 hlineto
118 96 96 118 hvcurveto
return
                    </CharString>
                    <CharString index="276">
                        -393 hlineto
-10 -8 -8 -10 hvcurveto
-36 vlineto
-10 8 -8 10 vhcurveto
393 hlineto
10 8 8 10 hvcurveto
36 vlineto
10 -8 8 -10 vhcurveto
return
                    </CharString>
                    <CharString index="277">
                        9 -9 9 -9 vhcurveto
-35 hlineto
-9 -9 -9 -9 hvcurveto
-36 vlineto
-9 9 -9 9 vhcurveto
35 hlineto
9 9 9 9 hvcurveto
return
                    </CharString>
                    <CharString index="278">
                        9 -9 9 -9 vhcurveto
-36 hlineto
-9 -9 -9 -9 hvcurveto
-36 vlineto
-9 9 -9 9 vhcurveto
36 hlineto
9 9 9 9 hvcurveto
return
                    </CharString>
                    <CharString index="279">
                        9 -9 9 -9 vhcurveto
-36 hlineto
-9 -8 -9 -9 hvcurveto
-36 vlineto
-9 8 -9 9 vhcurveto
36 hlineto
9 9 9 9 hvcurveto
return
                    </CharString>
                    <CharString index="280">
                        9 -9 8 -9 vhcurveto
-35 hlineto
-9 -9 -8 -9 hvcurveto
-36 vlineto
-9 9 -9 9 vhcurveto
35 hlineto
9 9 9 9 hvcurveto
return
                    </CharString>
                    <CharString index="281">
                        59 -49 49 -59 vhcurveto
-125 hlineto
-30 -23 23 30 hvcurveto
18 vlineto
79 64 64 79 vhcurveto
35 hlineto
20 16 16 20 hvcurveto
71 vlineto
20 -16 16 -20 vhcurveto
-35 hlineto
-157 -129 -129 -157 hvcurveto
-393 vlineto
-59 48 -48 59 vhcurveto
214 hlineto
59 49 48 59 hvcurveto
return
                    </CharString>
                    <CharString index="282">
                        59 -49 48 -59 vhcurveto
-214 hlineto
-59 -48 -48 -59 hvcurveto
-215 vlineto
-59 48 -48 59 vhcurveto
125 hlineto
30 24 -23 -30 hvcurveto
-18 vlineto
-79 -64 -64 -79 vhcurveto
-36 hlineto
-20 -16 -16 -20 hvcurveto
-71 vlineto
-20 16 -16 20 vhcurveto
36 hlineto
157 129 129 157 hvcurveto
return
                    </CharString>
                    <CharString index="283">
                        40 -31 32 -40 -40 -31 -32 -40 -40 31 -31 40 40 31 31 40 vhcurveto
return
                    </CharString>
                    <CharString index="284">
                        40 -32 32 -40 -40 -31 -32 -40 -40 31 -31 40 40 32 31 40 vhcurveto
return
                    </CharString>
                    <CharString index="285">
                        40 -31 32 -40 -40 -32 -32 -40 -40 32 -31 40 40 31 31 40 vhcurveto
return
                    </CharString>
                    <CharString index="286">
                        69 -56 56 -69 -69 -56 -56 -69 -69 56 -56 69 69 56 56 69 vhcurveto
return
                    </CharString>
                    <CharString index="287">
                        41 -21 66 -50 -50 -22 -66 -41 -41 22 -67 50 50 21 67 41 vhcurveto
return
                    </CharString>
                    <CharString index="288">
                        40 -31 31 -40 -40 -32 -31 -40 -40 32 -31 40 40 31 31 40 vhcurveto
return
                    </CharString>
                    <CharString index="289">
                        40 -32 31 -40 -40 -31 -31 -40 -40 31 -31 40 40 32 31 40 vhcurveto
return
                    </CharString>
                    <CharString index="290">
                        -197 -160 -160 -197 -197 -161 160 197 197 161 160 197 197 160 -160 -197 vhcurveto
return
                    </CharString>
                    <CharString index="291">
                        5 -4 4 -5 vhcurveto
-53 hlineto
-5 -4 -4 -5 hvcurveto
-53 vlineto
-5 4 -4 5 vhcurveto
53 hlineto
5 4 4 5 hvcurveto
return
                    </CharString>
                    <CharString index="292">
                        5 -4 4 -5 vhcurveto
-54 hlineto
-5 -4 -4 -5 hvcurveto
-53 vlineto
-5 4 -4 5 vhcurveto
54 hlineto
5 4 4 5 hvcurveto
return
                    </CharString>
                    <CharString index="293">
                        -53 hlineto
-5 -4 -4 -5 hvcurveto
-53 vlineto
-5 4 -4 5 vhcurveto
53 hlineto
5 4 4 5 hvcurveto
return
                    </CharString>
                    <CharString index="294">
                        40 -32 32 -40 -40 -31 -32 -40 vhcurveto
0 -26 14 -23 21 -12 rrcurveto
-707 vlineto
-10 8 -7 10 vhcurveto
36 hlineto
10 8 7 10 hvcurveto
707 vlineto
21 12 15 23 0 26 rrcurveto
return
                    </CharString>
                    <CharString index="295">
                        571 786 -571 vlineto
return
                    </CharString>
                    <CharString index="296">
                        -10 -8 -8 -10 vhcurveto
-36 hlineto
-10 -8 8 10 hvcurveto
161 vlineto
10 8 8 10 vhcurveto
36 hlineto
10 8 -8 -10 hvcurveto
return
                    </CharString>
                    <CharString index="297">
                        -10 -8 -8 -10 vhcurveto
-35 hlineto
-10 -8 8 10 hvcurveto
161 vlineto
10 8 8 10 vhcurveto
35 hlineto
10 8 -8 -10 hvcurveto
return
                    </CharString>
                    <CharString index="298">
                        79 -63 64 -79 -79 -64 -64 -79 -79 64 -64 79 79 63 64 79 vhcurveto
return
                    </CharString>
                    <CharString index="299">
                        30 -23 24 -30 vhcurveto
-107 hlineto
-30 -24 -24 -30 hvcurveto
-107 vlineto
-30 24 -23 30 vhcurveto
107 hlineto
30 23 23 30 hvcurveto
return
                    </CharString>
                    <CharString index="300">
                        -40 -32 -32 -40 -40 -31 32 40 40 31 31 40 40 32 -31 -40 vhcurveto
return
                    </CharString>
                    <CharString index="301">
                        -49 -40 -41 -49 vhcurveto
-464 hlineto
-49 -41 41 49 hvcurveto
464 vlineto
49 41 40 49 vhcurveto
464 hlineto
49 40 -40 -49 hvcurveto
return
                    </CharString>
                    <CharString index="302">
                        89 -72 72 -89 vhcurveto
-464 hlineto
-89 -72 -72 -89 hvcurveto
-464 vlineto
-89 72 -72 89 vhcurveto
464 hlineto
89 72 72 89 hvcurveto
return
                    </CharString>
                    <CharString index="303">
                        -9 -9 -9 -9 vhcurveto
-535 hlineto
-9 -9 9 9 hvcurveto
536 vlineto
9 9 9 9 vhcurveto
535 hlineto
9 9 -9 -9 hvcurveto
return
                    </CharString>
                    <CharString index="304">
                        -10 -8 -8 -10 vhcurveto
-393 hlineto
-10 -8 8 10 hvcurveto
36 vlineto
10 8 8 10 vhcurveto
393 hlineto
10 8 -8 -10 hvcurveto
return
                    </CharString>
                    <CharString index="305">
                        10 -8 7 -10 vhcurveto
0 -107 768 vlineto
10 -8 8 -10 vhcurveto
-107 hlineto
-10 -8 -8 -10 hvcurveto
-768 -107 vlineto
-7 0 -7 -4 -3 -7 -3 -7 2 -6 5 -6 rrcurveto
178 -179 rlineto
4 -3 5 -2 4 0 4 0 5 2 4 3 rrcurveto
178 178 rlineto
3 4 3 5 0 5 rrcurveto
return
                    </CharString>
                    <CharString index="306">
                        10 -8 8 -10 vhcurveto
-464 hlineto
-10 -8 -8 -10 hvcurveto
-107 vlineto
-10 8 -8 10 vhcurveto
464 hlineto
10 8 8 10 hvcurveto
return
                    </CharString>
                    <CharString index="307">
                        10 -8 8 -10 vhcurveto
-143 hlineto
-10 -8 -8 -10 hvcurveto
-107 vlineto
-10 8 -8 10 vhcurveto
143 hlineto
10 8 8 10 hvcurveto
return
                    </CharString>
                    <CharString index="308">
                        -535 hlineto
-89 -72 -72 -89 hvcurveto
-536 vlineto
-89 72 -71 89 vhcurveto
535 hlineto
89 72 71 89 hvcurveto
536 vlineto
89 -72 72 -89 vhcurveto
return
                    </CharString>
                    <CharString index="309">
                        -276 -224 -224 -276 -276 224 -224 276 276 224 224 276 276 -224 224 -276 hvcurveto
return
                    </CharString>
                    <CharString index="310">
                        276 -224 224 -276 -276 -224 -224 -276 -276 224 -224 276 276 224 224 276 vhcurveto
return
                    </CharString>
                    <CharString index="311">
                        24 -20 19 -23 -23 -20 -19 -24 -23 20 -20 23 23 20 20 23 vhcurveto
return
                    </CharString>
                    <CharString index="312">
                        -10 -8 -8 -10 vhcurveto
-71 hlineto
-10 -8 8 10 hvcurveto
71 vlineto
10 8 8 10 vhcurveto
71 hlineto
10 8 -8 -10 hvcurveto
return
                    </CharString>
                    <CharString index="313">
                        -10 -8 -8 -10 vhcurveto
-72 hlineto
-10 -7 8 10 hvcurveto
71 vlineto
10 7 8 10 vhcurveto
72 hlineto
10 8 -8 -10 hvcurveto
return
                    </CharString>
                    <CharString index="314">
                        -10 -8 -8 -10 vhcurveto
-72 hlineto
-10 -8 8 10 hvcurveto
71 vlineto
10 8 8 10 vhcurveto
72 hlineto
10 8 -8 -10 hvcurveto
return
                    </CharString>
                    <CharString index="315">
                        10 8 8 10 vhcurveto
35 hlineto
10 8 -8 -10 hvcurveto
-36 vlineto
-10 -8 -8 -10 vhcurveto
-35 hlineto
-10 -8 8 10 hvcurveto
return
                    </CharString>
                    <CharString index="316">
                        -10 -8 -8 -10 vhcurveto
-35 hlineto
-10 -8 8 10 hvcurveto
36 vlineto
10 8 8 10 vhcurveto
35 hlineto
10 8 -8 -10 hvcurveto
return
                    </CharString>
                    <CharString index="317">
                        -10 -8 -8 -10 vhcurveto
-36 hlineto
-10 -7 8 10 hvcurveto
36 vlineto
10 7 8 10 vhcurveto
36 hlineto
10 8 -8 -10 hvcurveto
return
                    </CharString>
                    <CharString index="318">
                        -10 -8 -8 -10 vhcurveto
-36 hlineto
-10 -8 8 10 hvcurveto
36 vlineto
10 8 8 10 vhcurveto
36 hlineto
10 8 -8 -10 hvcurveto
return
                    </CharString>
                    <CharString index="319">
                        0 191 214 92 0 -175 rlineto
return
                    </CharString>
                    <CharString index="320">
                        50 199 rlineto
2 6 10 9 7 0 rrcurveto
429 hlineto
7 0 10 -9 2 -6 rrcurveto
50 -199 rlineto
return
                    </CharString>
                    <CharString index="321">
                        -168 0 -169 30 -92 65 rrcurveto
-95 vlineto
-79 192 -64 237 237 191 64 79 vhcurveto
95 vlineto
-92 -65 -168 -30 -168 0 rrcurveto
return
                    </CharString>
                    <CharString index="322">
                        276 -224 224 -276 vhcurveto
0 vlineto
-276 -224 -224 -276 -276 224 -224 276 276 224 224 276 hvcurveto
return
                    </CharString>
                    <CharString index="323">
                        -178 -56 181 vlineto
-147 275 67 0 87 -174 rlineto
0 0 12 -25 11 -26 11 25 14 26 0 0 rrcurveto
87 174 63 0 rlineto
return
                    </CharString>
                    <CharString index="324">
                        10 -8 8 -10 vhcurveto
-107 hlineto
-10 -8 -8 -10 hvcurveto
-107 vlineto
-10 8 -8 10 vhcurveto
107 hlineto
10 8 8 10 hvcurveto
return
                    </CharString>
                    <CharString index="325">
                        10 -8 8 -10 vhcurveto
-107 hlineto
-10 -8 -8 -10 hvcurveto
-107 vlineto
-10 8 -8 10 vhcurveto
107 hlineto
return
                    </CharString>
                    <CharString index="326">
                        10 -8 8 -10 vhcurveto
-161 hlineto
-10 -8 -8 -10 hvcurveto
-125 197 vlineto
return
                    </CharString>
                    <CharString index="327">
                        -40 -32 -31 -40 -40 -31 31 40 40 31 31 40 40 32 -31 -40 vhcurveto
return
                    </CharString>
                    <CharString index="328">
                        -40 -31 -32 -40 -40 -32 32 40 40 32 31 40 40 31 -31 -40 vhcurveto
return
                    </CharString>
                    <CharString index="329">
                        39 -33 33 -39 vhcurveto
-1143 hlineto
-39 -32 -33 -39 hvcurveto
-714 vlineto
-39 32 -32 39 vhcurveto
1143 hlineto
39 33 32 39 hvcurveto
return
                    </CharString>
                    <CharString index="330">
                        22 -16 12 -21 -27 -21 -22 -27 -22 15 -11 21 27 22 21 27 vhcurveto
return
                    </CharString>
                    <CharString index="331">
                        -10 -8 -8 -10 vhcurveto
-36 hlineto
-10 -8 8 10 hvcurveto
393 vlineto
10 8 8 10 vhcurveto
36 hlineto
10 8 -8 -10 hvcurveto
return
                    </CharString>
                    <CharString index="332">
                        20 -16 16 -20 vhcurveto
-670 hlineto
-6 27 0 44 -38 0 rrcurveto
-143 hlineto
-20 -16 -15 -20 -20 16 -16 20 hvcurveto
114 0 98 -459 rlineto
-8 -16 -26 -44 0 -17 rrcurveto
-20 16 -16 20 vhcurveto
571 hlineto
20 16 16 20 20 -16 16 -20 hvcurveto
-513 hlineto
6 11 7 12 0 13 0 13 -5 14 -2 12 rrcurveto
583 68 rlineto
18 2 14 15 0 18 rrcurveto
return
                    </CharString>
                    <CharString index="333">
                        -30 -23 -24 -30 -30 -24 24 30 30 24 23 30 30 23 -23 -30 vhcurveto
return
                    </CharString>
                    <CharString index="334">
                        118 96 96 118 118 -96 97 -118 -118 -96 -97 -118 -118 96 -96 118 hvcurveto
return
                    </CharString>
                    <CharString index="335">
                        -357 hlineto
-138 -112 -79 -99 hvcurveto
-500 vlineto
0 -97 107 -78 134 -3 rrcurveto
-119 -113 rlineto
-12 -11 8 -20 16 0 rrcurveto
589 hlineto
16 0 8 20 -12 11 rrcurveto
-118 113 rlineto
134 3 106 78 0 97 rrcurveto
500 vlineto
99 -112 79 -138 vhcurveto
return
                    </CharString>
                    <CharString index="336">
                        89 vlineto
49 -40 40 -49 vhcurveto
-1036 hlineto
-49 -40 -40 -49 hvcurveto
-536 vlineto
-49 40 -40 49 vhcurveto
1036 hlineto
49 40 40 49 hvcurveto
90 vlineto
return
                    </CharString>
                    <CharString index="337">
                        40 32 31 40 hvcurveto
214 vlineto
40 -32 32 -40 vhcurveto
return
                    </CharString>
                    <CharString index="338">
                        -161 vlineto
-10 -8 -8 -10 vhcurveto
-1036 hlineto
-10 -8 8 10 hvcurveto
536 vlineto
10 8 8 10 vhcurveto
1036 hlineto
10 8 -8 -10 hvcurveto
-161 71 vlineto
return
                    </CharString>
                    <CharString index="339">
                        53 hlineto
10 8 8 10 hvcurveto
35 vlineto
10 -8 8 -10 vhcurveto
-821 hlineto
-10 -8 -8 -10 hvcurveto
-35 vlineto
-10 8 -8 10 vhcurveto
53 hlineto
0 -206 100 -150 109 -73 -109 -73 -100 -149 0 -206 rrcurveto
-53 hlineto
-10 -8 -8 -10 hvcurveto
-36 vlineto
-10 8 -8 10 vhcurveto
821 hlineto
10 8 8 10 hvcurveto
36 vlineto
10 -8 8 -10 vhcurveto
-53 hlineto
0 206 -99 149 -109 73 109 73 99 150 0 206 rrcurveto
return
                    </CharString>
                    <CharString index="340">
                        -821 hlineto
-10 -8 -8 -10 hvcurveto
-71 vlineto
-10 8 -8 10 vhcurveto
821 hlineto
10 8 8 10 hvcurveto
71 vlineto
10 -8 8 -10 vhcurveto
return
                    </CharString>
                    <CharString index="341">
                        227 184 -184 -227 -227 -184 -184 -227 -227 -184 184 227 227 184 184 227 hvcurveto
return
                    </CharString>
                    <CharString index="342">
                        -10 -8 -7 -10 vhcurveto
-143 hlineto
-10 -8 7 10 hvcurveto
322 vlineto
10 8 8 10 vhcurveto
143 hlineto
10 8 -8 -10 hvcurveto
return
                    </CharString>
                    <CharString index="343">
                        -167 -137 136 167 167 137 137 167 167 136 -137 -167 -167 -136 -136 -167 hvcurveto
return
                    </CharString>
                    <CharString index="344">
                        107 hlineto
10 8 7 10 hvcurveto
322 vlineto
10 -8 8 -10 vhcurveto
-107 hlineto
-10 -8 -8 -10 hvcurveto
-322 vlineto
-10 8 -7 10 vhcurveto
return
                    </CharString>
                    <CharString index="345">
                        1.33333 0.66667 0.66667 1.33333 hvcurveto
return
                    </CharString>
                    <CharString index="346">
                        -138 0 -117.83333 -48.83333 -97.66667 -97.66667 -97.66667 -97.66667 -48.83333 -117.83333 0 -138 0 -138 48.83333 -117.83333 97.66667 -97.66667 97.66667 -97.66667 117.83333 -48.83333 138 0 138 0 117.83333 48.83333 97.66667 97.66667 97.66667 97.66667 48.83333 117.83333 0 138 rrcurveto
0 138 -48.83333 117.83333 -97.66667 97.66667 -97.66667 97.66667 -117.83333 48.83333 -138 0 rrcurveto
return
                    </CharString>
                    <CharString index="347">
                        130 0 111.66667 -46.66667 93.33333 -93.33333 93.33333 -93.33333 46.66667 -111.66667 0 -130 0 -130 -46.66667 -111.66667 -93.33333 -93.33333 rrcurveto
return
                    </CharString>
                    <CharString index="348">
                        -93.33333 -93.33333 -111.66667 -46.66667 -130 0 -130 0 -111.66667 46.66667 -93.33333 93.33333 -93.33333 93.33333 -46.66667 111.66667 0 130 0 130 46.66667 111.66667 93.33333 93.33333 93.33333 93.33333 111.66667 46.66667 130 0 rrcurveto
return
                    </CharString>
                    <CharString index="349">
                        -626 hlineto
-17.33333 0 -14.5 -6 -11.66667 -12 rrcurveto
return
                    </CharString>
                    <CharString index="350">
                        -11.66667 -12 -6.16666 -14.66667 -0.66667 -17.33333 rrcurveto
return
                    </CharString>
                    <CharString index="351">
                        -125 -313 62 -187 -62 -126 125 vlineto
return
                    </CharString>
                    <CharString index="352">
                        17.33333 -0.66667 14.5 -6.16666 11.66667 -11.66667 11.66667 -11.66667 6.16666 -14.5 0.66667 -17.33333 rrcurveto
-750 vlineto
-0.66667 -17.33333 -6.16666 -14.5 -11.66667 -11.66667 -11.66667 -11.66667 -14.5 -6.16666 -17.33333 -0.66667 rrcurveto
-126 62 126 125 -126 63 126 562 -563 -562 187 -63 -250 -125 250 hlineto
-62 -250 vlineto
-17.33333 0 -14.5 6 -11.66667 12 -11.66667 12 -6.16666 14.66667 -0.66667 17.33333 rrcurveto
750 vlineto
0.66667 17.33333 6.16666 14.5 11.66667 11.66667 11.66667 11.66667 14.5 6.16666 17.33333 0.66667 rrcurveto
return
                    </CharString>
                    <CharString index="353">
                        20.66667 0.66667 17.5 7.5 14.33333 14.33333 14.33333 14.33333 7.16667 17.5 0 20.66667 0 20.66667 -7.16667 17.5 -14.33333 14.33333 -14.33333 14.33333 -17.5 7.16667 -20.66667 0 -20.66667 0 -17.5 -7.16667 -14.33333 -14.33333 -14.33333 -14.33333 -7.16667 -17.5 0 -20.66667 rrcurveto
0 -20.66667 7.16667 -17.5 14.33333 -14.33333 14.33333 -14.33333 17.5 -7.5 20.66667 -0.66667 rrcurveto
return
                    </CharString>
                    <CharString index="354">
                        67.33333 0.66667 57.83334 -17.5 48.33333 -35.66667 48.33333 -35.66667 25.5 -55.5 2.66667 -75.33333 -2.66667 -72.66667 -25.5 -54.66666 -48.33333 -36.66667 -48.33333 -36.66667 -57.83334 -18.33333 -67.33333 0 rrcurveto
-125 82 125 hlineto
19.33333 -2.66667 31.66667 6.33334 44 15.33333 44 15.33333 24.66667 39.33334 5.33333 63.33333 -4 60 -21.83333 38.5 -39.66667 17 -39.66667 17 -34.5 7.5 -29.33333 -2 rrcurveto
-81 75 hlineto
-0.66667 12 -14.16666 20.66667 -27.66667 29.33333 -27.66667 29.33333 -52.5 16.66667 -77.33333 4 -53.33333 -1.33333 -46.16667 -17.16667 -39 -33 rrcurveto
return
                    </CharString>
                    <CharString index="355">
                        -39 -33 -20.5 -38.83333 -2 -44.66667 rrcurveto
-82 -81 vlineto
-49.33333 -3.33333 -30.83334 -16.16667 -12.33333 -29 -11.66667 -29 -4.83333 -19.16667 2 -9.33333 -2 -12.66667 5.16667 -20 12.33333 -27.33333 12.33333 -27.33333 30.5 -15.33334 48.66667 -3.33333 rrcurveto
187 -82 -187 hlineto
-62.66667 1.33333 -47 19.5 -31.33333 37.66667 -31.33333 37 -15.66667 42.83333 0 48.66667 0 48.66667 15.83333 43.16666 31.66667 37.66667 31.66667 37.66667 46.83333 19.83333 62 2 1.33333 66.66667 27.66667 57.66666 54 48.66667 54 48.66667 66 25.66666 78 2.66667 rrcurveto
110 -5.33333 75 -28 40 -50.66667 rrcurveto
40 -50 18.66667 -34.66667 -2.66667 -19.33333 rrcurveto
return
                    </CharString>
                    <CharString index="356">
                        -0.66667 17.33333 -6.16666 14.66667 -11.66667 12 -11.66667 12 -14.5 6.33333 -17.33333 0.66667 rrcurveto
-876 hlineto
-17.33333 0 -14.5 -6.33333 -11.66667 -12.66667 -11.66667 -12 -6.16666 -14.66667 -0.66667 -17.33333 rrcurveto
-563 vlineto
0.66667 -17.33333 6.16666 -14.5 11.66667 -11.66667 11.66667 -11.66667 14.5 -6.16666 17.33333 -0.66667 rrcurveto
876 hlineto
17.33333 0.66667 14.5 6.16666 11.66667 11.66667 11.66667 11.66667 6.16666 14.5 0.66667 17.33333 rrcurveto
return
                    </CharString>
                    <CharString index="357">
                        219 -219 0 -593 rlineto
-0.66667 -17.33333 -6.16666 -14.83334 -11.66667 -12.33333 -11.66667 -11.66667 -14.5 -6.16666 -17.33333 -0.66667 rrcurveto
-626 hlineto
-17.33333 0.66667 -14.5 6.33333 -11.66667 12 -11.66667 12 -6.16666 14.66667 -0.66667 17.33333 rrcurveto
750 vlineto
0.66667 17.33333 6.16666 14.5 11.66667 11.66667 11.66667 11.66667 14.5 6.16666 17.33333 0.66667 rrcurveto
return
                    </CharString>
                    <CharString index="358">
                        0 562 -188 188 -438 0 0 -750 rlineto
return
                    </CharString>
                    <CharString index="359">
                        -219 219 -469 0 rlineto
-17.33333 -0.66667 -14.5 -6.16666 -11.66667 -11.66667 -11.66667 -11.66667 -6.16666 -14.5 -0.66667 -17.33333 rrcurveto
-750 vlineto
0.66667 -17.33333 6.16666 -14.83334 11.66667 -12.33333 11.66667 -11.66667 14.5 -6.16666 17.33333 -0.66667 rrcurveto
626 hlineto
17.33333 0.66667 14.5 6.33333 11.66667 12 11.66667 12 6.16666 14.66667 0.66667 17.33333 rrcurveto
return
                    </CharString>
                    <CharString index="360">
                        17.33333 -0.66667 14.66667 -6.16666 12 -11.66667 12 -11.66667 6.33333 -14.5 0.66667 -17.33333 rrcurveto
-500 vlineto
-0.66667 -17.33333 -6.33333 -14.5 -12 -11.66667 -12 -11.66667 -14.66667 -6.16666 -17.33333 -0.66667 rrcurveto
-750 hlineto
-17.33333 0 -14.5 6 -11.66667 12 -11.66667 12 -6.16666 14.66667 -0.66667 17.33333 rrcurveto
625 vlineto
0.66667 17.33333 6.16666 14.66667 11.66667 12 11.66667 12 14.5 6.33333 17.33333 0.66667 rrcurveto
313 hlineto
42.66667 0 21 -21 -0.66667 -42 rrcurveto
-63 vlineto
return
                    </CharString>
                    <CharString index="361">
                        125 0 31 -32 0 -312 -31 -32 -125 0 -31 32 0 312 rlineto
return
                    </CharString>
                    <CharString index="362">
                        -100.66667 -2.66667 -84 -35 -67.33333 -67.33333 -67.33333 -67.33333 -35 -84 -2.66667 -100.66667 2.66667 -101.33333 35 -83.83334 67.33333 -66.33333 67.33333 -67 84 -34.83333 100.66667 -2.66667 101.33333 2.66667 83.83334 34.83333 66.33333 67 67 67 34.83333 83.83333 2.66667 100.66667 rrcurveto
-2.66667 101.33333 -34.83333 84.16667 -67 67 -67 67 -83.83333 34.83333 -100.66667 2.66667 rrcurveto
return
                    </CharString>
                    <CharString index="363">
                        124 -3.33333 103 -42.83334 82 -82.33333 82 -82.33333 42.66667 -103.16667 3.33333 -124 -3.33333 -124 -42.66667 -102.83333 -82 -81.66667 -82 -82.33333 -103 -42.83334 -124 -3.33333 -124 3.33333 -103.16667 42.66667 -82.33333 82 -82.33333 82 -42.83334 103 -3.33333 124 rrcurveto
3.33333 124 42.83334 103.16667 82.33333 82.33333 82.33333 82.33333 103.16667 42.83334 124 3.33333 rrcurveto
return
                    </CharString>
                    <CharString index="364">
                        17.33333 0 10.66667 5.66667 4 11.33333 4 11.33333 1.66667 15 -0.66667 18.66667 0.66667 18.66667 -1.66667 15.33333 -4 12 -4 11.33333 -10.66667 5.66667 -17.33333 0 rrcurveto
-676 hlineto
-17.33333 0 -10.66667 -5.83333 -4 -11.66667 -4 -11.66667 -1.66667 -15.16666 0.66667 -18.66667 -0.66667 -18.66667 1.66667 -15 4 -11.33333 4 -11.33333 10.66667 -5.66667 17.33333 0 rrcurveto
return
                    </CharString>
                    <CharString index="365">
                        -17.33333 0 -10.66667 5.83333 -4 11.66667 -4 11.66667 -1.66667 15.16666 0.66667 18.66667 -0.66667 18.66667 1.66667 15.16666 4 11.66667 4 11.66667 10.66667 5.83333 17.33333 0 rrcurveto
426 hlineto
17.33333 0 10.66667 -5.83333 4 -11.66667 4 -11.66667 1.66667 -15.16666 -0.66667 -18.66667 0.66667 -18.66667 -1.66667 -15.16666 -4 -11.66667 -4 -11.66667 -10.66667 -5.83333 -17.33333 0 rrcurveto
return
                    </CharString>
                    <CharString index="366">
                        17.33333 0 10.66667 -5.83333 4 -11.66667 4 -11.66667 1.66667 -15.16666 -0.66667 -18.66667 0.66667 -18.66667 -1.66667 -15 -4 -11.33333 -4 -11.33333 -10.66667 -5.66667 -17.33333 0 rrcurveto
-426 hlineto
-17.33333 0 -10.66667 5.66667 -4 11.33333 -4 11.33333 -1.66667 15 0.66667 18.66667 -0.66667 18.66667 1.66667 15.33333 4 12 4 11.33333 10.66667 5.66667 17.33333 0 rrcurveto
return
                    </CharString>
                    <CharString index="367">
                        17.33333 -0.66667 14.66667 -6.16666 12 -11.66667 12 -11.66667 6.33333 -14.5 0.66667 -17.33333 rrcurveto
-750 vlineto
-0.66667 -17.33333 -6.33333 -14.83334 -12 -12.33333 -12 -11.66667 -14.66667 -6.16666 -17.33333 -0.66667 rrcurveto
-750 hlineto
-17.33333 0.66667 -14.5 6.33333 -11.66667 12 -11.66667 12 -6.16666 14.66667 -0.66667 17.33333 rrcurveto
750 vlineto
0.66667 17.33333 6.16666 14.5 11.66667 11.66667 11.66667 11.66667 14.5 6.16666 17.33333 0.66667 rrcurveto
return
                    </CharString>
                    <CharString index="368">
                        750 -750 -750 vlineto
return
                    </CharString>
                    <CharString index="369">
                        -0.66667 -17.33333 -6.33333 -14.66667 -12 -12 -12 -12 -14.66667 -6 -17.33333 0 -17.33333 0 -14.66667 6 -12 12 -12 12 -6 14.66667 0 17.33333 0 17.33333 6 14.66667 12 12 12 12 14.66667 6 17.33333 0 rrcurveto
17.33333 0 14.66667 -6 12 -12 12 -12 6.33333 -14.66667 0.66667 -17.33333 rrcurveto
return
                    </CharString>
                <CharString name=".notdef">
                    -200 50 900 50 hstem
5 54 432 54 vstem
5 -200 rmoveto
540 1000 -540 hlineto
77 -50 rmoveto
386 0 -193 -390 rlineto
216 316 rmoveto
0 -752 -186 376 rlineto
-246 -376 rmoveto
0 752 186 -376 rlineto
30 -60 rmoveto
193 -390 -386 0 rlineto
endchar
                </CharString>
                <CharString name="A">
                    18 -21 24 -21 24 -21 187 63 298 71 hstemhm
36 478 hintmask 10011100
430 -3 rmoveto
hintmask 00111100
-104 callsubr
hintmask 01011100
-103 callsubr
hintmask 00111100
-160 554 rmoveto
-102 callsubr
endchar
                </CharString>
                <CharString name="AE">
                    0 71 111 62 38 63 204 71 hstem
262 73 vstem
256 549 rmoveto
-17 callsubr
6 -549 rmoveto
-16 callsubr
endchar
                </CharString>
                <CharString name="AEacute">
                    0 71 111 62 38 63 204 71 hstem
262 73 vstem
214 724 rmoveto
-26 callsubr
42 -175 rmoveto
-17 callsubr
6 -549 rmoveto
-16 callsubr
endchar
                </CharString>
                <CharString name="AWAY">
                    14 5 788 -627 272 169 186 hstemhm
133 65 82 64 hintmask 01111000
777 438 rmoveto
-113 0 -115 43 -83 180 -43 92 -55 40 -59 0 rrcurveto
-92 -84 -100 -152 -197 178 -339 210 47 26 30 40 hvcurveto
0 20 -10 15 0 17 rrcurveto
24 33 15 48 49 44 17 39 vhcurveto
0 27 -23 16 0 22 0 43 113 -12 0 71 rrcurveto
27 -23 22 -48 vhcurveto
-539 17 rmoveto
-23 -17 32 43 43 17 34 23 23 19 -34 -43 -43 -19 -32 -23 hvcurveto
149 45 rmoveto
-24 -19 27 35 35 19 28 24 24 19 -28 -35 -35 -19 -27 -24 hvcurveto
endchar
                </CharString>
                <CharString name="Aacute">
                    18 -21 24 -21 24 -21 187 63 298 71 hstemhm
36 478 hintmask 00111100
169 724 rmoveto
-26 callsubr
hintmask 10011100
261 -727 rmoveto
hintmask 00111100
-104 callsubr
hintmask 01011100
-103 callsubr
hintmask 00111100
-160 554 rmoveto
-102 callsubr
endchar
                </CharString>
                <CharString name="Abreve">
                    18 -21 24 -21 24 -21 187 63 298 71 73 66 hstemhm
36 478 hintmask 00111110
273 695 rmoveto
6 callsubr
hintmask 10011110
157 -698 rmoveto
hintmask 00111110
-104 callsubr
hintmask 01011110
-103 callsubr
hintmask 00111110
-160 554 rmoveto
-102 callsubr
endchar
                </CharString>
                <CharString name="Acircumflex">
                    18 -21 24 -21 24 -21 187 63 298 71 hstemhm
36 478 hintmask 00111100
401 690 rmoveto
-20 callsubr
hintmask 10011100
162 -807 rmoveto
hintmask 00111100
-104 callsubr
hintmask 01011100
-103 callsubr
hintmask 00111100
-160 554 rmoveto
-102 callsubr
endchar
                </CharString>
                <CharString name="Adieresis">
                    18 -21 24 -21 24 -21 187 63 298 71 77 136 hstemhm
124.5 82.5 137.5 82.5 hintmask 00111111
426 699 rmoveto
-34 callsubr
-138 hmoveto
-34 callsubr
hintmask 10011111
306 -702 rmoveto
hintmask 00111111
-104 callsubr
hintmask 01011111
-103 callsubr
hintmask 00111111
-160 554 rmoveto
-102 callsubr
endchar
                </CharString>
                <CharString name="Agrave">
                    18 -21 24 -21 24 -21 187 63 298 71 hstemhm
36 478 hintmask 00111100
374 718 rmoveto
-77 callsubr
hintmask 10011100
80 -685 rmoveto
hintmask 00111100
-104 callsubr
hintmask 01011100
-103 callsubr
hintmask 00111100
-160 554 rmoveto
-102 callsubr
endchar
                </CharString>
                <CharString name="Amacron">
                    18 -21 24 -21 24 -21 187 63 298 71 112 70 hstemhm
36 478 hintmask 00111110
441 804 rmoveto
-31 callsubr
hintmask 10011110
-11 -737 rmoveto
hintmask 00111110
-104 callsubr
hintmask 01011110
-103 callsubr
hintmask 00111110
-160 554 rmoveto
-102 callsubr
endchar
                </CharString>
                <CharString name="Aogonek">
                    -212 65 168 -21 24 -21 23 -21 185 63 298 71 hstemhm
307 76 hintmask 10011110
492 -212 rmoveto
8 65 rlineto
-85 8 -32 16 0 24 rrcurveto
hintmask 10101110
0 24 29 30 102 48 -57 207 -59 204 -65 208 rrcurveto
-116 hlineto
hintmask 11001110
-65 -209 -59 -206 -57 -207 rrcurveto
83 hlineto
17 63 16 64 17 63 rrcurveto
209 hlineto
hintmask 10011110
17 -62 17 -62 16 -61 -87 -48 -34 -38 0 -38 rrcurveto
0 -49 50 -34 135 -10 rrcurveto
-222 763 rmoveto
-102 callsubr
endchar
                </CharString>
                <CharString name="Aring">
                    18 -21 24 -21 24 -21 187 63 298 71 56 212 hstemhm
36 478 hintmask 00111110
272 890 rmoveto
-18 callsubr
hintmask 10011110
158 -893 rmoveto
hintmask 00111110
-104 callsubr
hintmask 01011110
-103 callsubr
hintmask 00111110
-160 554 rmoveto
-102 callsubr
endchar
                </CharString>
                <CharString name="Aringacute">
                    18 -21 24 -21 24 -21 187 63 298 71 56 212 hstemhm
36 478 hintmask 00111110
169 966 rmoveto
-26 callsubr
103 -76 rmoveto
17 callsubr
hintmask 10011110
158 -893 rmoveto
hintmask 00111110
-104 callsubr
hintmask 01011110
-103 callsubr
hintmask 00111110
-160 554 rmoveto
-102 callsubr
endchar
                </CharString>
                <CharString name="Atilde">
                    18 -21 24 -21 24 -21 187 63 298 71 75 66 34 67 hstemhm
36 478 hintmask 00111111
350 697 rmoveto
-19 callsubr
hintmask 10011111
80 -700 rmoveto
hintmask 00111111
-104 callsubr
hintmask 01011111
-103 callsubr
hintmask 00111111
-160 554 rmoveto
-102 callsubr
endchar
                </CharString>
                <CharString name="B">
                    -8 66 -37 -21 281 61 219 67 -8 -20 hstemhm
95 82 218 80 -62 82 hintmask 10110101
495 177 rmoveto
0 84 -53 46 -86 17 rrcurveto
hintmask 01101110
69 24 50 49 0 80 0 135 -148 35 -232 -27 rrcurveto
-620 vlineto
227 -30 174 48 -1 159 rrcurveto
-318 380 rmoveto
hintmask 10110110
133 15 85 -27 0 -88 0 -83 -57 -37 -161 5 rrcurveto
hintmask 10110101
-278 vmoveto
217 vlineto
157 6 79 -21 0 -94 rrcurveto
0 -101 -90 -27 -146 20 rrcurveto
endchar
                </CharString>
                <CharString name="C">
                    -3 71 480 80 hstem
66 86 vstem
479 68 rmoveto
-101 callsubr
endchar
                </CharString>
                <CharString name="CLEAN_CODE">
                    70 21 -21 358 72 -67 67 -55 63 95 88 hstemhm
164 114 -2 82 144 78 167 83 hintmask 1001101110000000
754 676 rmoveto
-85 7 rlineto
42 -145 36 -294 0 -244 rrcurveto
83 hlineto
-5 120 -11 132 -15 111 27 0 30 -3 27 -8 rrcurveto
68 vlineto
-27 3 -29 4 -33 3 rrcurveto
-14 101 95 0 rlineto
15 31 11 30 1 29 rrcurveto
-138 hlineto
-58 -251 rmoveto
-4 23 -1 19 -4 23 -39 3 -35 1 -43 0 rrcurveto
61 -78 -62 vlineto
-51 0 -32 0 -31 -3 0 3 1 2 0 3 5 32 4 27 7 31 rrcurveto
278 0 -19 88 rlineto
hintmask 1010101110000000
-243 hlineto
4 23 7 20 5 19 rrcurveto
-85 -7 rlineto
-53 -217 -16 -222 -7 -237 rrcurveto
82 hlineto
0 123 12 117 11 131 49 3 48 1 48 0 60 0 57 -1 63 -4 rrcurveto
-386 251 rmoveto
-189 hlineto
3 -29 9 -30 17 -31 rrcurveto
143 hlineto
hintmask 1100110110000000
-25 -166 rmoveto
0 19 4 22 5 24 -54 -3 -58 -8 -11 -3 rrcurveto
-63 vlineto
15 1 14 2 13 2 rrcurveto
23 3 28 3 21 1 rrcurveto
endchar
                </CharString>
                <CharString name="Cacute">
                    18 -21 0 71 480 80 hstemhm
66 86 hintmask 10110000
207 724 rmoveto
-26 callsubr
hintmask 01110000
272 -656 rmoveto
-101 callsubr
endchar
                </CharString>
                <CharString name="Ccaron">
                    18 -21 0 71 480 80 hstemhm
66 86 hintmask 10110000
320 685 rmoveto
8 callsubr
hintmask 01110000
163 -617 rmoveto
-101 callsubr
endchar
                </CharString>
                <CharString name="Ccedilla">
                    7 -21 11 71 -41 -21 542 80 hstemhm
66 86 167 72 hintmask 01011100
391 -112 rmoveto
hintmask 00111100
0 36 -31 40 -72 42 rrcurveto
hintmask 01011100
50 -11 61 -3 73 5 rrcurveto
7 71 rlineto
-259 -11 -68 87 0 167 0 142 50 92 271 3 rrcurveto
-5 80 rlineto
-304 -10 -98 -148 0 -170 rrcurveto
hintmask 10011100
0 -129 43 -107 132 -45 rrcurveto
-16 -33 rlineto
66 -39 28 -29 0 -22 0 -21 -34 -15 -83 -12 rrcurveto
6 -64 rlineto
122 15 61 39 0 50 rrcurveto
endchar
                </CharString>
                <CharString name="Cdotaccent">
                    18 -21 0 71 480 80 71 136 hstemhm
66 86 120.5 84 hintmask 10111100
354 699 rmoveto
7 callsubr
hintmask 01111100
208 -631 rmoveto
-101 callsubr
endchar
                </CharString>
                <CharString name="D">
                    -9 70 -41 -21 559 72 -9 -20 hstemhm
85 82 250 84 hintmask 10101100
501 322 rmoveto
hintmask 01011100
-100 callsubr
-84 -13 rmoveto
-99 callsubr
endchar
                </CharString>
                <CharString name="Dcaron">
                    -9 70 -41 -21 559 72 -9 -20 hstemhm
85 82 250 84 hintmask 10101100
274 691 rmoveto
8 callsubr
231 -369 rmoveto
hintmask 01011100
-100 callsubr
-84 -13 rmoveto
-99 callsubr
endchar
                </CharString>
                <CharString name="Dcroat">
                    -9 70 -41 -21 286 59 214 72 -9 -20 hstemhm
85 82 250 84 hintmask 10110110
501 322 rmoveto
hintmask 01101110
-15 callsubr
-334 -256 rmoveto
-14 callsubr
endchar
                </CharString>
                <CharString name="E">
                    0 71 211 63 204 71 hstem
105 83 vstem
486 71 rmoveto
-98 callsubr
endchar
                </CharString>
                <CharString name="EXTERNAL_INTERRUPTION">
                    -440 21 -21 hstem
59 412 vstem
160 hmoveto
43 0 268 529 -11 17 -189 -57 75 263 -236 1 -51 -424 18 -13 158 56 rlineto
endchar
                </CharString>
                <CharString name="Eacute">
                    0 71 211 63 204 71 hstem
105 83 vstem
189 724 rmoveto
-26 callsubr
297 -653 rmoveto
-98 callsubr
endchar
                </CharString>
                <CharString name="Ebreve">
                    0 71 211 63 204 71 75 66 hstem
105 83 vstem
293 695 rmoveto
6 callsubr
193 -624 rmoveto
-98 callsubr
endchar
                </CharString>
                <CharString name="Ecaron">
                    0 71 211 63 204 71 hstem
105 83 vstem
302 685 rmoveto
8 callsubr
188 -614 rmoveto
-98 callsubr
endchar
                </CharString>
                <CharString name="Ecircumflex">
                    0 71 211 63 204 71 hstem
105 83 vstem
421 690 rmoveto
-20 callsubr
198 -733 rmoveto
-98 callsubr
endchar
                </CharString>
                <CharString name="Edieresis">
                    0 71 211 63 204 71 79 136 hstemhm
105 83 -43.5 82.5 137.5 82.5 hintmask 11111010
446 699 rmoveto
-34 callsubr
hintmask 11110110
-138 hmoveto
-34 callsubr
342 -628 rmoveto
hintmask 11111010
-98 callsubr
endchar
                </CharString>
                <CharString name="Edotaccent">
                    0 71 211 63 204 71 79 136 hstem
105 83 66.5 84 vstem
336 699 rmoveto
7 callsubr
233 -628 rmoveto
-98 callsubr
endchar
                </CharString>
                <CharString name="Egrave">
                    0 71 211 63 204 71 hstem
105 83 vstem
395 718 rmoveto
-77 callsubr
115 -611 rmoveto
-98 callsubr
endchar
                </CharString>
                <CharString name="Emacron">
                    0 71 211 63 204 71 114 70 hstem
105 83 vstem
461 804 rmoveto
-31 callsubr
25 -663 rmoveto
-98 callsubr
endchar
                </CharString>
                <CharString name="Eogonek">
                    -216 66 150 71 211 63 204 71 hstem
105 83 84 75 vstem
464 -150 rmoveto
-85 8 -32 16 0 24 0 24 29 30 102 48 rrcurveto
8 71 -298 0 0 211 253 0 0 63 -253 0 0 204 293 0 0 71 -376 0 0 -620 284 0 rlineto
-85 -47 -32 -38 0 -37 0 -49 49 -34 136 -11 rrcurveto
endchar
                </CharString>
                <CharString name="Eth">
                    -9 70 -41 -21 286 59 214 72 -9 -20 hstemhm
85 82 250 84 hintmask 10110110
501 322 rmoveto
hintmask 01101110
-15 callsubr
-334 -256 rmoveto
-14 callsubr
endchar
                </CharString>
                <CharString name="Euro">
                    0 -21 215 61 -53 55 96 56 233 -20 hstemhm
123 76 hintmask 10111100
485 47 rmoveto
-170 25 -74 48 -27 82 rrcurveto
211 0 3 55 -226 0 rlineto
-2 17 -1 18 0 20 0 14 0 14 1 13 rrcurveto
229 0 3 56 -223 0 rlineto
22 85 68 43 179 27 rrcurveto
-13 78 rlineto
-213 -40 -88 -78 -29 -110 rrcurveto
-74 -61 64 hlineto
hintmask 11011100
-1 -15 -1 -15 0 -15 0 -18 1 -18 2 -17 rrcurveto
-64 -61 75 hlineto
32 -117 96 -74 209 -24 rrcurveto
endchar
                </CharString>
                <CharString name="F">
                    21 -21 270 65 214 71 hstem
111 84 vstem
451 270 rmoveto
65 -256 214 297 71 -381 -620 84 270 vlineto
endchar
                </CharString>
                <CharString name="G">
                    -9 68 489 80 hstem
54 85 259 78 vstem
477 7 rmoveto
-97 callsubr
endchar
                </CharString>
                <CharString name="Gbreve">
                    -9 68 489 80 67 66 hstem
54 85 259 78 vstem
291 695 rmoveto
6 callsubr
186 -688 rmoveto
-97 callsubr
endchar
                </CharString>
                <CharString name="Gcommaaccent">
                    -9 68 489 80 hstem
54 85 118 82 59 78 vstem
477 7 rmoveto
-97 callsubr
-244 -280 rmoveto
12 callsubr
endchar
                </CharString>
                <CharString name="Gdotaccent">
                    -9 68 489 80 71 136 hstem
54 85 112.5 84 62.5 78 vstem
333 699 rmoveto
7 callsubr
227 -692 rmoveto
-97 callsubr
endchar
                </CharString>
                <CharString name="H">
                    21 -21 282 64 274 -20 hstem
79 85 222 85 vstem
386 hmoveto
85 620 -85 -274 -222 274 -85 -620 85 282 222 hlineto
endchar
                </CharString>
                <CharString name="Hbar">
                    21 -21 268 64 112 58 -56 54 -54 174 hstemhm
79 85 222 85 hintmask 11010110
386 332 rmoveto
-222 114 222 hlineto
-446 vmoveto
85 hlineto
hintmask 11100110
444 70 58 -70 vlineto
hintmask 11001110
118 -85 vlineto
hintmask 11010110
-120 -222 vlineto
hintmask 11001110
120 -85 vlineto
hintmask 11100110
-118 -70 -58 70 -444 85 268 222 vlineto
endchar
                </CharString>
                <CharString name="I">
                    0 66 488 66 hstem
233 83 vstem
316 554 rmoveto
-96 callsubr
endchar
                </CharString>
                <CharString name="INTERNAL_INTERRUPTION">
                    -565 2 179 78 491 hstem
110 179 vstem
110 92 rmoveto
-51 39 -39 51 49 40 39 51 49 -40 40 -49 -51 -39 -40 -49 vhcurveto
5 228 rmoveto
4 -80 161 -3 4 83 rrcurveto
26 430 -221 0 rlineto
endchar
                </CharString>
                <CharString name="Iacute">
                    0 66 488 66 hstem
233 83 vstem
172 724 rmoveto
-26 callsubr
144 -170 rmoveto
-96 callsubr
endchar
                </CharString>
                <CharString name="Ibreve">
                    0 66 488 66 75 66 hstem
233 83 vstem
276 695 rmoveto
6 callsubr
40 -141 rmoveto
-96 callsubr
endchar
                </CharString>
                <CharString name="Icircumflex">
                    0 66 488 66 hstem
233 83 vstem
404 690 rmoveto
-20 callsubr
45 -250 rmoveto
-96 callsubr
endchar
                </CharString>
                <CharString name="Idieresis">
                    0 66 488 66 79 136 hstem
127.5 82.5 23 83 31.5 82.5 vstem
429 699 rmoveto
-34 callsubr
-138 hmoveto
-34 callsubr
189 -145 rmoveto
-96 callsubr
endchar
                </CharString>
                <CharString name="Idotaccent">
                    0 66 488 66 79 136 hstemhm
233 83 -78.5 84 hintmask 11101000
319 699 rmoveto
7 callsubr
hintmask 11110000
80 -145 rmoveto
-96 callsubr
endchar
                </CharString>
                <CharString name="Igrave">
                    0 66 488 66 hstem
233 83 vstem
378 718 rmoveto
-77 callsubr
-38 -128 rmoveto
-96 callsubr
endchar
                </CharString>
                <CharString name="Imacron">
                    0 66 488 66 114 70 hstem
233 83 vstem
444 804 rmoveto
-31 callsubr
-128 -180 rmoveto
-96 callsubr
endchar
                </CharString>
                <CharString name="Iogonek">
                    -214 65 149 66 488 66 hstemhm
160 76 -3 83 hintmask 11101000
353 -149 rmoveto
hintmask 11110000
-85 9 -32 16 0 26 0 24 18 27 58 47 rrcurveto
156 0 6 66 rlineto
hintmask 11101000
-158 488 154 66 -390 -66 153 -488 hlineto
hintmask 11110000
-153 -66 162 hlineto
-58 -45 -24 -36 0 -35 0 -52 50 -35 135 -11 rrcurveto
endchar
                </CharString>
                <CharString name="J">
                    -10 74 489 67 hstem
340 83 vstem
126 620 rmoveto
-67 214 -352 vlineto
0 -119 -32 -27 -220 9 rrcurveto
-74 vlineto
254 -7 81 67 0 151 rrcurveto
419 vlineto
endchar
                </CharString>
                <CharString name="K">
                    15 -21 27 -21 26 -21 274 68 273 -20 hstemhm
91 83 hintmask 10011100
428 -6 rmoveto
hintmask 00111100
-95 callsubr
hintmask 01011100
-620 83 279 64 vlineto
endchar
                </CharString>
                <CharString name="Kcommaaccent">
                    15 -21 27 -21 26 -21 274 68 273 -20 hstemhm
91 83 66 82 hintmask 10011110
428 -6 rmoveto
hintmask 00111110
-95 callsubr
hintmask 01011110
-620 83 279 64 vlineto
-22 -549 rmoveto
12 callsubr
endchar
                </CharString>
                <CharString name="L">
                    0 71 549 -20 hstem
113 84 vstem
490 hmoveto
-94 callsubr
endchar
                </CharString>
                <CharString name="LONG_PAUSE">
                    9 21 -21 0 116 -116 220 445 82 -63 93 hstemhm
119 739 hintmask 10010100
858 644 rmoveto
-40 82 -66 21 -59 0 -35 0 -28 -7 -23 -7 rrcurveto
hintmask 00101100
-13 -4 -12 -5 -11 -5 -64 43 -56 15 -48 0 -67 0 -48 -30 -35 -29 -20 -17 -17 -20 -14 -21 rrcurveto
5 -7 rlineto
43 23 36 8 32 0 33 0 28 -9 19 -8 11 -5 10 -5 9 -6 -188 -16 -48 -168 0 -35 rrcurveto
8 hlineto
96 77 110 21 62 5 -64 -124 -27 -111 -11 -80 -93 -5 -61 -29 -39 -29 -23 -17 -18 -19 -13 -21 16 -19 22 -16 29 -15 49 -25 78 -25 121 0 rrcurveto
120 0 78 25 48 25 rrcurveto
hintmask 01010100
28 15 22 16 17 19 -11 17 -14 17 -18 15 -31 27 -48 27 -76 11 rrcurveto
-36 -97 -13 -1 rlineto
0 15 -1 10 0 15 0 150 41 151 13 53 40 -38 66 -74 30 -95 rrcurveto
8 hlineto
23 35 8 32 0 31 0 43 -17 37 -19 27 -11 15 -12 14 -13 13 42 -5 39 -43 23 -38 15 -23 12 -25 11 -29 rrcurveto
10 hlineto
15 37 6 32 0 29 0 67 -36 42 -35 27 -21 16 -23 13 -26 9 23 3 16 3 19 0 52 0 37 -15 17 -11 rrcurveto
endchar
                </CharString>
                <CharString name="Lacute">
                    0 71 549 -20 hstem
113 84 vstem
197 724 rmoveto
-26 callsubr
293 -724 rmoveto
-94 callsubr
endchar
                </CharString>
                <CharString name="Lcaron">
                    0 71 549 -20 101 -20 hstem
113 84 198 78 vstem
368 463 rmoveto
11 callsubr
122 -463 rmoveto
-94 callsubr
endchar
                </CharString>
                <CharString name="Lcommaaccent">
                    0 71 549 -20 hstem
113 84 71 82 vstem
490 hmoveto
-94 callsubr
131 -264 rmoveto
12 callsubr
endchar
                </CharString>
                <CharString name="Ldot">
                    0 71 195 108 246 -20 hstem
113 84 187 92 vstem
490 hmoveto
-94 callsubr
360 266 rmoveto
6 108 -92 0 -6 -108 rlineto
endchar
                </CharString>
                <CharString name="Lslash">
                    0 71 549 -20 hstem
113 84 vstem
490 hmoveto
8 71 -301 0 0 266 151 78 -14 57 -137 -71 0 219 -84 0 0 -262 -82 -42 14 -57 68 35 0 -294 rlineto
endchar
                </CharString>
                <CharString name="M">
                    21 -21 108 100 273 139 hstem
66 74 266 77 vstem
390 620 rmoveto
0 0 -98 -360 -14 -52 rrcurveto
-4 hlineto
-14 52 -100 360 0 0 rrcurveto
-94 -620 76 hlineto
-4 481 4 0 104 -373 56 0 102 373 4 0 -4 -481 79 0 0 620 rlineto
endchar
                </CharString>
                <CharString name="N">
                    21 -21 0 148 333 139 0 -20 hstemhm
80 75.5 239 76.5 hintmask 10011100
392 hmoveto
79 620 -78 hlineto
hintmask 01011100
-93 callsubr
hintmask 10101100
-92 callsubr
endchar
                </CharString>
                <CharString name="NUL">
                    -964 endchar
                </CharString>
                <CharString name="Nacute">
                    21 -21 0 148 333 139 0 -20 hstemhm
80 75.5 239 76.5 hintmask 10011100
169 724 rmoveto
-26 callsubr
223 -724 rmoveto
79 620 -78 hlineto
hintmask 01011100
-93 callsubr
hintmask 10101100
-92 callsubr
endchar
                </CharString>
                <CharString name="Ncaron">
                    21 -21 0 148 333 139 0 -20 hstemhm
80 75.5 239 76.5 hintmask 10011100
282 685 rmoveto
8 callsubr
114 -685 rmoveto
79 620 -78 hlineto
hintmask 01011100
-93 callsubr
hintmask 10101100
-92 callsubr
endchar
                </CharString>
                <CharString name="Ncommaaccent">
                    21 -21 0 148 333 139 0 -20 hstemhm
80 75.5 83.5 82 73.5 76.5 hintmask 10011110
392 hmoveto
79 620 -78 hlineto
hintmask 01011110
-93 callsubr
hintmask 10101110
-92 callsubr
56 -745 rmoveto
12 callsubr
endchar
                </CharString>
                <CharString name="Ntilde">
                    21 -21 0 148 333 139 0 -20 97 66 34 67 hstemhm
80 75.5 239 76.5 hintmask 10011111
351 697 rmoveto
-19 callsubr
41 -697 rmoveto
79 620 -78 hlineto
hintmask 01011111
-93 callsubr
hintmask 10101111
-92 callsubr
endchar
                </CharString>
                <CharString name="O">
                    -15 69 512 69 hstem
46 85 288 85 vstem
264 -15 rmoveto
-91 callsubr
8 581 rmoveto
-90 callsubr
endchar
                </CharString>
                <CharString name="OE">
                    0 71 211 63 204 71 hstem
37 83 150 72 vstem
120 312 rmoveto
0 166 48 69 102 1 rrcurveto
-477 vlineto
-105 -45 70 171 hvcurveto
390 -241 rmoveto
-168 211 137 63 -137 204 164 71 -212 hlineto
-173 -84 -116 -206 -206 81 -92 174 hvcurveto
212 hlineto
endchar
                </CharString>
                <CharString name="Oacute">
                    -15 69 512 69 hstem
46 85 288 85 vstem
173 731 rmoveto
-26 callsubr
91 -746 rmoveto
-91 callsubr
8 581 rmoveto
-90 callsubr
endchar
                </CharString>
                <CharString name="Obreve">
                    -15 69 512 69 67 66 hstem
46 85 288 85 vstem
277 702 rmoveto
6 callsubr
-13 -717 rmoveto
-91 callsubr
8 581 rmoveto
-90 callsubr
endchar
                </CharString>
                <CharString name="Ocircumflex">
                    -15 69 512 69 hstem
46 85 288 85 vstem
405 697 rmoveto
-20 callsubr
-8 -826 rmoveto
-91 callsubr
8 581 rmoveto
-90 callsubr
endchar
                </CharString>
                <CharString name="Odieresis">
                    -15 69 512 69 71 136 hstemhm
46 85 -2.5 82.5 137.5 82.5 -12 85 hintmask 11101100
430 706 rmoveto
-34 callsubr
-138 hmoveto
-34 callsubr
hintmask 11110010
136 -721 rmoveto
147 0 94 121 -1 218 rrcurveto
200 -79 111 -139 -147 -93 -120 -219 vhcurveto
-199 80 -112 138 vhcurveto
8 581 rmoveto
-90 callsubr
endchar
                </CharString>
                <CharString name="Ograve">
                    -15 69 512 69 hstem
46 85 288 85 vstem
379 725 rmoveto
-77 callsubr
-91 -704 rmoveto
-91 callsubr
8 581 rmoveto
-90 callsubr
endchar
                </CharString>
                <CharString name="Ohungarumlaut">
                    -15 69 512 69 hstem
46 85 288 85 vstem
130 723 rmoveto
15 callsubr
208 -2 rmoveto
16 callsubr
-74 -736 rmoveto
-91 callsubr
8 581 rmoveto
-90 callsubr
endchar
                </CharString>
                <CharString name="Omacron">
                    -15 69 512 69 106 70 hstem
46 85 288 85 vstem
445 811 rmoveto
-31 callsubr
-181 -756 rmoveto
-91 callsubr
8 581 rmoveto
-90 callsubr
endchar
                </CharString>
                <CharString name="Omega">
                    0 66 493 75 hstem
71 77 253 80 vstem
229 5 rmoveto
-55 146 -26 121 0 92 rrcurveto
123 45 72 82 82 44 -72 -125 vhcurveto
0 -92 -24 -121 -55 -144 rrcurveto
2 -5 181 0 0 66 -99 0 rlineto
51 118 24 105 0 89 rrcurveto
153 -71 103 -131 -133 -75 -104 -154 vhcurveto
0 -88 23 -105 50 -117 rrcurveto
-98 -66 181 hlineto
endchar
                </CharString>
                <CharString name="Oslash">
                    -15 69 -41 -21 574 69 -7 -20 hstemhm
46 84 290 84 hintmask 10101100
130 314 rmoveto
-12 callsubr
148 -260 rmoveto
-11 callsubr
-14 -69 rmoveto
-10 callsubr
hintmask 10011100
-9 callsubr
hintmask 01101100
-8 callsubr
hintmask 10101100
-7 callsubr
endchar
                </CharString>
                <CharString name="Oslashacute">
                    -15 69 -41 -21 574 69 -7 -20 hstemhm
46 84 290 84 hintmask 10101100
170 732 rmoveto
-26 callsubr
-40 -418 rmoveto
-12 callsubr
148 -260 rmoveto
-11 callsubr
-14 -69 rmoveto
-10 callsubr
hintmask 10011100
-9 callsubr
hintmask 01101100
-8 callsubr
hintmask 10101100
-7 callsubr
endchar
                </CharString>
                <CharString name="Otilde">
                    -15 69 512 69 69 66 34 67 hstem
46 85 288 85 vstem
355 704 rmoveto
-13 callsubr
-91 -719 rmoveto
-91 callsubr
8 581 rmoveto
-90 callsubr
endchar
                </CharString>
                <CharString name="P">
                    21 -21 200 74 284 71 -10 -20 hstemhm
98 83 238 82 hintmask 11101100
181 hmoveto
200 vlineto
192 14 128 68 0 148 rrcurveto
hintmask 11011100
0 152 -135 77 -268 -40 rrcurveto
-619 vlineto
hintmask 11101100
321 414 rmoveto
0 -112 -85 -39 -153 11 rrcurveto
280 vlineto
161 21 77 -55 0 -106 rrcurveto
endchar
                </CharString>
                <CharString name="PAIR_PROGRAMMING">
                    55 -1 172 88 121 88 149 61 53 hstemhm
131 183 158 63 57 57 -57 296 hintmask 11111110
535 144 rmoveto
49 -12 8 -11 vhcurveto
-33 0 -9 -30 -45 0 rrcurveto
-73 -38 89 60 72 45 76 69 hvcurveto
33 0 23 -30 29 0 rrcurveto
13 9 8 27 hvcurveto
205 vlineto
0 31 -5 33 -5 25 -3 15 -3 13 -4 13 rrcurveto
-82 -14 39 -130 rlineto
-25 28 -44 39 -76 0 -76 0 -37 -22 -23 -21 -13 -12 -8 -14 -4 -16 rrcurveto
118 32 rlineto
40 0 39 -32 28 -31 -13 1 -11 1 -11 0 rrcurveto
-124 -101 -105 -155 -211 141 -147 232 hvcurveto
11 0 9 1 11 0 rrcurveto
114 621 rmoveto
12 23 10 11 17 19 rrcurveto
160 -30 rlineto
-3 16 -7 14 -12 13 -20 23 -36 21 -71 0 -48 0 -31 -15 -28 -19 rrcurveto
-237 vlineto
-45 -27 -35 -44 vhcurveto
-60 0 -4 28 -27 0 rrcurveto
-39 -19 -46 -42 -40 17 -51 36 hvcurveto
hintmask 11111101
25 0 9 30 62 0 rrcurveto
47 24 -31 -49 hvcurveto
-169 vlineto
163 43 133 150 0 180 rrcurveto
148 -97 90 -123 vhcurveto
endchar
                </CharString>
                <CharString name="POMODORO_DONE">
                    32 518 85 53 53 -45 51 hstemhm
766 107 hintmask 10110000
713 246 rmoveto
-1 31 -5 29 -8 27 -13 48 -28 51 -51 27 rrcurveto
23 59 rlineto
80 56 -76 -99 hvcurveto
0 -59 -11 -17 0 -8 rrcurveto
-266 528 rmoveto
-78 -13 37 -123 rlineto
-24 27 -40 37 -73 0 -72 0 -37 -21 -20 -20 -12 -12 -8 -13 -3 -15 rrcurveto
112 30 rlineto
37 0 37 -30 27 -29 -13 1 -9 1 -11 0 rrcurveto
-118 -95 -99 -147 -199 141 -159 232 190 184 116 251 141 -95 92 -118 hvcurveto
-11 0 -11 -1 -8 -3 rrcurveto
hintmask 11010000
-14 -4 rlineto
13 23 15 21 17 17 rrcurveto
161 -30 rlineto
-5 15 -10 14 -13 12 -23 21 -42 21 -73 0 -39 0 -29 -15 -19 -15 -12 -9 -10 -10 -7 -11 rrcurveto
-7 -103 -10 0 rlineto
endchar
                </CharString>
                <CharString name="POMODORO_ESTIMATED">
                    31 3 70 418 55 -16 73 -73 77 49 53 -45 51 hstemhm
126 78 595 74 hintmask 10100111
501 73 rmoveto
-155 -142 136 162 hvcurveto
hintmask 10010111
97 54 62 87 vhcurveto
39 0 40 -13 39 -26 rrcurveto
hintmask 11000111
76 hlineto
39 27 40 12 39 0 rrcurveto
hintmask 10100111
87 55 -62 -97 hvcurveto
-157 -143 -141 -155 vhcurveto
-12 714 rmoveto
-78 -13 37 -123 rlineto
-24 27 -40 37 -73 0 -72 0 -37 -21 -20 -20 -12 -12 -8 -13 -3 -15 rrcurveto
112 30 rlineto
37 0 37 -30 27 -29 -13 1 -9 1 -11 0 rrcurveto
hintmask 10010111
-118 -95 -99 -147 -199 141 -159 232 190 184 116 251 141 -95 92 -118 hvcurveto
hintmask 10101011
-11 0 -11 -1 -8 -3 rrcurveto
-14 -4 rlineto
13 23 15 21 17 17 rrcurveto
161 -30 rlineto
-5 15 -10 14 -13 12 -23 21 -42 21 -73 0 -39 0 -29 -15 -19 -15 -12 -9 -10 -10 -7 -11 rrcurveto
-7 -103 rlineto
hintmask 11000111
-10 hlineto
endchar
                </CharString>
                <CharString name="POMODORO_SQUASHED">
                    32 3 300 191 52 -13 74 49 53 -45 51 hstemhm
126 78 595 74 hintmask 10101110
345 533 rmoveto
39 0 40 -14 39 -25 rrcurveto
hintmask 11001110
76 hlineto
39 26 40 13 39 0 rrcurveto
hintmask 10101110
87 55 -63 -96 hvcurveto
0 -25 -4 -23 -5 -23 rrcurveto
-577 hlineto
-7 23 -2 23 0 25 rrcurveto
96 54 63 87 vhcurveto
144 254 rmoveto
-78 -13 37 -123 rlineto
-24 27 -40 37 -73 0 -72 0 -37 -21 -20 -20 -12 -12 -8 -13 -3 -15 rrcurveto
112 30 rlineto
37 0 37 -30 27 -29 -13 1 -9 1 -11 0 rrcurveto
-118 -95 -99 -147 -199 141 -159 232 190 184 116 251 141 -95 92 -118 hvcurveto
-11 0 -11 -1 -8 -3 rrcurveto
-14 -4 rlineto
hintmask 10110110
13 23 15 21 17 17 rrcurveto
161 -30 rlineto
-5 15 -10 14 -13 12 -23 21 -42 21 -73 0 -39 0 -29 -15 -19 -15 -12 -9 -10 -10 -7 -11 rrcurveto
-7 -103 rlineto
hintmask 11001110
-10 hlineto
endchar
                </CharString>
                <CharString name="POMODORO_TICKING">
                    31 3 126 527 53 -45 51 hstemhm
126 339 -339 747 hintmask 10110000
528 129 rmoveto
-63 198 hlineto
-137 88 35 54 165 -106 rlineto
-39 424 rmoveto
-78 -13 37 -123 rlineto
-24 27 -40 37 -73 0 -72 0 -37 -21 -20 -20 -12 -12 -8 -13 -3 -15 rrcurveto
112 30 rlineto
37 0 37 -30 27 -29 -13 1 -9 1 -11 0 rrcurveto
-118 -95 -99 -147 -199 141 -159 232 190 184 116 251 hvcurveto
hintmask 11001000
141 -95 92 -118 vhcurveto
-11 0 -11 -1 -8 -3 rrcurveto
-14 -4 rlineto
13 23 15 21 17 17 rrcurveto
161 -30 rlineto
-5 15 -10 14 -13 12 -23 21 -42 21 -73 0 -39 0 -29 -15 -19 -15 -12 -9 -10 -10 -7 -11 rrcurveto
-7 -103 -10 0 rlineto
endchar
                </CharString>
                <CharString name="Q">
                    8 -21 25 -21 0 63 512 69 hstemhm
46 85 288 85 hintmask 01011100
447 -135 rmoveto
24 69 -152 56 0 1 rlineto
115 28 71 116 -1 189 rrcurveto
200 -79 111 -139 -147 -93 -120 -219 vhcurveto
hintmask 10011100
0 -185 69 -110 120 -14 rrcurveto
-14 -42 rlineto
51 621 rmoveto
97 50 -90 -170 hvcurveto
hintmask 00111100
-166 -48 -86 -93 -98 -49 90 170 166 47 86 94 vhcurveto
endchar
                </CharString>
                <CharString name="R">
                    11 -21 31 -21 24 -21 225 61 271 70 -11 -20 hstemhm
92 83 216 82 hintmask 10011011
428 -10 rmoveto
hintmask 00110111
-89 callsubr
hintmask 01011011
-88 callsubr
-127 325 rmoveto
-87 callsubr
endchar
                </CharString>
                <CharString name="R_p">
                    -151 -21 29 -21 152 67 -43 -21 27 -21 24 -21 27 -21 224.5 57.5 148 65 -10 -20 90 67 -9 -20 hstemhm
38 67 87 67 47 66 91 65 hintmask 0100100101011111
210 -3 rmoveto
hintmask 0100001101011111
67 9 -71 266 rlineto
33 40 20 60 0 81 0 126 -54 76 -167 -36 rrcurveto
hintmask 0100010101101111
-619 67 229 vlineto
46 3 rlineto
-46 329 rmoveto
62 13 25 -43 0 -94 0 -58 -12 -54 -20 -36 rrcurveto
-55 -2 rlineto
hintmask 0110000110011111
300 -232 rmoveto
-12 0 -11 2 -10 7 0 160 -1 105 -1 84 14 14 15 9 15 0 rrcurveto
34 15 -60 -131 hvcurveto
-134 -15 -56 -43 vhcurveto
-33 -219 rmoveto
hintmask 0101000101011111
155 vlineto
hintmask 0110000110011111
8 -2 8 -1 8 0 rrcurveto
84 48 86 197 143 -26 87 -60 hvcurveto
-31 0 -27 -21 -18 -23 rrcurveto
hintmask 1010000101011111
-2 34 -62 -5 rlineto
3 -102 1 -152 0 -234 rrcurveto
-170 vlineto
endchar
                </CharString>
                <CharString name="Racute">
                    11 -21 31 -21 24 -21 225 61 271 70 -11 -20 hstemhm
92 83 216 82 hintmask 00111011
159 732 rmoveto
-26 callsubr
hintmask 10011011
269 -742 rmoveto
hintmask 00110111
-89 callsubr
hintmask 01011011
-88 callsubr
-127 325 rmoveto
-87 callsubr
endchar
                </CharString>
                <CharString name="Rcaron">
                    11 -21 31 -21 24 -21 225 61 271 70 -11 -20 hstemhm
92 83 216 82 hintmask 00111011
272 693 rmoveto
8 callsubr
hintmask 10011011
160 -703 rmoveto
hintmask 00110111
-89 callsubr
hintmask 01011011
-88 callsubr
-127 325 rmoveto
-87 callsubr
endchar
                </CharString>
                <CharString name="Rcommaaccent">
                    11 -21 31 -21 24 -21 225 61 271 70 -11 -20 hstemhm
92 83 89 82 45 82 hintmask 1001101110000000
428 -10 rmoveto
hintmask 0011011110000000
-89 callsubr
hintmask 0101101110000000
-88 callsubr
-127 325 rmoveto
-87 callsubr
65 -561 rmoveto
12 callsubr
endchar
                </CharString>
                <CharString name="S">
                    -6 73 484 74 hstem
85 85 224 85 vstem
86 71 rmoveto
-86 callsubr
endchar
                </CharString>
                <CharString name="SHORT_PAUSE">
                    39 21 -21 0 468 -297 81 90 84 hstemhm
325 62 -10 58 -16 54 -9 51 301 84 hintmask 1011100110000000
399 741 rmoveto
-19 -10 -15 -11 -12 -12 -21 -20 -17 -27 17 -31 rrcurveto
hintmask 1011010110000000
34 -60 33 0 -39 -76 0 7 126 42 -75 96 rrcurveto
hintmask 1011100110000000
-25 29 -2 25 3 19 rrcurveto
2 11 4 9 6 9 rrcurveto
hintmask 1011010110000000
84 34 rmoveto
-16 -9 -13 -9 -11 -11 -19 -19 -14 -23 15 -27 rrcurveto
hintmask 1011100110000000
30 -51 27 0 -32 -67 0 7 110 37 -67 83 rrcurveto
hintmask 1011101010000000
-21 25 -2 22 3 16 rrcurveto
2 9 3 9 5 8 rrcurveto
hintmask 1011100110000000
241 -478 rmoveto
24 23 21 25 25 19 -21 -24 -25 -19 -20 -25 vhcurveto
-25 -23 20 25 hvcurveto
hintmask 0100100110000000
-57 149 rmoveto
15 -8 7 -17 vhcurveto
-500 hlineto
-17 -8 -7 -15 hvcurveto
-182 vlineto
-148 127 -116 149 vhcurveto
137 0 113 99 21 131 rrcurveto
hintmask 1011100110000000
23 -36 40 -23 45 0 rrcurveto
70 58 57 70 70 -58 58 -70 hvcurveto
-44 0 -38 -22 -23 -35 rrcurveto
endchar
                </CharString>
                <CharString name="Sacute">
                    -6 73 484 74 hstem
85 85 224 85 vstem
188 728 rmoveto
-26 callsubr
-102 -657 rmoveto
-86 callsubr
endchar
                </CharString>
                <CharString name="Scaron">
                    -6 73 484 74 hstem
85 85 224 85 vstem
301 689 rmoveto
8 callsubr
-211 -618 rmoveto
-86 callsubr
endchar
                </CharString>
                <CharString name="Scedilla">
                    -6 73 -46 -21 551 74 hstemhm
85 85 118 72 34 85 hintmask 10111100
177 -225 rmoveto
122 15 61 39 0 50 rrcurveto
hintmask 01111100
0 37 -32 41 -76 43 163 23 64 77 0 74 0 148 -309 43 0 107 0 51 57 40 217 -15 rrcurveto
-5 77 rlineto
-255 14 -99 -92 0 -88 rrcurveto
hintmask 10111100
0 -145 309 -38 0 -114 0 -59 -82 -51 -226 19 rrcurveto
-1 -77 rlineto
43 -2 39 0 36 2 rrcurveto
-9 -17 rlineto
66 -39 28 -29 0 -22 0 -21 -34 -15 -83 -12 rrcurveto
endchar
                </CharString>
                <CharString name="Scommaaccent">
                    -6 73 484 74 hstem
85 85 68 82 74 85 vstem
86 71 rmoveto
-86 callsubr
128 -346 rmoveto
12 callsubr
endchar
                </CharString>
                <CharString name="T">
                    21 -21 549 71 hstem
234 84 vstem
318 549 rmoveto
-85 callsubr
endchar
                </CharString>
                <CharString name="Tcaron">
                    21 -21 549 71 hstem
234 84 vstem
280 685 rmoveto
8 callsubr
42 -136 rmoveto
-85 callsubr
endchar
                </CharString>
                <CharString name="Tcommaaccent">
                    21 -21 549 71 hstemhm
234 84 -80 82 hintmask 11100000
318 549 rmoveto
-85 callsubr
-104 -264 rmoveto
hintmask 11010000
41 -13 rlineto
55 64 19 79 -9 67 rrcurveto
hintmask 11100000
-5 0 -90 -5 -5 0 22 -58 5 -64 -33 -70 rrcurveto
endchar
                </CharString>
                <CharString name="Thorn">
                    21 -21 0 177 -73 73 277 68 -68 166 hstemhm
99 83 240 82 hintmask 10110110
182 hmoveto
104 vlineto
192 13 130 68 0 145 0 135 -112 73 -210 -16 rrcurveto
hintmask 10101110
98 -83 -620 vlineto
hintmask 01010110
323 314 rmoveto
0 -108 -86 -38 -154 9 rrcurveto
273 vlineto
158 19 82 -53 0 -102 rrcurveto
endchar
                </CharString>
                <CharString name="U">
                    -15 72 563 -20 hstem
75 84 232 83 vstem
270 -15 rmoveto
-84 callsubr
endchar
                </CharString>
                <CharString name="Uacute">
                    -15 72 563 -20 hstem
75 84 232 83 vstem
170 724 rmoveto
-26 callsubr
100 -739 rmoveto
-84 callsubr
endchar
                </CharString>
                <CharString name="Ubreve">
                    -15 72 563 -20 95 66 hstem
75 84 232 83 vstem
274 695 rmoveto
6 callsubr
-4 -710 rmoveto
-84 callsubr
endchar
                </CharString>
                <CharString name="Ucircumflex">
                    -15 72 563 -20 hstem
75 84 232 83 vstem
402 690 rmoveto
-20 callsubr
1 -819 rmoveto
-84 callsubr
endchar
                </CharString>
                <CharString name="Udieresis">
                    -15 72 563 -20 99 136 hstemhm
75 84 -33.5 82.5 137.5 82.5 -37 83 hintmask 11101100
427 699 rmoveto
-34 callsubr
-138 hmoveto
-34 callsubr
hintmask 11110010
145 -714 rmoveto
-84 callsubr
endchar
                </CharString>
                <CharString name="Ugrave">
                    -15 72 563 -20 hstem
75 84 232 83 vstem
376 718 rmoveto
-77 callsubr
-82 -697 rmoveto
-84 callsubr
endchar
                </CharString>
                <CharString name="Uhungarumlaut">
                    -15 72 563 -20 hstem
75 84 232 83 vstem
126 716 rmoveto
15 callsubr
208 -2 rmoveto
16 callsubr
-64 -729 rmoveto
-84 callsubr
endchar
                </CharString>
                <CharString name="Umacron">
                    -15 72 563 -20 134 70 hstem
75 84 232 83 vstem
442 804 rmoveto
-31 callsubr
-172 -749 rmoveto
-84 callsubr
endchar
                </CharString>
                <CharString name="Uogonek">
                    -216 66 134 73 563 -20 hstem
75 84 22 75 135 83 vstem
366 -216 rmoveto
7 66 rlineto
-85 8 -32 16 0 26 0 27 32 26 86 56 71 46 29 55 0 94 rrcurveto
416 -83 -429 vlineto
-94 -37 -40 -76 vhcurveto
-74 -45 47 102 hvcurveto
414 -84 -420 vlineto
0 -134 68 -76 122 -6 rrcurveto
-63 -39 -21 -32 0 -35 0 -49 49 -34 136 -11 rrcurveto
endchar
                </CharString>
                <CharString name="Uring">
                    -15 72 563 -20 78 212 hstem
75 84 232 83 vstem
274 890 rmoveto
17 callsubr
-4 -905 rmoveto
-84 callsubr
endchar
                </CharString>
                <CharString name="V">
                    -1 75 546 -20 23 -20 hstemhm
38 474 hintmask 10110000
335 -1 rmoveto
hintmask 11010000
64 208 58 206 55 207 rrcurveto
-83 hlineto
-46 -182 -49 -182 -53 -182 rrcurveto
-9 hlineto
hintmask 10110000
-53 182 -50 185 -46 182 rrcurveto
-85 -6 rlineto
55 -207 59 -203 64 -208 rrcurveto
endchar
                </CharString>
                <CharString name="W">
                    0 106 514 -20 hstem
51 82 289 78 vstem
364 hmoveto
-83 callsubr
endchar
                </CharString>
                <CharString name="Wacute">
                    0 106 514 -20 hstem
51 82 289 78 vstem
174 724 rmoveto
-26 callsubr
190 -724 rmoveto
-83 callsubr
endchar
                </CharString>
                <CharString name="Wcircumflex">
                    0 106 514 -20 hstem
51 82 289 78 vstem
406 690 rmoveto
-20 callsubr
91 -804 rmoveto
-83 callsubr
endchar
                </CharString>
                <CharString name="Wdieresis">
                    0 106 514 -20 99 136 hstemhm
51 82 -3.5 82.5 137.5 82.5 -10 78 hintmask 11101100
431 699 rmoveto
-34 callsubr
-138 hmoveto
-34 callsubr
235 -699 rmoveto
hintmask 11110010
-83 callsubr
endchar
                </CharString>
                <CharString name="Wgrave">
                    0 106 514 -20 hstem
51 82 289 78 vstem
379 718 rmoveto
-77 callsubr
9 -682 rmoveto
-83 callsubr
endchar
                </CharString>
                <CharString name="X">
                    18 -21 24 -21 24 -21 617 -20 23 -20 hstemhm
40 473 hintmask 10001100
421 -3 rmoveto
hintmask 00110100
91 6 -183 307 184 310 -90 0 -143 -253 rlineto
hintmask 01001100
-149 256 -91 -6 184 -307 -184 -310 89 0 143 253 rlineto
endchar
                </CharString>
                <CharString name="Y">
                    21 -21 620 -20 22 -20 hstemhm
234 84 hintmask 10110000
318 hmoveto
0 206 rlineto
hintmask 11010000
-82 callsubr
hintmask 10110000
-81 callsubr
endchar
                </CharString>
                <CharString name="Yacute">
                    21 -21 620 -20 22 -20 hstemhm
234 84 hintmask 10110000
173 726 rmoveto
-26 callsubr
145 -726 rmoveto
0 206 rlineto
hintmask 11010000
-82 callsubr
hintmask 10110000
-81 callsubr
endchar
                </CharString>
                <CharString name="Ycircumflex">
                    21 -21 620 -20 22 -20 hstemhm
234 84 hintmask 10110000
405 692 rmoveto
-20 callsubr
46 -806 rmoveto
0 206 rlineto
hintmask 11010000
-82 callsubr
hintmask 10110000
-81 callsubr
endchar
                </CharString>
                <CharString name="Ydieresis">
                    21 -21 620 -20 22 -20 99 136 hstemhm
128.5 82.5 23 84 30.5 82.5 hintmask 10110110
430 701 rmoveto
-34 callsubr
hintmask 10111110
-138 hmoveto
-34 callsubr
hintmask 11010110
190 -701 rmoveto
0 206 199 414 -86 0 -153 -334 rlineto
hintmask 10110110
-81 callsubr
endchar
                </CharString>
                <CharString name="Ygrave">
                    21 -21 620 -20 22 -20 hstemhm
234 84 hintmask 10110000
378 720 rmoveto
-77 callsubr
-36 -684 rmoveto
0 206 rlineto
hintmask 11010000
-82 callsubr
hintmask 10110000
-81 callsubr
endchar
                </CharString>
                <CharString name="Z">
                    0 72.5 475 72.5 hstem
67 421 vstem
481 hmoveto
-80 callsubr
endchar
                </CharString>
                <CharString name="Zacute">
                    0 72.5 475 72.5 hstem
67 421 vstem
182 724 rmoveto
-26 callsubr
299 -724 rmoveto
-80 callsubr
endchar
                </CharString>
                <CharString name="Zcaron">
                    0 72.5 475 72.5 hstem
67 421 vstem
295 685 rmoveto
8 callsubr
190 -685 rmoveto
-80 callsubr
endchar
                </CharString>
                <CharString name="Zdotaccent">
                    0 72.5 475 72.5 79 136 hstem
247.5 84 vstem
329 699 rmoveto
7 callsubr
235 -699 rmoveto
-80 callsubr
endchar
                </CharString>
                <CharString name="_279">
                    -607 0 357 vstem
357 107 rmoveto
20 -16 16 -20 vhcurveto
-35 321 hlineto
20 -16 16 -20 vhcurveto
-214 hlineto
-20 -16 -16 -20 hvcurveto
-71 vlineto
-20 16 -16 20 vhcurveto
35 -214 -35 hlineto
-20 -16 -16 -20 hvcurveto
-71 vlineto
-20 16 -16 20 vhcurveto
285 hlineto
20 16 16 20 hvcurveto
-71 714 rmoveto
20 -16 16 -20 vhcurveto
-143 hlineto
-20 -16 -16 -20 hvcurveto
-107 vlineto
-20 16 -16 20 vhcurveto
143 hlineto
20 16 16 20 hvcurveto
endchar
                </CharString>
                <CharString name="_283">
                    107 0 1071 vstem
500 71 rmoveto
-429 0 188 215 429 0 rlineto
377 386 rmoveto
-12 26 -25 16 -28 0 rrcurveto
-429 hlineto
-21 0 -19 -8 -13 -16 rrcurveto
-500 -572 rlineto
-18 -21 -5 -29 11 -26 12 -26 25 -16 28 0 rrcurveto
429 hlineto
21 0 20 9 13 16 rrcurveto
500 571 rlineto
18 21 4 29 -11 26 rrcurveto
endchar
                </CharString>
                <CharString name="_303">
                    -107 0 143 553 161 vstem
286 143 rmoveto
193 callsubr
196 -53 rmoveto
1 -5 -3 -5 -3 -3 -3 -3 -5 -3 -5 0 rrcurveto
-72 hlineto
-9 0 -8 8 -1 9 -8 114 -92 93 -114 8 -9 1 -8 8 0 9 rrcurveto
71 vlineto
0 5 2 5 3 3 3 3 6 3 5 -1 173 -9 138 -138 9 -173 rrcurveto
214 hmoveto
1 -5 -2 -5 -4 -3 -3 -3 -5 -3 -5 0 rrcurveto
-71 hlineto
-9 0 -8 9 -1 9 -8 232 -189 188 -232 8 -9 1 -8 8 0 9 rrcurveto
72 vlineto
0 5 2 4 3 3 3 4 4 2 6 -1 290 -9 236 -235 9 -290 rrcurveto
161 535 rmoveto
149 callsubr
endchar
                </CharString>
                <CharString name="_312">
                    -107 0 157 557 143 vstem
714 339 rmoveto
0 -15 -8 -12 -13 -6 -4 -2 -6 0 -4 0 -9 0 -10 3 -7 7 rrcurveto
-80 81 -298 -298 rlineto
-14 -14 -22 0 -14 14 rrcurveto
-57 56 rlineto
-14 14 0 23 14 14 rrcurveto
298 298 -80 80 rlineto
-11 10 -3 16 6 13 6 13 12 9 15 0 rrcurveto
268 hlineto
20 15 -16 -20 hvcurveto
143 18 rmoveto
149 callsubr
endchar
                </CharString>
                <CharString name="_317">
                    -107 0 143 571 143 vstem
607 357 rmoveto
0 12 -6 10 -9 7 rrcurveto
-250 179 rlineto
-11 8 -14 1 -12 -6 -12 -6 -7 -13 0 -13 rrcurveto
-357 vlineto
0 -13 7 -13 12 -6 12 -6 14 1 11 8 rrcurveto
250 178 rlineto
9 7 6 10 0 12 rrcurveto
107 -268 rmoveto
-10 -8 -8 -10 vhcurveto
-535 hlineto
-10 -8 8 10 hvcurveto
536 vlineto
10 8 8 10 vhcurveto
535 hlineto
10 8 -8 -10 hvcurveto
143 hmoveto
149 callsubr
endchar
                </CharString>
                <CharString name="_329">
                    -36 143 143 216 160 -108 67 145 161 -117 68 hintmask 10101000
665 58 rmoveto
40 122 rlineto
4 11 0 8 2 7 rrcurveto
2 11 2 0 rlineto
0 -3 1 -4 1 -4 rrcurveto
6 -26 40 -122 rlineto
-352 -4 rmoveto
198 callsubr
516 -138 rmoveto
-39 0 -129 370 -90 0 -128 -370 -39 0 0 -59 160 0 0 59 -42 0 26 81 136 0 26 -81 -42 0 0 -59 161 0 rlineto
-50 702 rmoveto
-67 -67 -139 hlineto
-7 0 -4 1 -5 -1 rrcurveto
-8 -2 0 2 6 5 rlineto
4 4 5 6 3 5 rrcurveto
206 295 0 50 -317 0 0 -128 67 0 0 65 rlineto
130 hlineto
7 0 5 0 4 1 3 0 3 1 2 0 rrcurveto
0 -2 -6 -5 rlineto
-3 -3 -5 -5 -4 -7 rrcurveto
-206 -295 0 -50 326 0 rlineto
endchar
                </CharString>
                <CharString name="_334">
                    -36 0 71 72 89 vstem
143 107 rmoveto
155 callsubr
89 286 rmoveto
20 -16 16 -20 vhcurveto
-160 hlineto
-20 -16 -16 -20 hvcurveto
-357 vlineto
-20 16 -16 20 vhcurveto
160 hlineto
20 16 16 20 hvcurveto
661 357 rmoveto
58 -49 49 -58 vhcurveto
-155 hlineto
4 18 6 6 6 12 15 29 17 32 0 46 0 43 0 100 -125 0 -9 0 -10 -4 -7 -7 -24 -23 -6 -35 -6 -33 -7 -32 -6 -33 -22 -22 rrcurveto
-17 -17 -19 -24 -20 -26 -25 -32 -53 -67 -21 -2 -18 -2 -16 -16 0 -18 rrcurveto
-357 vlineto
0 -20 17 -15 19 -1 20 -1 33 -12 35 -12 60 -21 75 -25 80 0 rrcurveto
10 0 42 0 20 0 rlineto
49 1 37 14 24 28 21 25 9 34 -3 42 14 13 11 19 6 21 6 22 0 22 -6 21 17 22 8 26 -1 28 0 8 -3 17 -6 18 rrcurveto
19 22 12 31 0 30 rrcurveto
endchar
                </CharString>
                <CharString name="_335">
                    -36 71 71 vstem
143 536 rmoveto
20 -16 15 -20 -20 -16 -15 -20 -20 16 -16 20 20 16 16 20 vhcurveto
89 -286 rmoveto
-20 -16 -16 -20 vhcurveto
-160 hlineto
-20 -16 16 20 hvcurveto
357 vlineto
20 16 16 20 vhcurveto
160 hlineto
20 16 -16 -20 hvcurveto
630 -274 rmoveto
6 18 3 17 0 8 1 28 -8 26 -17 22 6 21 0 22 -6 22 -6 21 -11 19 -14 13 3 42 -9 34 -21 25 -24 28 -37 14 -49 1 rrcurveto
-20 0 -42 0 -10 0 rlineto
-80 0 -75 -26 -60 -21 -35 -12 -33 -11 -20 -1 -19 -1 -17 -15 0 -20 rrcurveto
-358 vlineto
0 -18 16 -15 18 -2 21 -2 53 -67 25 -32 20 -26 19 -24 17 -17 22 -22 6 -33 7 -32 6 -33 6 -35 24 -23 7 -7 10 -4 9 0 rrcurveto
125 0 100 43 hvcurveto
0 46 -17 32 -15 29 -6 12 -6 6 -4 18 rrcurveto
155 hlineto
58 0 48 49 1 58 0 30 -12 32 -19 21 rrcurveto
endchar
                </CharString>
                <CharString name="_366">
                    -107 0 71 197 71 vstem
704 130 rmoveto
-67 -81 -100 -49 -108 0 -197 0 -161 160 0 197 0 162 107 136 148 44 -37 -59 -21 -69 0 -71 0 -207 168 -168 207 0 21 0 20 2 20 3 rrcurveto
114 47 rmoveto
6 13 -3 17 -11 11 -11 11 -15 2 -14 -6 -41 -19 -42 -10 -44 0 -167 0 -137 137 0 167 0 86 35 79 64 58 11 10 3 16 -6 14 rrcurveto
-6 13 -12 10 -16 -1 -231 -8 -181 -188 0 -232 0 -236 193 -192 236 0 166 0 153 97 70 151 rrcurveto
endchar
                </CharString>
                <CharString name="_372">
                    -179 436 47 vstem
782 242 rmoveto
-181 146 -169 -187 0 0 18 49 14 53 9 56 0 0 281 -57 8 273 -186 64 -92 -181 0 0 1 20 0 45 -1 3 0 0 129 243 -254 88 rrcurveto
-139 -186 216 -150 0 0 0 -2 -3 -73 -3 -34 0 0 -68 254 -243 -98 20 -244 285 44 0 0 -9 -59 -16 -53 -20 -50 -39 70 -102 115 -222 -92 rrcurveto
88 -224 157 24 84 32 -75 -137 -114 -86 -131 -1 rrcurveto
-14 -11 -11 -14 -14 11 -11 14 hvcurveto
157 1 136 107 83 167 0 0 269 -168 112 278 rrcurveto
endchar
                </CharString>
                <CharString name="_374">
                    -107 0 125 607 125 vstem
643 357 rmoveto
0 4 -2 6 -3 3 rrcurveto
-178 178 rlineto
-4 3 -5 3 -5 0 rrcurveto
-10 -7 -8 -10 hvcurveto
-107 -197 vlineto
-9 -9 -9 -9 hvcurveto
-107 vlineto
-9 9 -9 9 vhcurveto
197 -107 hlineto
-9 8 -9 9 vhcurveto
4 0 6 2 3 3 rrcurveto
179 178 rlineto
3 3 2 6 0 4 rrcurveto
89 hmoveto
114 callsubr
125 hmoveto
115 callsubr
endchar
                </CharString>
                <CharString name="_376">
                    -107 0 143 571 143 vstem
571 536 rmoveto
20 -15 15 -20 vhcurveto
-7 0 -8 -2 -6 -4 rrcurveto
-250 -179 rlineto
-9 -7 -6 -11 0 -11 0 -12 6 -10 9 -7 rrcurveto
250 -178 rlineto
6 -4 8 -3 7 0 rrcurveto
20 15 16 20 hvcurveto
143 -90 rmoveto
196 callsubr
143 hmoveto
149 callsubr
endchar
                </CharString>
                <CharString name="_378">
                    -36 0 71 vstem
571 195 rmoveto
10 -143 -117 -123 -143 0 -138 0 -112 112 0 138 0 99 59 89 91 40 rrcurveto
-10 73 rlineto
-127 -46 -84 -120 0 -135 0 -177 144 -145 177 0 140 0 124 91 43 133 rrcurveto
249 58 rmoveto
-111 -55 -127 254 rlineto
-6 12 -13 7 -13 0 rrcurveto
-254 0 -9 72 227 0 0 71 -236 0 -20 161 rlineto
51 -6 45 44 0 51 0 49 -41 40 -49 0 -40 0 -35 -24 -11 -39 -2 -6 -2 -12 1 -6 rrcurveto
54 -434 rlineto
2 -18 15 -14 18 0 rrcurveto
264 0 133 -266 rlineto
6 -12 13 -8 13 0 6 0 5 1 5 3 rrcurveto
143 71 rlineto
endchar
                </CharString>
                <CharString name="_380">
                    -322 143 125 250 125 vstem
643 393 rmoveto
10 -8 8 -10 vhcurveto
-89 hlineto
-10 -8 -8 -10 hvcurveto
0 -142 -110 -116 -140 -9 rrcurveto
0 271 219 68 rlineto
8 3 5 6 0 8 rrcurveto
72 vlineto
0 6 -3 5 -4 3 -4 3 -7 2 -5 -2 rrcurveto
-209 -65 0 52 219 68 rlineto
8 3 5 6 0 8 rrcurveto
71 vlineto
0 6 -3 6 -4 3 -4 3 -7 2 -5 -2 rrcurveto
-209 -65 0 101 rlineto
10 -8 8 -10 vhcurveto
-89 hlineto
-10 -8 -8 -10 hvcurveto
0 -140 -130 -39 rlineto
-8 -3 -5 -7 0 -8 rrcurveto
-71 vlineto
0 -6 3 -6 4 -3 3 -2 4 -1 4 0 2 0 1 0 2 1 rrcurveto
120 37 0 -52 -130 -40 rlineto
-8 -3 -5 -6 0 -8 rrcurveto
-72 vlineto
0 -6 3 -5 4 -3 3 -2 4 -2 4 0 2 0 1 0 2 1 rrcurveto
120 37 0 -341 rlineto
-10 8 -8 10 vhcurveto
89 hlineto
217 176 176 217 hvcurveto
endchar
                </CharString>
                <CharString name="_382">
                    250 0 1214 vstem
346 232 rmoveto
621 hlineto
41 7 37 7 26 4 107 18 36 35 0 18 0 18 -36 36 -107 18 -26 4 -37 7 -41 7 rrcurveto
-621 hlineto
-39 22 -52 13 -59 0 rrcurveto
-71 -35 -36 hlineto
-10 -8 -20 -25 hvcurveto
0 -10 2 -9 2 -8 -43 -1 -32 -8 0 -9 0 -9 32 -7 43 -1 -2 -8 -2 -9 0 -10 rrcurveto
-25 8 -20 10 vhcurveto
36 -36 71 hlineto
59 0 52 14 39 22 rrcurveto
624 141 rmoveto
46 17 rlineto
23 -16 15 -26 0 -27 0 -27 -15 -25 -23 -16 rrcurveto
-46 17 rlineto
18 12 12 18 0 21 0 21 -12 19 -18 12 rrcurveto
-621 -150 rmoveto
-41 -23 -55 -12 -57 0 rrcurveto
-16 0 52 -259 54 0 rlineto
35 0 36 17 18 18 rrcurveto
161 161 rlineto
0 54 54 71 vhcurveto
133 23 121 21 0 0 rrcurveto
-719 232 rmoveto
57 0 55 -12 41 -23 rrcurveto
566 hlineto
0 0 -121 21 -133 23 -71 0 -54 54 0 0 rrcurveto
-161 161 rlineto
-18 18 -35 17 -36 0 rrcurveto
-54 0 -52 -259 rlineto
endchar
                </CharString>
                <CharString name="_383">
                    -36 0 929 vstem
848 424 rmoveto
-8 0 -10 -1 -8 -3 rrcurveto
-92 -32 -58 177 87 30 rlineto
31 11 28 28 0 35 0 45 -37 32 -44 0 -8 0 -8 -1 -8 -2 rrcurveto
-91 -31 -29 90 rlineto
-11 33 -32 22 -35 0 -44 0 -36 -37 0 -44 0 -9 1 -9 3 -8 rrcurveto
30 -89 -173 -59 -30 89 rlineto
-11 33 -31 23 -35 0 -45 0 -35 -37 0 -44 0 -9 1 -9 3 -8 rrcurveto
30 -89 -88 -30 rlineto
-33 -11 -22 -31 0 -35 0 -45 34 -33 45 0 9 0 9 1 9 3 rrcurveto
87 30 59 -175 -87 -29 rlineto
-33 -11 -23 -31 0 -35 0 -45 35 -34 45 0 9 0 10 2 9 3 rrcurveto
85 30 31 -91 rlineto
11 -33 31 -22 35 0 45 0 35 36 0 44 0 9 -2 10 -3 8 rrcurveto
-30 91 173 59 30 -92 rlineto
11 -33 32 -22 35 0 44 0 36 37 0 44 0 9 -1 9 -3 8 rrcurveto
-31 93 96 33 rlineto
33 12 19 25 0 36 0 46 -35 33 -46 0 rrcurveto
-443 -146 rmoveto
-59 175 173 59 59 -176 rlineto
endchar
                </CharString>
                <CharString name="_384">
                    -107 0 143 571 143 vstem
696 786 rmoveto
201 callsubr
18 -590 rmoveto
-30 -23 -23 -30 vhcurveto
-465 hlineto
-30 -23 23 30 hvcurveto
244 vlineto
13 -9 10 -13 13 -8 52 -36 54 -32 52 -36 26 -18 33 -20 33 0 rrcurveto
0 0 0 0 vlineto
33 0 32 20 26 18 52 36 55 32 52 35 13 8 11 11 11 12 rrcurveto
76 vmoveto
0 -28 -32 -33 -22 -15 -50 -33 -49 -32 -50 -32 -21 -14 -35 -25 -26 0 -26 0 -35 25 -21 14 -49 32 -51 31 -49 33 -23 16 -32 33 0 30 rrcurveto
30 23 23 30 vhcurveto
465 hlineto
31 22 -25 -30 hvcurveto
endchar
                </CharString>
                <CharString name="_385">
                    36 0 23 279 57 265 88 265 23 vstem
71 357 rmoveto
0 -170 99 -146 143 -70 rrcurveto
-205 561 rlineto
-24 -54 -13 -59 0 -62 rrcurveto
719 22 rmoveto
0 53 -19 37 -17 28 -22 36 -20 30 0 35 0 40 30 36 42 0 rrcurveto
6 hlineto
-76 70 -102 42 -112 0 -150 0 -132 -76 -76 -117 10 0 9 -1 8 0 0 0 45 1 69 5 23 2 3 -35 -23 -3 -23 -3 -26 -1 0 0 rrcurveto
156 -464 94 281 -67 183 -44 4 rlineto
-23 2 2 36 23 -2 71 -5 42 -1 0 0 0 0 44 1 70 5 23 2 3 -35 -23 -3 -23 -3 -26 -1 0 0 rrcurveto
155 -461 43 143 rlineto
18 60 15 42 0 37 rrcurveto
-283 -59 rmoveto
-128 -374 rlineto
39 -12 40 -6 42 0 50 0 47 9 45 16 -1 2 0 2 -1 2 rrcurveto
236 604 rmoveto
2 -14 1 -14 0 -16 0 -44 -10 -48 -22 -62 rrcurveto
-132 -378 rlineto
128 74 86 138 0 158 0 75 -20 70 -33 61 rrcurveto
-376 294 rmoveto
202 callsubr
-977 vmoveto
-263 -214 214 263 263 214 214 263 263 214 -214 -263 -263 -214 -214 -263 hvcurveto
endchar
                </CharString>
                <CharString name="_386">
                    36 0 151 303 152 vstem
606 857 rmoveto
-152 -74 0 -759 0 0 rlineto
-172 22 -131 94 0 114 0 108 117 90 160 28 rrcurveto
96 vlineto
-244 -30 -184 -132 0 -160 0 -166 197 -136 257 -23 rrcurveto
0 0 152 71 rlineto
373 532 rmoveto
-78 -44 rlineto
-73 44 -92 32 -103 12 rrcurveto
-96 vlineto
59 -11 53 -18 44 -26 rrcurveto
-82 -47 293 -63 rlineto
endchar
                </CharString>
                <CharString name="_387">
                    178 143 143 71 143 71 143 72 143 vstem
536 857 rmoveto
-536 -214 0 -72 71 0 rlineto
-20 18 -15 21 vhcurveto
851 hlineto
21 18 15 20 hvcurveto
71 72 hlineto
-928 -143 rmoveto
-429 -33 vlineto
-21 -18 -15 -20 hvcurveto
-36 929 36 vlineto
20 -18 15 -21 vhcurveto
-32 429 -143 -429 -72 429 -143 -429 -71 429 -143 -429 -71 429 hlineto
747 -536 rmoveto
-994 hlineto
-21 -18 -15 -20 hvcurveto
-72 1071 72 vlineto
20 -17 15 -21 vhcurveto
endchar
                </CharString>
                <CharString name="_388">
                    321 0 1286 vstem
990 391 rmoveto
-320 -101 rlineto
-9 -3 -9 -1 -9 0 -9 0 -9 1 -9 3 rrcurveto
-320 101 -10 -177 rlineto
-4 -79 164 -64 197 0 197 0 164 64 -4 79 rrcurveto
286 357 rmoveto
0 8 -6 7 -7 3 rrcurveto
-625 196 rlineto
-2 1 -1 0 -2 0 -2 0 -2 0 -2 -1 rrcurveto
-625 -196 rlineto
-7 -3 -5 -7 0 -8 0 -8 5 -6 7 -3 rrcurveto
186 -58 rlineto
-35 -49 -17 -70 -3 -65 -21 -12 -15 -23 0 -27 0 -25 13 -22 20 -13 rrcurveto
-33 -241 rlineto
-1 -5 3 -5 3 -4 3 -4 5 -2 5 0 rrcurveto
107 hlineto
5 0 6 2 3 4 3 4 2 5 -1 5 rrcurveto
-32 241 rlineto
20 13 12 22 0 25 0 26 -14 23 -21 12 4 75 22 62 32 25 rrcurveto
364 -115 rlineto
2 -1 2 0 2 0 2 0 1 0 2 1 rrcurveto
625 196 rlineto
7 3 6 6 0 8 rrcurveto
endchar
                </CharString>
                <CharString name="_389">
                    -107 373 110 vstem
479 323 rmoveto
65 114 66 114 66 113 39 65 36 67 45 61 rrcurveto
0 0 vlineto
-21 -5 -21 -3 -21 0 -20 0 -20 3 -20 5 -75 -140 -87 -134 -83 -135 -82 136 -85 135 -78 138 -20 -4 -21 -4 -21 0 -21 0 -19 3 -20 5 rrcurveto
114 -172 98 -183 104 -179 rrcurveto
-8 -394 rlineto
20 3 19 3 20 0 20 0 20 -3 19 -3 rrcurveto
endchar
                </CharString>
                <CharString name="_392">
                    -107 0 171 120 86 103 86 120 171 vstem
524 227 rmoveto
-4 4 -7 0 -4 -4 -17 -17 -37 -6 -26 0 -26 0 -38 6 -17 17 -4 4 -7 0 -4 -4 -4 -4 0 -6 4 -4 27 -27 53 -3 16 0 rrcurveto
16 0 52 3 27 27 4 4 0 6 -4 4 rrcurveto
-147 87 rmoveto
204 callsubr
189 hmoveto
204 callsubr
120 58 rmoveto
0 -22 -13 -21 -18 -9 2 -9 1 -9 0 -9 rrcurveto
-91 -103 -74 -126 -126 -102 74 91 vhcurveto
0 9 1 10 2 8 -19 9 -14 20 0 23 0 31 26 26 32 0 16 0 14 -7 11 -11 39 27 52 17 57 2 rrcurveto
33 150 rlineto
1 5 5 4 6 -2 rrcurveto
106 -24 rlineto
7 15 14 9 17 0 rrcurveto
23 20 -20 -23 -23 -20 -20 -23 hvcurveto
-23 0 -19 20 -1 23 rrcurveto
-95 22 -30 -136 rlineto
57 -2 53 -17 39 -27 11 11 13 7 16 0 32 0 26 -26 0 -31 rrcurveto
171 253 rmoveto
149 callsubr
endchar
                </CharString>
                <CharString name="_393">
                    -107 0 179 84 52 83 52 83 52 84 188 vstem
483 389 rmoveto
-33 16 0 30 rlineto
15 -12 11 -14 -15 -11 -11 -15 vhcurveto
-157 vlineto
-60 -49 -47 -60 -61 -49 48 61 vhcurveto
68 84 -67 vlineto
-15 11 -11 15 15 11 11 15 vhcurveto
158 vlineto
59 50 47 59 59 50 -47 -59 vhcurveto
-35 vlineto
136 -124 rmoveto
-61 -49 -48 -60 -60 -50 48 60 vhcurveto
0 69 33 -16 50 15 0 -69 rlineto
-15 12 -11 14 15 11 11 15 vhcurveto
70 84 vlineto
188 9 rmoveto
115 callsubr
endchar
                </CharString>
                <CharString name="_395">
                    -107 0 36 785 36 vstem
821 89 rmoveto
-69 -56 -56 -69 vhcurveto
-267 393 -393 268 hlineto
69 56 56 69 vhcurveto
268 -393 392 hlineto
36 268 rmoveto
149 callsubr
endchar
                </CharString>
                <CharString name="_396">
                    178 0 114 69 114 206 114 69 114 46 114 68 114 vstem
183 700 rmoveto
-160 -183 -389 297 549 vlineto
-114 -457 rmoveto
-69 206 69 hlineto
160 91 rmoveto
114 -389 -114 hlineto
549 vmoveto
114 hlineto
-114 -114 vlineto
160 -46 rmoveto
-389 vlineto
183 -46 -183 -90 297 525 hlineto
-114 -297 rmoveto
-69 206 69 hlineto
160 91 rmoveto
-389 182 -46 -182 -90 297 525 vlineto
-115 -297 rmoveto
-68 206 68 hlineto
endchar
                </CharString>
                <CharString name="_397">
                    -107 0 164 117 74 118 111 122 151 vstem
584 288 rmoveto
48 -32 38 -40 vhcurveto
-16 0 -13 -3 -10 -6 rrcurveto
-155 vlineto
10 -6 13 -2 16 0 rrcurveto
40 32 39 47 hvcurveto
-192 239 rmoveto
47 -32 39 -40 vhcurveto
-16 0 -13 -4 -10 -6 rrcurveto
-154 vlineto
10 -6 13 -3 16 0 rrcurveto
40 32 39 48 hvcurveto
314 -241 rmoveto
-100 -75 -81 -93 vhcurveto
-24 0 -21 4 -20 7 rrcurveto
0 -115 -118 -23 0 355 rlineto
45 2 42 21 31 34 21 22 14 25 8 28 7 1 8 1 7 0 rrcurveto
93 75 -81 -100 hvcurveto
-191 239 rmoveto
-100 -76 -81 -93 vhcurveto
-23 0 -22 3 -20 7 rrcurveto
0 -115 -117 -22 0 468 103 0 rlineto
24 13 28 7 27 0 rrcurveto
93 76 -80 -100 hvcurveto
342 100 rmoveto
149 callsubr
endchar
                </CharString>
                <CharString name="_398">
                    173 307 91 194 20 -4 73 hintmask 01000000
682 339 rmoveto
-1 11 rlineto
-2 26 66 -31 4 66 rrcurveto
-27 -14 rlineto
-39 89 21 16 -110 0 -28 0 -24 -3 -28 -6 2 -11 1 -10 0 -11 0 -25 -7 -22 -17 -18 rrcurveto
38 -11 rlineto
-3 -6 -3 -6 0 -7 rrcurveto
hintmask 00100000
0 -41 83 36 0 -60 0 -36 -71 -81 -35 0 -16 0 -89 97 1 20 rrcurveto
0 9 102 22 rlineto
11 2 7 9 0 11 0 13 -12 9 -12 0 -7 0 -77 -18 -12 -3 -4 10 -10 18 -12 0 -6 0 -7 -6 -6 -2 rrcurveto
hintmask 10100000
-18 -5 -42 -1 18 -33 rrcurveto
-271 -59 rlineto
-11 -2 -6 -10 0 -11 0 -12 10 -9 12 0 16 0 239 55 31 7 5 -6 5 -7 6 -4 39 -28 77 -138 32 0 47 0 65 43 26 38 rrcurveto
6 8 7 6 11 -1 1 -27 -62 -39 -3 -18 -2 -17 1 -20 0 -17 0 -8 0 -9 1 -9 13 -4 13 -2 14 0 37 0 37 12 37 -1 rrcurveto
8 41 13 41 -2 42 rrcurveto
-1 18 rlineto
-3 66 -18 9 -46 39 -2 2 -3 3 -2 3 rrcurveto
3 2 5 1 rlineto
172 0 -62 -356 107 -90 65 29 76 25 60 37 -56 50 -46 39 -39 66 rrcurveto
-66 110 -80 121 -145 -6 rrcurveto
33 131 rmoveto
4 3 11 7 0 7 rrcurveto
hintmask 01000000
0 9 -23 16 -3 19 22 11 27 1 24 6 132 32 94 70 59 124 12 25 11 26 1 27 rrcurveto
-3 -5 rlineto
-55 -97 -9 -27 -94 -71 -62 -47 -72 -31 -73 -28 rrcurveto
hintmask 00100000
-13 1 0 42 -6 0 rlineto
-27 -2 -9 34 -19 13 -36 -40 -25 -39 -53 -20 -25 -9 -14 -11 -12 -23 38 18 41 6 42 0 40 0 18 2 13 -6 13 -6 9 -12 22 -25 rrcurveto
hintmask 01000000
-123 -514 rmoveto
13 -88 rlineto
23 -4 24 -2 23 0 47 0 45 9 44 16 -9 20 -37 87 -18 0 rrcurveto
-37 0 -87 -18 -31 -20 rrcurveto
-133 361 rmoveto
47 -119 40 27 rlineto
hintmask 00100000
-61 99 rlineto
253 -296 rmoveto
-8 hlineto
-35 1 -37 -9 -35 -4 rrcurveto
4 -24 rlineto
17 3 96 10 0 15 0 3 -1 2 -1 3 rrcurveto
-255 351 rmoveto
-6 4 -6 1 -7 0 -13 0 -12 -6 -13 -1 rrcurveto
4 -9 rlineto
162 -343 rmoveto
0 -53 23 7 -6 46 rlineto
479 832 rmoveto
0 0 vlineto
0 vmoveto
-1 -3 -1 -1 2 1 rlineto
3 vmoveto
1 hlineto
endchar
                </CharString>
                <CharString name="_399">
                    -107 0 186 642 30 vstem
651 -28 rmoveto
1 -4 2 -5 -7 -7 -4 -4 -44 -31 -51 -5 -51 -4 -69 -4 -41 38 -7 7 3 10 4 4 5 4 3 2 6 0 6 0 -2 0 3 -2 rrcurveto
19 -15 29 -12 60 0 60 0 43 17 19 14 9 7 3 -6 1 -4 rrcurveto
-22 64 rmoveto
4 -9 -3 -6 -8 -4 -7 -3 0 2 -7 12 -7 12 -6 12 -33 0 -33 0 -10 -11 -16 -13 -16 -13 -6 -5 -6 7 -6 8 2 8 11 9 rrcurveto
11 9 17 15 16 7 16 7 8 -1 15 0 15 0 17 -2 11 -7 11 -8 6 -17 4 -9 rrcurveto
199 157 rmoveto
0 -30 -10 -52 -22 -33 -23 -33 -14 -12 -27 2 -34 2 -67 106 -44 2 -55 2 -118 -116 -94 0 -56 0 -18 7 -19 13 rrcurveto
-28 20 -14 31 1 41 1 74 69 68 87 1 110 1 77 -110 55 1 47 1 90 92 45 0 47 0 14 -49 0 -29 rrcurveto
29 89 rmoveto
0 251 -185 114 -30 18 -50 31 -48 12 -47 31 -29 20 -41 47 -34 41 rrcurveto
-6 -65 -20 -27 -23 -18 -47 -38 -30 -12 -42 -22 -35 -18 -190 -114 0 -243 rrcurveto
-244 204 -179 228 227 198 165 250 vhcurveto
endchar
                </CharString>
                <CharString name="_400">
                    -107 83 119 443 119 vstem
597 258 rmoveto
-84 85 -90 -89 -84 -85 -17 -17 rlineto
-27 -27 -45 0 -27 27 -27 28 -1 45 28 27 rrcurveto
6 6 -84 85 -7 -7 rlineto
-49 -49 -17 -69 16 -63 -51 -12 -37 -45 0 -54 0 -64 51 -51 63 0 55 0 46 38 12 51 62 -16 69 17 49 49 rrcurveto
17 16 84 85 rlineto
-101 470 rmoveto
-49 48 -67 18 -62 -15 -9 54 -47 42 -57 0 -63 0 -52 -51 0 -64 0 -55 38 -46 51 -11 -20 -65 17 -73 51 -51 rrcurveto
17 -17 0 0 84 -85 90 -89 84 85 -89 89 -85 85 -16 16 rlineto
-27 27 0 46 27 27 27 27 45 0 27 -27 rrcurveto
7 -7 85 85 rlineto
443 -588 rmoveto
0 58 -43 47 -56 8 16 62 -17 68 -49 49 rrcurveto
-16 17 -85 85 -89 89 -85 -84 89 -90 85 -85 17 -16 rlineto
27 -27 0 -46 -27 -27 -27 -27 -45 0 -27 27 rrcurveto
-7 7 -84 -85 6 -6 rlineto
51 -51 74 -16 65 20 rrcurveto
0 vlineto
11 -52 46 -40 56 0 63 0 51 51 0 64 rrcurveto
-1 627 rmoveto
64 -51 51 -63 vhcurveto
-58 0 -48 -43 -8 -56 -65 19 -72 -16 -51 -51 rrcurveto
-16 -17 -85 -85 -90 -89 0 0 85 -85 89 90 85 84 17 17 rlineto
27 27 45 0 27 -27 27 -27 0 -45 -27 -27 rrcurveto
-7 -7 84 -85 7 7 rlineto
51 51 16 72 -18 64 56 8 43 48 0 58 rrcurveto
endchar
                </CharString>
                <CharString name="_402">
                    36 286 71 161 36 107 36 160 71 vstem
161 643 rmoveto
-72 hlineto
-49 -40 -40 -49 hvcurveto
-608 vlineto
-49 40 -40 49 vhcurveto
72 hlineto
49 40 40 49 hvcurveto
608 vlineto
49 -40 40 -49 vhcurveto
768 -91 rmoveto
91 vlineto
0 30 -17 40 -21 21 rrcurveto
-85 85 rlineto
-21 21 -41 17 -30 0 rrcurveto
-375 hlineto
-30 -23 -23 -30 hvcurveto
-858 vlineto
-49 40 -40 49 vhcurveto
482 hlineto
79 64 64 79 hvcurveto
429 vlineto
0 52 -29 46 -42 25 rrcurveto
-411 -552 rmoveto
205 callsubr
72 vmoveto
205 callsubr
72 vmoveto
205 callsubr
143 -357 rmoveto
206 callsubr
72 vmoveto
206 callsubr
72 vmoveto
206 callsubr
143 -357 rmoveto
207 callsubr
72 vmoveto
207 callsubr
72 vmoveto
207 callsubr
53 143 rmoveto
-500 286 357 -90 hlineto
-30 24 -23 30 vhcurveto
89 hlineto
endchar
                </CharString>
                <CharString name="_403">
                    -107 0 143 71 71 72 71 72 71 72 143 vstem
750 857 rmoveto
-714 hlineto
-20 -16 -16 -20 hvcurveto
-928 vlineto
-20 16 -16 20 vhcurveto
714 hlineto
20 16 16 20 hvcurveto
928 vlineto
20 -16 16 -20 vhcurveto
-464 -161 rmoveto
10 8 8 10 vhcurveto
35 hlineto
10 8 -8 -10 hvcurveto
-35 vlineto
-10 -8 -8 -10 vhcurveto
-35 hlineto
-10 -8 8 10 hvcurveto
-107 vmoveto
10 8 7 10 vhcurveto
35 hlineto
10 8 -7 -10 hvcurveto
-36 vlineto
-10 -8 -8 -10 vhcurveto
-35 hlineto
-10 -8 8 10 hvcurveto
-107 vmoveto
208 callsubr
-107 vmoveto
208 callsubr
-72 -143 rmoveto
209 callsubr
107 vmoveto
209 callsubr
107 vmoveto
209 callsubr
107 vmoveto
-10 -8 -8 -10 vhcurveto
-35 hlineto
-10 -8 8 10 hvcurveto
36 vlineto
10 8 7 10 vhcurveto
35 hlineto
10 8 -7 -10 hvcurveto
107 vmoveto
-10 -8 -8 -10 vhcurveto
-35 hlineto
-10 -8 8 10 hvcurveto
35 vlineto
10 8 8 10 vhcurveto
35 hlineto
10 8 -8 -10 hvcurveto
286 -750 rmoveto
-10 -8 -7 -10 vhcurveto
-178 hlineto
-10 -8 7 10 hvcurveto
108 vlineto
10 8 7 10 vhcurveto
178 hlineto
10 8 -7 -10 hvcurveto
178 vmoveto
210 callsubr
107 vmoveto
210 callsubr
107 vmoveto
-10 -8 -8 -10 vhcurveto
-36 hlineto
-10 -7 8 10 hvcurveto
36 vlineto
10 7 7 10 vhcurveto
36 hlineto
10 8 -7 -10 hvcurveto
107 vmoveto
-10 -8 -8 -10 vhcurveto
-36 hlineto
-10 -7 8 10 hvcurveto
35 vlineto
10 7 8 10 vhcurveto
36 hlineto
10 8 -8 -10 hvcurveto
143 -607 rmoveto
211 callsubr
107 vmoveto
211 callsubr
107 vmoveto
211 callsubr
107 vmoveto
-10 -8 -8 -10 vhcurveto
-36 hlineto
-10 -8 8 10 hvcurveto
36 vlineto
10 8 7 10 vhcurveto
36 hlineto
10 8 -7 -10 hvcurveto
107 vmoveto
-10 -8 -8 -10 vhcurveto
-36 hlineto
-10 -8 8 10 hvcurveto
35 vlineto
10 8 8 10 vhcurveto
36 hlineto
10 8 -8 -10 hvcurveto
endchar
                </CharString>
                <CharString name="_404">
                    -250 214 125 36 125 vstem
663 551 rmoveto
21 21 0 34 -21 21 -21 21 -34 0 -21 -21 rrcurveto
-127 -127 -206 0 -127 127 rlineto
-21 21 -34 0 -21 -21 -21 -21 0 -34 21 -21 rrcurveto
163 -163 0 -459 rlineto
-35 28 -28 35 35 27 28 35 vhcurveto
214 36 -214 vlineto
-35 28 -28 35 35 27 28 35 vhcurveto
459 vlineto
-18 255 rmoveto
179 callsubr
endchar
                </CharString>
                <CharString name="_406">
                    -536 36 357 vstem
393 562 rmoveto
143 -80 152 -99 -99 -79 -152 -143 vhcurveto
0 -112 48 -72 68 -27 rrcurveto
-25 -458 rlineto
-1 -20 15 -16 20 0 rrcurveto
107 hlineto
20 0 14 16 -1 20 rrcurveto
-25 458 rlineto
68 27 49 72 0 112 rrcurveto
endchar
                </CharString>
                <CharString name="_407">
                    36 0 75 782 71 vstem
500 -52 rmoveto
0 420 357 130 0 -355 rlineto
-393 288 rmoveto
-389 142 389 141 390 -141 rlineto
75 -2 rmoveto
0 30 -19 27 -28 10 rrcurveto
-393 143 rlineto
-8 3 -9 2 -8 0 -8 0 -8 -2 -8 -3 rrcurveto
-393 -143 rlineto
-28 -10 -19 -27 0 -30 rrcurveto
-428 vlineto
0 -26 14 -25 23 -12 rrcurveto
393 -214 rlineto
11 -6 11 -3 12 0 12 0 11 3 11 6 rrcurveto
393 214 rlineto
23 12 15 25 0 26 rrcurveto
endchar
                </CharString>
                <CharString name="_408">
                    321 286 75 210 71 215 71 215 71 vstem
357 -54 rmoveto
212 callsubr
-250 146 rmoveto
-225 96 225 97 226 -97 rlineto
382 -350 rmoveto
212 callsubr
-250 146 rmoveto
-226 96 226 97 225 -97 rlineto
-475 67 rmoveto
0 149 214 92 0 -149 rlineto
-250 120 rmoveto
-246 105 246 106 246 -106 rlineto
361 -394 rmoveto
0 28 -16 26 -27 12 rrcurveto
-242 103 0 224 rlineto
0 28 -18 25 -26 12 rrcurveto
-250 108 rlineto
-9 4 -10 1 -9 0 -9 0 -10 -1 -9 -4 rrcurveto
-250 -108 rlineto
-26 -12 -17 -25 0 -28 rrcurveto
0 -224 -242 -103 rlineto
-26 -12 -18 -26 0 -28 rrcurveto
-232 vlineto
0 -27 15 -25 25 -12 rrcurveto
250 -125 rlineto
10 -6 10 -2 11 0 11 0 11 2 10 6 rrcurveto
250 125 rlineto
2 1 1 0 1 1 1 -1 1 0 2 -1 rrcurveto
250 -125 rlineto
10 -6 11 -2 11 0 11 0 11 2 10 6 rrcurveto
250 125 rlineto
25 12 14 25 0 27 rrcurveto
endchar
                </CharString>
                <CharString name="_409">
                    178 0 155 251 151 -123 155 45 140 hintmask 10000000
1031 668 rmoveto
-69 -285 69 vlineto
145 -238 rmoveto
70 0 35 -41 6 -68 rrcurveto
-227 hlineto
4 67 45 42 67 0 rrcurveto
9 -326 rmoveto
-82 -43 48 81 hvcurveto
367 hlineto
1 8 0 9 0 9 rrcurveto
151 -88 126 -160 -155 -106 -117 -153 -158 100 -109 161 vhcurveto
122 0 78 54 38 117 rrcurveto
-123 hlineto
-13 -44 -55 -22 -42 0 rrcurveto
-745 28 rmoveto
hintmask 10100000
193 168 vlineto
hintmask 11000000
68 43 -28 -72 -71 -51 -22 -63 hvcurveto
-165 299 rmoveto
164 145 vlineto
hintmask 00100000
56 50 -15 -65 -60 -40 -24 -55 hvcurveto
-311 284 rmoveto
-703 341 vlineto
128 120 62 143 hvcurveto
0 88 -43 65 -86 25 63 30 33 45 0 71 rrcurveto
hintmask 01010000
140 -104 34 -121 vhcurveto
endchar
                </CharString>
                <CharString name="_410">
                    -107 0 71 97 157 -157 175 96 28 319 71 hintmask 10011000
696 786 rmoveto
201 callsubr
-418 -205 rmoveto
75 66 -21 -88 hvcurveto
0 -44 -21 -28 -39 -19 54 -16 26 -41 0 -55 rrcurveto
-89 -74 -38 -80 vhcurveto
-214 439 hlineto
195 -178 rmoveto
35 24 16 37 41 -31 9 -35 hvcurveto
-91 -103 hlineto
103 -186 rmoveto
40 32 13 45 45 -28 18 -42 hvcurveto
-105 -121 hlineto
466 -18 rmoveto
26 0 35 14 8 27 rrcurveto
77 hlineto
-23 -73 -50 -34 -76 0 rrcurveto
hintmask 01000000
-100 -63 68 99 95 66 74 97 100 55 -79 -94 hvcurveto
0 -6 0 -4 -1 -6 rrcurveto
-229 hlineto
-51 27 -30 51 vhcurveto
hintmask 00100000
-6 204 rmoveto
-42 0 -27 -26 -3 -42 rrcurveto
142 hlineto
-4 42 -22 26 -44 0 rrcurveto
hintmask 00001000
-90 148 rmoveto
-43 178 43 vlineto
endchar
                </CharString>
                <CharString name="_411">
                    36 916 84 vstem
883 532 rmoveto
75 -61 62 -75 -75 -62 -62 -75 -75 62 -61 75 75 61 61 75 vhcurveto
-430 -414 rmoveto
-78 -61 -61 -78 vhcurveto
-54 0 -47 30 -23 44 rrcurveto
69 -27 rlineto
57 -23 64 27 23 57 23 57 -27 64 -57 23 rrcurveto
-59 23 rlineto
10 2 11 2 10 0 rrcurveto
78 61 -62 -78 hvcurveto
463 414 rmoveto
-94 -76 -76 -94 -94 -77 76 94 94 77 76 94 94 76 -76 -94 vhcurveto
84 hmoveto
140 -114 114 -140 vhcurveto
-140 0 -113 -113 -1 -139 rrcurveto
-159 -227 rlineto
-6 1 -6 0 -7 0 -35 0 -34 -10 -28 -17 rrcurveto
-217 88 0 -240 128 -51 rlineto
18 -85 78 -64 90 0 98 0 81 75 9 96 rrcurveto
244 178 rlineto
140 114 113 141 hvcurveto
endchar
                </CharString>
                <CharString name="_412">
                    -107 320 33 97 27 216 26 67 71 vstem
693 496 rmoveto
-60 -48 -48 -60 -59 -49 48 60 59 49 49 59 60 48 -49 -59 vhcurveto
-340 -328 rmoveto
61 -50 49 -61 vhcurveto
-8 0 -8 0 -7 -2 rrcurveto
46 -19 rlineto
45 -18 22 -51 -18 -45 -18 -45 -52 -22 -45 18 -18 8 -18 8 -18 7 18 -35 37 -25 42 0 rrcurveto
61 50 50 61 hvcurveto
504 457 rmoveto
89 -72 72 -89 vhcurveto
-535 hlineto
-89 -72 -72 -89 hvcurveto
0 -261 166 -67 rlineto
22 13 26 8 28 0 6 0 5 1 5 -1 rrcurveto
125 179 rlineto
1 110 90 89 110 0 rrcurveto
112 90 -89 -112 -110 -90 -91 -112 hvcurveto
-192 -141 rlineto
-7 -76 -65 -59 -78 0 -71 0 -60 50 -15 68 rrcurveto
-96 39 0 -86 rlineto
-89 72 -71 89 vhcurveto
535 hlineto
89 72 71 89 hvcurveto
-138 406 rmoveto
75 -60 60 -75 -74 -60 -60 -75 -74 60 -61 74 75 60 61 74 vhcurveto
endchar
                </CharString>
                <CharString name="_413">
                    36 9 982 vstem
467 205 rmoveto
-241 9 -44 6 0 0 -17 -50 -28 -61 22 -52 11 -25 24 -27 29 -2 rrcurveto
234 -16 1 12 rlineto
-207 533 rmoveto
-242 9 78 -48 rlineto
-44 -70 -20 -35 0 0 0 0 -19 -35 22 -32 rrcurveto
106 -199 rlineto
0 0 11 107 126 143 rrcurveto
82 -52 rlineto
587 -77 rmoveto
0 0 -96 -51 -189 23 rrcurveto
-3 97 -118 -202 128 -205 -4 92 rlineto
83 3 39 3 0 0 0 0 40 4 15 36 rrcurveto
-334 716 rmoveto
-36 39 -39 54 -56 5 -27 3 -35 -9 -16 -25 rrcurveto
-126 -199 11 -6 177 -105 rlineto
122 208 25 35 0 0 rrcurveto
366 -171 rmoveto
-11 -7 -174 -108 rlineto
129 -204 19 -40 0 0 50 14 67 11 30 47 15 23 8 36 -15 25 rrcurveto
-198 329 rmoveto
-41 72 -21 34 0 0 0 0 -22 33 -39 -3 rrcurveto
-226 hlineto
0 0 89 -61 67 -178 rrcurveto
-84 -48 234 -11 122 208 rlineto
endchar
                </CharString>
                <CharString name="_414">
                    178 0 89 965 89 vstem
268 250 rmoveto
-49 -40 -40 -49 -49 -41 40 49 49 41 40 49 49 40 -40 -49 vhcurveto
20 179 rmoveto
213 callsubr
199 -179 rmoveto
-49 -41 -40 -49 -49 -40 40 49 49 40 40 49 49 41 -40 -49 vhcurveto
89 54 rmoveto
69 -56 56 -69 vhcurveto
-16 0 -58 233 rlineto
-17 70 -68 54 -73 0 rrcurveto
-429 hlineto
-73 0 -68 -54 -17 -70 rrcurveto
-58 -233 -16 0 rlineto
-69 -56 -56 -69 hvcurveto
-215 vlineto
-10 8 -8 10 vhcurveto
53 -71 hlineto
-59 49 -48 59 59 48 48 59 vhcurveto
71 571 -71 vlineto
-59 48 -48 59 59 48 48 59 vhcurveto
71 54 vlineto
10 8 8 10 hvcurveto
endchar
                </CharString>
                <CharString name="_415">
                    178 0 89 965 89 vstem
1018 357 rmoveto
-16 0 -58 234 rlineto
-17 70 -68 53 -73 0 rrcurveto
-72 125 hlineto
10 -8 8 -10 vhcurveto
-250 hlineto
-10 -7 -8 -10 hvcurveto
-125 -72 vlineto
-73 0 -68 -53 -17 -70 rrcurveto
-58 -234 -16 0 rlineto
-69 -56 -56 -69 hvcurveto
-214 vlineto
-10 8 -8 10 vhcurveto
53 -36 hlineto
-59 49 -48 59 59 48 48 59 vhcurveto
36 571 -36 vlineto
-59 48 -48 59 59 48 48 59 vhcurveto
36 54 vlineto
10 8 8 10 hvcurveto
214 vlineto
69 -56 56 -69 vhcurveto
-839 -268 rmoveto
-49 -41 41 49 49 41 40 49 49 40 -40 -49 -49 -40 -41 -49 hvcurveto
109 268 rmoveto
213 callsubr
109 -268 rmoveto
-49 -40 41 49 49 40 40 49 49 41 -40 -49 -49 -41 -41 -49 hvcurveto
endchar
                </CharString>
                <CharString name="_416">
                    -107 18 821 vstem
839 36 rmoveto
0 9 -3 9 -7 7 rrcurveto
-225 225 128 0 rlineto
20 16 15 20 hvcurveto
0 9 -4 10 -7 7 rrcurveto
-224 224 110 0 rlineto
20 16 16 20 hvcurveto
0 9 -4 9 -7 7 rrcurveto
-214 215 rlineto
-7 7 -9 3 -9 0 -9 0 -10 -3 -7 -7 rrcurveto
-214 -215 rlineto
-7 -7 -3 -9 0 -9 rrcurveto
-20 15 -16 20 vhcurveto
110 0 -224 -224 rlineto
-7 -7 -4 -10 0 -9 rrcurveto
-20 16 -15 20 vhcurveto
128 0 -225 -225 rlineto
-7 -7 -3 -9 0 -9 rrcurveto
-20 16 -16 20 vhcurveto
257 hlineto
-2 -36 -4 -37 0 -36 rrcurveto
-18 15 -16 19 vhcurveto
179 hlineto
19 15 16 18 hvcurveto
0 36 -4 37 -2 36 rrcurveto
258 hlineto
20 15 16 20 hvcurveto
endchar
                </CharString>
                <CharString name="_417">
                    -107 0 132 611 114 vstem
629 182 rmoveto
-16 -12 -11 -14 vhcurveto
-7 0 -5 2 -7 4 -62 37 -77 21 -82 0 -46 0 -46 -6 -44 -9 -7 -2 -9 -3 -5 0 -17 0 -10 14 0 14 0 18 11 8 13 3 rrcurveto
53 12 52 7 55 0 94 0 83 -22 72 -43 11 -7 6 -5 0 -16 rrcurveto
53 120 rmoveto
-18 -14 -16 -19 vhcurveto
-9 0 -6 5 -6 3 -70 41 -97 28 -106 0 -54 0 -47 -8 -39 -11 -8 -2 -4 -2 -8 0 -18 0 -16 15 0 18 0 18 9 13 18 5 rrcurveto
48 13 49 11 72 0 112 0 109 -28 85 -51 14 -8 5 -11 0 -15 rrcurveto
61 138 rmoveto
-23 -19 -17 -21 vhcurveto
-9 0 -6 3 -8 4 -78 46 -120 26 -116 0 -59 0 -58 -6 -54 -15 -6 -2 -9 -2 -8 0 -23 0 -17 17 0 23 0 23 14 15 16 4 rrcurveto
61 18 69 8 74 0 126 0 131 -27 97 -56 13 -8 10 -10 0 -21 rrcurveto
114 -83 rmoveto
115 callsubr
endchar
                </CharString>
                <CharString name="_418">
                    -393 0 571 vstem
571 688 rmoveto
169 -168 vlineto
-1 -1 -14 -16 -1 0 rrcurveto
-80 -152 -24 -17 -283 0 0 -231 156 0 13 -17 -169 -325 0 -169 168 0 rlineto
1 1 15 15 1 0 rrcurveto
79 153 25 16 282 0 0 232 -155 0 -14 17 rlineto
endchar
                </CharString>
                <CharString name="_419">
                    321 302 26 31 29 76 28 21 51 58 39 vstem
438 92 rmoveto
-1 -7 -6 -6 -7 0 -7 0 -5 6 -1 7 rrcurveto
-8 134 8 292 rlineto
7 6 6 7 vhcurveto
7 0 6 -6 1 -7 rrcurveto
8 -292 rlineto
157 -118 rmoveto
-1 -14 rlineto
0 -4 -2 -4 -3 -3 -3 -3 -4 -2 -4 0 -5 0 -5 2 -3 4 -2 3 -1 4 0 3 rrcurveto
0 vlineto
-6 131 0 1 0 0 rrcurveto
5 323 1 3 rlineto
0 6 3 5 4 3 3 2 3 1 3 0 3 0 3 -1 3 -2 4 -3 3 -5 0 -6 rrcurveto
7 -327 rlineto
-589 72 rmoveto
-1 3 -1 2 -3 0 -3 0 -2 -2 -1 -3 rrcurveto
-9 -71 9 -70 rlineto
1 -3 2 -2 3 0 3 0 1 2 1 3 rrcurveto
11 70 rlineto
37 116 rmoveto
-1 3 -2 2 -3 0 -3 0 -2 -2 0 -3 rrcurveto
-13 -116 13 -113 rlineto
-3 2 -2 3 vhcurveto
3 0 2 2 1 3 rrcurveto
14 113 rlineto
142 -137 rmoveto
0 vlineto
-105 274 rmoveto
4 -3 2 -3 vhcurveto
-3 0 -3 -2 -1 -4 rrcurveto
-12 -137 12 -132 rlineto
1 -3 3 -3 3 0 rrcurveto
3 3 3 3 hvcurveto
14 132 rlineto
38 141 rmoveto
-1 4 -2 3 -4 0 rrcurveto
-4 -4 -3 -4 hvcurveto
-11 -141 11 -136 rlineto
-4 4 -3 4 vhcurveto
4 0 2 3 1 4 rrcurveto
13 136 rlineto
40 131 rmoveto
-1 4 -4 4 -4 0 rrcurveto
-4 -5 -4 -4 hvcurveto
-11 -131 11 -137 rlineto
-5 5 -4 4 vhcurveto
4 0 4 4 1 5 rrcurveto
11 137 rlineto
203 -134 rmoveto
0 vlineto
-162 346 rmoveto
6 -4 4 -5 vhcurveto
-6 0 -3 -4 -1 -6 rrcurveto
-10 -212 10 -137 rlineto
1 -6 3 -4 6 0 rrcurveto
5 4 4 6 hvcurveto
0 0 12 137 rlineto
41 260 rmoveto
6 -5 5 -6 vhcurveto
-6 0 -4 -5 -1 -6 rrcurveto
-9 -261 9 -136 rlineto
1 -6 4 -5 6 0 rrcurveto
6 5 5 6 hvcurveto
0 0 10 136 rlineto
44 283 rmoveto
-1 7 -4 6 -7 0 rrcurveto
-6 -6 -6 -7 hvcurveto
-9 -282 9 -135 rlineto
1 -7 5 -5 6 0 7 0 4 5 1 7 rrcurveto
0 0 10 135 rlineto
209 -132 rmoveto
0 0 0 0 0 vlineto
-110 417 rmoveto
8 -6 6 -8 -8 -6 -6 -8 vhcurveto
-8 -285 8 -133 rlineto
1 -8 5 -6 8 0 rrcurveto
8 6 6 8 hvcurveto
0 0 8 133 rlineto
47 274 rmoveto
-1 9 -6 7 -8 0 -8 0 -7 -7 -1 -9 rrcurveto
-7 -275 7 -131 rlineto
1 -8 7 -7 8 0 rrcurveto
8 7 7 8 hvcurveto
0 0 8 131 rlineto
110 hmoveto
-8 357 rlineto
-1 6 -3 6 -5 3 -2 2 -3 0 -3 0 -4 0 -4 -2 -3 -2 -4 -3 -2 -5 -1 -5 rrcurveto
0 -2 -6 -355 3 -65 3 -63 rlineto
1 -9 8 -9 9 0 rrcurveto
9 8 9 9 hvcurveto
0 0 vlineto
629 139 rmoveto
88 -71 71 -87 vhcurveto
-22 0 -21 -5 -19 -8 -13 142 -118 112 -146 0 -36 0 -34 -7 -31 -12 -12 -4 -4 -5 0 -9 rrcurveto
-502 vlineto
0 -10 8 -7 9 -1 rrcurveto
439 hlineto
87 71 70 87 hvcurveto
endchar
                </CharString>
                <CharString name="_422">
                    -107 0 71 236 4 189 71 215 71 vstem
819 645 rmoveto
111 callsubr
-248 136 rmoveto
112 callsubr
215 -642 rmoveto
113 callsubr
-656 -71 rmoveto
167 -60 -50 hlineto
55 -245 rlineto
2 -9 1 -9 1 -7 rrcurveto
1 -12 3 0 2 12 rlineto
2 7 0 9 2 9 rrcurveto
81 305 63 0 81 -305 rlineto
2 -9 1 -9 2 -7 1 -4 0 -5 0 -3 rrcurveto
3 0 1 12 rlineto
1 7 1 9 2 9 rrcurveto
55 245 -50 0 0 60 167 0 0 -60 -39 0 -91 -369 -89 0 -72 271 rlineto
-3 9 0 8 -2 8 rrcurveto
-1 14 -3 0 rlineto
0 -4 0 -6 -1 -4 -1 -9 -1 -8 -3 -8 rrcurveto
-72 -271 -88 0 -92 369 -39 0 rlineto
endchar
                </CharString>
                <CharString name="_423">
                    -107 0 71 325 58 -50 58 38 71 215 71 hintmask 10111000
819 645 rmoveto
111 callsubr
-248 136 rmoveto
112 callsubr
215 -642 rmoveto
113 callsubr
-547 -441 rmoveto
38 0 109 158 -106 152 -38 0 0 60 162 0 0 -60 -42 0 59 -89 rlineto
4 -5 3 -4 2 -4 1 -2 1 -1 1 -2 rrcurveto
1 hlineto
0 -1 5 8 7 11 rrcurveto
57 89 -41 0 0 60 156 0 0 -60 -38 0 -108 -158 107 -152 38 0 0 -59 rlineto
hintmask 11011000
-163 59 43 hlineto
-60 90 rlineto
-4 6 -4 3 -2 4 -1 2 0 2 -1 2 rrcurveto
-1 hlineto
-2 0 -3 -8 -7 -11 rrcurveto
-58 -90 42 0 0 -59 -157 0 rlineto
endchar
                </CharString>
                <CharString name="_424">
                    -107 0 71 292 145 -8 71 215 71 hintmask 10110000
819 645 rmoveto
111 callsubr
-248 136 rmoveto
112 callsubr
215 -642 rmoveto
113 callsubr
-554 -441 rmoveto
51 310 -51 60 206 hlineto
26 0 25 -3 21 -8 46 -20 30 -46 0 -61 0 -61 -31 -52 -50 -17 -20 -7 -22 -2 -24 0 rrcurveto
-76 -93 52 -59 -183 hlineto
197 215 rmoveto
hintmask 11010000
17 0 15 3 12 6 23 12 11 24 0 31 0 30 -11 22 -20 12 -12 7 -14 3 -20 0 rrcurveto
-67 -150 hlineto
endchar
                </CharString>
                <CharString name="_425">
                    -107 0 71 429 71 215 71 vstem
819 645 rmoveto
111 callsubr
-248 136 rmoveto
112 callsubr
215 -642 rmoveto
113 callsubr
-72 -321 rmoveto
-178 178 -215 -214 -71 71 rlineto
-107 -107 0 -107 571 0 rlineto
-464 286 rmoveto
59 48 48 59 59 -48 48 -59 -59 -48 -48 -59 -59 48 -48 59 hvcurveto
endchar
                </CharString>
                <CharString name="_426">
                    -107 0 71 143 71 1 71 0 71 1 71 0 71 215 71 hintmask 10010110
357 643 rmoveto
-71 71 71 hlineto
72 -143 rmoveto
-72 72 72 hlineto
-72 -143 rmoveto
-71 71 71 hlineto
72 -142 rmoveto
-72 71 72 hlineto
390 145 rmoveto
111 callsubr
-248 136 rmoveto
112 callsubr
hintmask 00100100
215 -642 rmoveto
-715 857 286 -72 72 72 71 -232 hlineto
-30 24 -24 30 vhcurveto
232 hlineto
-350 -169 rmoveto
-4 16 -15 10 -16 0 rrcurveto
-44 72 -71 -72 hlineto
hintmask 01001000
-55 -186 -12 -35 0 0 -3 -9 -2 -10 0 -10 rrcurveto
-62 60 -45 83 83 60 45 62 vhcurveto
0 10 -1 10 -3 9 0 0 -13 35 -47 160 rrcurveto
-79 -260 rmoveto
-40 -31 16 20 20 31 16 40 40 32 -16 -20 hvcurveto
-20 -32 -16 -40 vhcurveto
endchar
                </CharString>
                <CharString name="_427">
                    -107 0 71 429 71 -35 71 179 71 hintmask 11010000
819 645 rmoveto
111 callsubr
-248 136 rmoveto
112 callsubr
215 -642 rmoveto
113 callsubr
hintmask 00100000
-440 -117 rmoveto
-7 3 -7 -2 -6 -5 rrcurveto
-92 -93 -73 0 rlineto
-10 -8 -8 -10 hvcurveto
-107 vlineto
-10 8 -8 10 vhcurveto
73 0 92 -93 rlineto
4 -3 5 -2 4 0 2 0 3 0 2 1 7 3 4 6 0 7 rrcurveto
304 vlineto
0 7 -4 7 -7 3 rrcurveto
233 -385 rmoveto
-8 0 -8 3 -7 6 -16 12 -2 22 13 16 36 45 20 54 0 58 0 58 -20 55 -36 45 -13 16 2 21 16 13 15 12 24 -1 12 -16 rrcurveto
46 -57 26 -72 0 -74 0 -74 -26 -71 -46 -57 -7 -9 -10 -5 -11 0 rrcurveto
-118 83 rmoveto
-8 0 -10 3 -7 6 -14 13 -1 23 14 15 18 20 11 26 0 27 0 27 -11 26 -18 20 -14 15 1 23 14 13 15 13 23 0 13 -15 rrcurveto
31 -33 18 -43 0 -46 0 -46 -18 -43 -31 -33 -7 -7 -10 -4 -9 0 rrcurveto
endchar
                </CharString>
                <CharString name="_428">
                    -107 0 71 429 71 -35 179 71 71 hintmask 11010000
819 645 rmoveto
111 callsubr
-248 136 rmoveto
112 callsubr
215 -642 rmoveto
113 callsubr
-357 -71 rmoveto
-215 hlineto
-39 -32 -33 -39 hvcurveto
-214 vlineto
-39 32 -33 39 vhcurveto
215 hlineto
39 32 33 39 hvcurveto
214 vlineto
39 -32 33 -39 vhcurveto
hintmask 10110000
274 -2 rmoveto
-2 1 -3 1 -2 0 -4 0 -5 -2 -3 -3 rrcurveto
-148 -149 0 -50 148 -149 rlineto
3 -3 5 -2 4 0 2 0 3 1 2 1 7 3 4 6 0 7 rrcurveto
322 vlineto
0 7 -4 6 -7 3 rrcurveto
endchar
                </CharString>
                <CharString name="_429">
                    -107 0 71 429 71 215 71 vstem
819 645 rmoveto
111 callsubr
-248 136 rmoveto
112 callsubr
215 -642 rmoveto
113 callsubr
-518 -71 rmoveto
-126 -168 rlineto
-4 -6 0 -10 4 -6 rrcurveto
126 -168 rlineto
6 -8 11 -1 8 6 rrcurveto
28 21 rlineto
8 6 2 11 -6 8 rrcurveto
-102 136 102 136 rlineto
6 8 -2 11 -8 6 rrcurveto
-28 21 rlineto
-8 6 -11 -1 -6 -8 rrcurveto
447 -168 rmoveto
-126 168 rlineto
-6 8 -11 1 -8 -6 rrcurveto
-28 -21 rlineto
-8 -6 -2 -11 6 -8 rrcurveto
102 -136 -102 -136 rlineto
-6 -8 2 -11 8 -6 rrcurveto
28 -21 rlineto
8 -6 11 1 6 8 rrcurveto
126 168 rlineto
4 6 0 10 -4 6 rrcurveto
-346 -258 rmoveto
36 -5 rlineto
9 -2 9 6 2 10 rrcurveto
77 464 rlineto
2 9 -6 10 -10 2 rrcurveto
-35 5 rlineto
-9 2 -10 -6 -2 -10 rrcurveto
-77 -464 rlineto
-2 -9 6 -10 10 -2 rrcurveto
endchar
                </CharString>
                <CharString name="_430">
                    -107 414 147 125 150 vstem
835 396 rmoveto
-23 -6 -23 -2 -21 0 rrcurveto
-117 -91 82 142 70 27 36 39 36 24 -33 -66 hvcurveto
0 -37 -10 -42 -7 -24 36 -63 98 20 0 0 21 46 11 60 0 53 rrcurveto
142 -72 83 -133 -137 -79 -105 -139 vhcurveto
0 -137 64 -117 105 -54 -44 -89 -57 -79 -59 -59 -107 129 -96 174 -40 337 rrcurveto
-158 hlineto
73 -561 217 -179 57 -35 33 -20 28 1 30 17 47 26 140 141 78 164 32 0 39 4 39 9 rrcurveto
endchar
                </CharString>
                <CharString name="_431">
                    36 0 86 371 86 371 86 vstem
121 205 rmoveto
150 100 186 -124 0 -201 rlineto
-371 305 rmoveto
0 144 108 -72 rlineto
349 -377 rmoveto
0 201 186 124 150 -100 rlineto
-379 51 rmoveto
-152 101 152 102 152 -102 rlineto
-381 52 rmoveto
-150 100 336 225 0 -201 rlineto
349 -176 rmoveto
108 72 0 -144 rlineto
-185 124 rmoveto
-186 124 0 201 336 -225 rlineto
121 hmoveto
0 14 -7 14 -12 8 rrcurveto
-457 305 rlineto
-7 4 -9 3 -8 0 -8 0 -9 -3 -7 -4 rrcurveto
-457 -305 rlineto
-12 -8 -7 -14 0 -14 rrcurveto
-304 vlineto
0 -14 7 -14 12 -8 rrcurveto
457 -305 rlineto
7 -4 9 -3 8 0 8 0 9 3 7 4 rrcurveto
457 305 rlineto
12 8 7 14 0 14 rrcurveto
endchar
                </CharString>
                <CharString name="_432">
                    178 0 1143 vstem
1004 426 rmoveto
0 7 1 6 0 7 0 185 -152 150 -188 0 -136 0 -115 -78 -55 -113 -27 20 -33 13 -36 0 -87 0 -70 -70 0 -85 0 -16 3 -15 4 -15 rrcurveto
-68 -40 -45 -72 0 -83 0 -124 102 -95 125 -7 rrcurveto
2 0 1 0 1 0 675 0 rlineto
4 0 4 -1 4 0 124 0 101 100 0 122 0 92 -58 79 -81 33 rrcurveto
-743 -148 rmoveto
92 77 53 86 vhcurveto
174 0 32 -214 119 0 rrcurveto
42 31 27 43 39 -37 26 -37 hvcurveto
-32 0 -25 -13 -22 -22 -17 20 -17 20 -18 20 39 39 41 15 55 0 rrcurveto
88 74 -54 -93 -92 -74 -54 -87 hvcurveto
-179 0 -25 214 -123 0 rrcurveto
-39 -34 -26 -41 -41 34 -27 40 hvcurveto
32 0 25 15 23 22 17 -20 18 -20 16 -20 -40 -38 -39 -17 -55 0 rrcurveto
-89 -74 53 94 hvcurveto
endchar
                </CharString>
                <CharString name="_433">
                    36 0 71 143 71 429 71 144 71 vstem
500 857 rmoveto
202 callsubr
-71 vmoveto
73 0 68 -19 60 -32 rrcurveto
-108 -108 rlineto
-30 10 -30 6 -33 0 -32 0 -31 -6 -30 -10 rrcurveto
-108 108 rlineto
60 32 68 19 73 0 rrcurveto
-378 -630 rmoveto
-32 60 -19 68 0 73 0 73 19 69 32 60 rrcurveto
108 -109 rlineto
-10 -30 -6 -30 0 -33 0 -32 6 -31 10 -30 rrcurveto
270 -335 rmoveto
-73 0 -68 18 -60 32 rrcurveto
108 108 rlineto
30 -10 31 -6 32 0 33 0 30 6 30 10 rrcurveto
108 -108 rlineto
-60 -32 -68 -18 -73 0 rrcurveto
214 vmoveto
-118 -96 96 118 118 96 96 118 118 96 -96 -118 -118 -96 -96 -118 hvcurveto
270 121 rmoveto
10 30 6 31 0 32 0 32 -6 31 -10 30 rrcurveto
108 109 rlineto
32 -60 19 -69 0 -73 0 -73 -19 -68 -32 -60 rrcurveto
endchar
                </CharString>
                <CharString name="_434">
                    36 18 125 714 125 vstem
982 357 rmoveto
0 242 -179 200 -232 35 rrcurveto
-127 vlineto
163 -33 123 -145 0 -172 rrcurveto
-197 -160 -160 -197 -197 -160 160 197 vhcurveto
0 172 123 145 163 33 rrcurveto
127 vlineto
-232 -35 -179 -200 0 -242 rrcurveto
-266 216 -216 266 266 216 216 266 vhcurveto
endchar
                </CharString>
                <CharString name="_438">
                    36 38 114 -108 119 -61 117 80 115 -82 113 60 119 108 121 hintmask 10001110
332 12 rmoveto
-49 -43 -9 -41 -39 -57 6 50 50 48 8 40 vhcurveto
38 54 -7 -49 hvcurveto
-33 422 rmoveto
-45 -17 -32 -49 -49 -20 29 46 47 18 34 51 46 20 -37 -42 vhcurveto
150 180 rmoveto
-39 -15 -40 -11 -42 0 -30 17 -35 9 -35 0 -103 0 -81 -76 0 -104 0 -56 37 -78 56 -19 rrcurveto
-3 vlineto
-29 -13 -6 -35 0 -28 0 -30 12 -24 26 -16 rrcurveto
-3 vlineto
-61 -20 -41 -38 0 -67 rrcurveto
-115 109 -32 95 116 87 42 128 vhcurveto
hintmask 01001000
0 157 -226 -58 0 85 0 30 16 12 28 6 93 17 58 73 0 94 0 16 -3 15 -6 15 15 3 14 5 15 5 rrcurveto
178 -379 rmoveto
-2 25 -1 25 0 25 rrcurveto
342 vlineto
0 23 0 23 3 23 rrcurveto
-124 hlineto
3 -23 -1 -25 0 -24 rrcurveto
-339 vlineto
0 -25 0 -25 -2 -25 rrcurveto
459 124 rmoveto
-18 -12 -21 -7 -22 0 rrcurveto
-41 -7 40 33 hvcurveto
hintmask 00100000
204 47 vlineto
16 0 16 -2 16 0 rrcurveto
106 -95 vlineto
hintmask 10001000
0 31 -1 30 4 31 rrcurveto
-127 hlineto
3 -16 1 -17 0 -17 rrcurveto
hintmask 00101000
-42 -54 vlineto
hintmask 00010000
-106 vlineto
11 2 11 1 11 0 7 0 7 -1 7 0 rrcurveto
hintmask 10001000
-2 -1 -196 vlineto
hintmask 01010110
-97 14 -94 119 vhcurveto
33 0 34 5 30 16 rrcurveto
-321 638 rmoveto
42 -32 40 -44 -45 -32 -39 -43 -42 33 -39 44 43 33 39 42 vhcurveto
endchar
                </CharString>
                <CharString name="_439">
                    -107 0 857 vstem
451 297 rmoveto
216 callsubr
257 50 rmoveto
149 callsubr
endchar
                </CharString>
                <CharString name="_443">
                    36 0 999 vstem
984 851 rmoveto
-6 4 -7 2 -7 0 -6 0 -6 -2 -6 -3 rrcurveto
-928 -536 rlineto
-12 -7 -7 -13 1 -13 1 -14 8 -11 13 -5 rrcurveto
221 -91 596 517 -482 -591 0 -195 rlineto
0 -15 10 -14 14 -5 4 -2 4 0 4 0 11 0 9 5 7 8 rrcurveto
135 165 253 -104 rlineto
4 -2 5 0 4 0 6 0 7 1 5 3 9 6 7 8 2 11 rrcurveto
142 857 rlineto
2 14 -5 14 -12 8 rrcurveto
endchar
                </CharString>
                <CharString name="_444">
                    36 0 999 vstem
984 851 rmoveto
-11 8 -15 0 -12 -7 rrcurveto
-928 -536 rlineto
-12 -7 -7 -13 1 -13 1 -14 8 -11 13 -5 rrcurveto
264 -108 0 -252 rlineto
0 -15 9 -13 14 -6 4 -2 4 0 4 0 10 0 10 4 7 8 rrcurveto
166 182 294 -120 rlineto
4 -2 5 0 4 0 6 0 7 1 5 3 9 6 7 8 2 11 rrcurveto
142 857 rlineto
2 14 -5 14 -12 8 rrcurveto
-190 -836 rmoveto
-275 112 267 444 -482 -356 -187 76 800 462 rlineto
endchar
                </CharString>
                <CharString name="_445">
                    -107 429 71 214 143 vstem
857 357 rmoveto
164 callsubr
-357 161 rmoveto
10 -8 8 -10 vhcurveto
-36 hlineto
-10 -7 -8 -10 hvcurveto
-197 -125 vlineto
-10 -8 -7 -10 hvcurveto
-36 vlineto
-10 8 -8 10 vhcurveto
178 hlineto
10 8 8 10 hvcurveto
endchar
                </CharString>
                <CharString name="_446">
                    -107 0 71 715 71 vstem
429 714 rmoveto
197 160 -160 -197 -197 -160 -160 -197 -197 -161 160 197 197 161 160 197 hvcurveto
428 -357 rmoveto
118 callsubr
endchar
                </CharString>
                <CharString name="_447">
                    36 143 140 435 139 vstem
939 -71 rmoveto
20 6 23 16 hvcurveto
0 49 -60 -24 -28 18 -18 11 -1 49 0 18 rrcurveto
-1 527 rlineto
0 20 1 57 19 12 28 17 57 -24 0 49 0 17 -8 22 -20 0 -48 0 -48 -4 -48 0 -49 0 -49 4 -49 0 -20 0 -8 -22 0 -17 rrcurveto
0 -47 56 22 28 -17 20 -12 -1 -56 0 -21 rrcurveto
-179 vlineto
0 -6 0 -6 -1 -6 -7 -2 -7 0 -7 0 rrcurveto
-390 hlineto
-7 0 -8 0 -7 2 -1 6 0 6 0 6 rrcurveto
179 vlineto
0 20 -1 57 20 12 27 17 56 -23 0 48 0 17 -8 22 -20 0 -47 0 -47 -4 -47 0 -51 0 -53 4 -51 0 -20 0 -6 -23 0 -16 rrcurveto
0 -50 59 26 28 -17 25 -15 -4 -86 0 -27 rrcurveto
0 -454 1 -31 rlineto
0 -20 0 -48 -18 -12 -27 -19 -52 20 0 -49 0 -16 9 -20 18 0 47 0 48 3 47 0 51 0 52 -3 52 0 20 0 7 22 0 17 rrcurveto
0 50 -65 -25 -29 18 -21 12 0 58 0 21 rrcurveto
207 vlineto
0 6 0 5 1 6 9 3 10 0 9 0 rrcurveto
377 hlineto
9 0 10 0 9 -3 1 -6 0 -5 0 -6 rrcurveto
-218 vlineto
0 -20 0 -46 -18 -12 -29 -19 -56 21 0 -50 0 -16 9 -20 19 0 49 0 49 3 49 0 50 0 50 -3 49 0 rrcurveto
endchar
                </CharString>
                <CharString name="_448">
                    -250 293 128 80 128 vstem
713 752 rmoveto
19 -15 15 -19 vhcurveto
-267 hlineto
-103 0 -88 -7 -42 -14 -45 -15 -39 -30 -33 -44 -32 -44 -17 -53 0 -62 0 -53 13 -49 23 -43 25 -45 35 -33 47 -22 36 -17 47 -12 54 -4 rrcurveto
-276 vlineto
-19 15 -15 19 vhcurveto
60 hlineto
19 15 15 19 hvcurveto
679 80 -679 vlineto
-19 15 -15 19 vhcurveto
60 hlineto
19 15 15 19 hvcurveto
642 vlineto
0 12 -1 13 3 11 2 9 7 6 9 2 9 2 12 -1 9 0 rrcurveto
19 15 33 19 hvcurveto
endchar
                </CharString>
                <CharString name="_449">
                    -107 0 125 607 125 vstem
196 71 rmoveto
-196 -71 196 hlineto
197 143 rmoveto
-143 hlineto
-20 -16 -16 -20 hvcurveto
-143 vlineto
-20 16 -15 20 vhcurveto
143 hlineto
20 16 15 20 hvcurveto
143 vlineto
20 -16 16 -20 vhcurveto
89 214 rmoveto
-482 -71 482 hlineto
-357 357 rmoveto
-125 -72 125 hlineto
732 -500 rmoveto
-411 -71 411 hlineto
-536 714 rmoveto
-142 hlineto
-20 -16 -15 -20 hvcurveto
-143 vlineto
-20 16 -16 20 vhcurveto
142 hlineto
20 16 16 20 hvcurveto
143 vlineto
20 -16 15 -20 vhcurveto
358 -285 rmoveto
-143 hlineto
-20 -16 -16 -20 hvcurveto
-143 vlineto
-20 16 -16 20 vhcurveto
143 hlineto
20 15 16 20 hvcurveto
143 vlineto
20 -15 16 -20 vhcurveto
178 -72 rmoveto
-125 -71 125 hlineto
357 vmoveto
-482 -72 482 hlineto
endchar
                </CharString>
                <CharString name="_451">
                    -107 0 143 571 143 vstem
714 190 rmoveto
-65 -54 -54 -65 -66 -53 54 65 vhcurveto
0 4 0 5 1 4 rrcurveto
-134 67 rlineto
-21 -20 -29 -12 -31 0 rrcurveto
-65 -54 53 66 66 54 53 65 hvcurveto
31 0 29 -12 21 -20 rrcurveto
134 67 rlineto
-1 4 0 5 0 4 rrcurveto
65 53 54 66 65 54 -54 -65 -66 -54 -53 -65 vhcurveto
-31 0 -28 12 -21 20 rrcurveto
-135 -67 rlineto
1 -4 0 -5 0 -4 0 -4 0 -5 -1 -4 rrcurveto
135 -67 rlineto
21 20 28 13 31 0 rrcurveto
65 54 -54 -66 hvcurveto
143 435 rmoveto
149 callsubr
endchar
                </CharString>
                <CharString name="_452">
                    36 0 92 676 86 3 36 3 86 -71 89 hintmask 10100000
319 528 rmoveto
8 -18 -10 -20 -18 -8 -62 -25 -51 -51 -25 -62 -6 -14 -12 -9 -15 0 -4 0 -6 1 -4 2 -18 7 -8 22 7 18 32 80 65 65 80 32 rrcurveto
18 7 22 -9 7 -18 rrcurveto
525 199 rmoveto
-135 -136 -38 38 rlineto
-14 14 -23 0 -14 -14 rrcurveto
-36 -36 rlineto
-56 31 -65 19 -70 0 rrcurveto
-217 -176 -176 -217 -217 176 -176 217 217 176 176 217 hvcurveto
0 70 -19 65 -31 56 rrcurveto
36 36 rlineto
14 14 0 23 -14 14 rrcurveto
hintmask 00101000
-38 38 136 135 rlineto
-21 57 rmoveto
7 7 0 11 -7 7 rrcurveto
-50 51 rlineto
-7 7 -12 0 -7 -7 -7 -7 0 -11 7 -7 rrcurveto
51 -51 rlineto
3 -3 4 -2 5 0 4 0 6 2 3 3 rrcurveto
128 -128 rmoveto
7 7 0 12 -7 7 rrcurveto
-51 50 rlineto
-7 7 -11 0 -7 -7 -7 -7 0 -11 7 -7 rrcurveto
50 -51 rlineto
hintmask 00010000
4 -3 5 -2 4 0 4 0 5 2 4 3 rrcurveto
23 102 rmoveto
10 -8 8 -10 vhcurveto
-53 hlineto
-10 -8 -8 -10 -10 8 -8 10 hvcurveto
53 hlineto
10 8 8 10 hvcurveto
-107 107 rmoveto
10 -8 8 -10 -10 -8 -8 -10 vhcurveto
-53 vlineto
-10 8 -8 10 10 8 8 10 vhcurveto
84 23 rmoveto
7 7 0 11 -7 7 -7 7 -12 0 -7 -7 rrcurveto
-50 -51 rlineto
-7 -7 0 -11 7 -7 3 -3 5 -2 5 0 4 0 5 2 3 3 rrcurveto
endchar
                </CharString>
                <CharString name="_453">
                    36 0 71 858 71 vstem
340 402 rmoveto
61 -188 198 0 61 188 -160 116 rlineto
339 vmoveto
202 callsubr
345 -753 rmoveto
-16 73 -182 -22 -78 -166 65 -39 rlineto
-42 -14 -45 -7 -47 0 -47 0 -45 7 -42 14 rrcurveto
65 39 -78 166 -182 22 -16 -73 rlineto
-52 71 -32 87 0 95 rrcurveto
0 2 57 -50 134 125 -34 180 -76 -6 rlineto
53 73 76 56 88 28 rrcurveto
-29 -69 160 -89 160 89 -29 69 rlineto
88 -28 76 -56 53 -73 rrcurveto
-75 6 -35 -180 134 -125 57 50 0 -2 rlineto
0 -95 -32 -87 -52 -71 rrcurveto
endchar
                </CharString>
                <CharString name="_454">
                    36 0 143 -36 143 -36 143 -36 143 -35 143 -36 143 -36 143 -36 143 -36 143 hintmask 1010101010000000
250 125 rmoveto
217 callsubr
-107 321 rmoveto
217 callsubr
321 -107 rmoveto
217 callsubr
-107 321 rmoveto
218 callsubr
hintmask 0100000000000000
10 8 8 10 hvcurveto
-320 197 rmoveto
214 hlineto
20 16 16 20 hvcurveto
72 -287 -72 vlineto
-20 16 -16 21 vhcurveto
642 -304 rmoveto
217 callsubr
hintmask 1001000000000000
-108 321 rmoveto
10 -7 8 -10 vhcurveto
-108 hlineto
-10 -7 -8 -10 hvcurveto
-107 vlineto
-10 7 -8 10 vhcurveto
108 hlineto
10 7 8 10 hvcurveto
322 -107 rmoveto
217 callsubr
-107 321 rmoveto
218 callsubr
hintmask 0010010000000000
10 8 8 10 hvcurveto
214 335 rmoveto
37 -68 182 -432 -433 -67 -182 -37 vhcurveto
-7 287 5 vlineto
0 21 18 35 195 1 195 1 18 -37 0 -21 rrcurveto
-5 287 vlineto
-221 vmoveto
10 -8 8 -10 vhcurveto
-107 hlineto
-10 -8 -8 -10 hvcurveto
-107 vlineto
hintmask 0000100100000000
-10 8 -8 10 vhcurveto
107 hlineto
10 8 8 10 hvcurveto
305 vmoveto
-287 -72 hlineto
-20 16 -16 20 vhcurveto
215 hlineto
hintmask 0000001010000000
20 16 16 20 hvcurveto
endchar
                </CharString>
                <CharString name="_455">
                    36 214 179 36 143 35 179 vstem
393 679 rmoveto
-237 hlineto
-8 0 -7 -5 -2 -8 rrcurveto
-139 -487 0 -286 rlineto
-20 16 -16 20 vhcurveto
285 hlineto
20 16 16 20 hvcurveto
321 0 vlineto
20 16 16 20 hvcurveto
178 429 rmoveto
-142 -393 142 hlineto
429 -107 rmoveto
-139 487 rlineto
-2 8 -7 5 -8 0 rrcurveto
-237 -429 hlineto
-20 16 -16 20 vhcurveto
0 0 0 -321 rlineto
-20 16 -16 20 vhcurveto
285 hlineto
20 16 16 20 hvcurveto
-589 946 rmoveto
219 callsubr
375 125 rmoveto
219 callsubr
endchar
                </CharString>
                <CharString name="_456">
                    36 0 1000 vstem
979 604 rmoveto
-28 28 -45 0 -28 -28 rrcurveto
-223 -223 -131 131 223 223 rlineto
28 27 0 46 -28 28 -28 27 -45 0 -28 -27 rrcurveto
-223 -223 -84 83 -89 -89 rlineto
-122 -122 -18 -187 92 -138 rrcurveto
-202 -202 0 -101 101 0 202 202 rlineto
138 -92 187 18 122 122 rrcurveto
89 89 -83 84 223 223 rlineto
27 28 0 45 -27 28 rrcurveto
endchar
                </CharString>
                <CharString name="_457">
                    36 60 54 779 48 vstem
487 444 rmoveto
62 -54 51 -66 -66 -55 -51 -62 -62 55 -51 66 66 54 51 62 vhcurveto
280 hmoveto
62 -53 51 -67 -66 -55 -51 -62 -62 55 -51 66 67 53 51 62 vhcurveto
126 -100 rmoveto
-134 -73 -117 12 -63 3 -46 2 -18 -20 -2 -31 -11 8 -11 10 -12 11 rrcurveto
-5 5 rlineto
-10 11 -17 5 -26 -1 -62 -2 -114 -13 -132 69 rrcurveto
376 vlineto
68 18 21 62 vhcurveto
620 hlineto
59 21 -25 -64 hvcurveto
91 -369 rmoveto
18 27 -19 28 -30 -21 -4 -3 -4 -2 -4 -3 rrcurveto
387 vlineto
54 -40 43 -50 vhcurveto
-701 hlineto
-50 -40 -43 -54 hvcurveto
-387 vlineto
-4 3 -5 2 -4 3 -30 21 -19 -28 18 -27 36 -44 68 -55 104 -42 -110 -374 378 -60 -6 192 0 -3 1 111 0 80 10 -2 8 -2 8 -2 rrcurveto
0 -79 1 -106 0 3 -6 -192 378 60 -110 374 104 42 68 55 36 44 rrcurveto
endchar
                </CharString>
                <CharString name="_458">
                    36 56 141 81 101 40 81 141 81 141 81 vstem
500 615 rmoveto
-81 -242 81 hlineto
222 242 rmoveto
-81 -242 81 hlineto
-182 vmoveto
-222 0 -121 -121 0 121 -182 0 0 585 666 0 0 -443 rlineto
81 524 rmoveto
-827 0 -61 -161 0 -646 222 0 0 -121 121 0 121 121 182 0 242 242 rlineto
endchar
                </CharString>
                <CharString name="_459">
                    -107 47 762 vstem
431 121 rmoveto
1 17 -11 16 -18 7 -18 7 -20 -5 -11 -14 -33 -39 -1 0 0 0 -112 -133 -5 -6 -3 -8 -2 -4 -1 -5 1 -5 1 -7 3 -7 6 -6 rrcurveto
26 -31 126 -47 40 7 14 3 10 7 4 12 3 7 -1 6 1 157 rrcurveto
-83 211 rmoveto
1 20 -10 17 -17 7 -47 18 0 1 0 0 -162 66 -7 3 -8 0 -12 1 -11 -6 -8 -12 -16 -26 -7 -82 6 -55 2 -18 3 -15 4 -9 rrcurveto
7 -12 11 -7 12 -1 8 0 5 1 150 48 rrcurveto
67 22 rlineto
17 5 11 14 1 20 rrcurveto
461 -166 rmoveto
2 15 -4 11 -10 8 -6 5 -5 2 -150 49 -66 22 -1 1 0 0 -16 6 -18 -6 -12 -15 -13 -16 -2 -19 10 -16 rrcurveto
27 -43 rlineto
89 -145 6 -10 7 -5 9 -8 13 -1 13 5 38 15 83 105 6 40 rrcurveto
-375 353 rmoveto
-3 68 -21 300 -2 14 -3 13 -10 9 -14 3 -44 11 -166 -46 -31 -32 -10 -10 -4 -13 3 -12 0 0 6 -9 205 -324 31 -49 25 7 8 2 rrcurveto
8 3 25 7 -3 58 rrcurveto
370 -60 rmoveto
2 vlineto
-4 42 -74 108 -36 17 -13 6 -13 0 -11 -7 -7 -4 -3 -6 -92 -125 -41 -56 -1 -1 0 0 -10 -13 -1 -19 11 -17 11 -17 18 -7 17 4 rrcurveto
-1 -1 1 0 0 0 8 3 15 4 27 6 170 41 7 3 7 4 11 7 5 12 -1 14 rrcurveto
endchar
                </CharString>
                <CharString name="_460">
                    178 0 71 72 71 72 71 214 71 429 71 vstem
571 571 rmoveto
-214 -214 214 vlineto
286 -357 rmoveto
-357 -71 357 hlineto
500 vmoveto
0 -357 -357 357 vlineto
357 -72 rmoveto
-286 -71 286 hlineto
214 vmoveto
-286 -71 286 hlineto
214 vmoveto
-286 -71 286 hlineto
214 vmoveto
-286 -72 hlineto
286 hlineto
-857 -464 rmoveto
-20 -16 -16 -20 -20 -16 16 20 vhcurveto
536 72 vlineto
928 -536 rmoveto
-20 -15 -16 -20 vhcurveto
-828 hlineto
4 11 2 13 0 12 rrcurveto
607 857 vlineto
72 72 rmoveto
-1000 hlineto
-72 -143 vlineto
-607 vlineto
-59 48 -48 59 vhcurveto
929 hlineto
59 48 48 59 hvcurveto
endchar
                </CharString>
                <CharString name="_461">
                    178 23 1096 vstem
571 7 rmoveto
15 78 78 15 27 -72 16 -21 -21 -71 -16 -27 -15 77 -78 15 hvcurveto
151 151 rmoveto
13 81 81 13 hvcurveto
0 5 -2 5 -3 3 -60 59 -97 33 -83 0 -83 0 -96 -33 -60 -59 -3 -3 -3 -5 0 -5 0 -13 82 -81 13 0 8 0 59 56 83 0 rrcurveto
82 0 61 -56 8 0 rrcurveto
152 152 rmoveto
13 81 81 13 hvcurveto
0 4 -3 5 -3 3 -100 100 -151 55 -140 0 -140 0 -150 -55 -100 -100 -3 -3 -3 -5 0 -4 0 -13 80 -81 13 0 6 0 128 119 169 0 rrcurveto
121 0 78 -43 92 -71 3 -2 5 -3 4 0 rrcurveto
152 151 rmoveto
13 80 81 13 hvcurveto
0 5 -2 5 -3 3 -141 140 -204 78 -198 0 -198 0 -203 -78 -141 -140 -3 -3 -3 -5 0 -5 0 -13 81 -81 13 0 4 0 5 3 3 3 rrcurveto
129 113 139 63 174 0 174 0 139 -63 129 -113 3 -3 6 -3 4 0 rrcurveto
endchar
                </CharString>
                <CharString name="_462">
                    36 0 71 143 71 144 71 143 71 143 71 vstem
214 hmoveto
-40 -31 -31 -40 -40 -32 31 40 40 32 31 40 40 31 -31 -40 vhcurveto
215 hmoveto
220 callsubr
-215 214 rmoveto
126 callsubr
429 -214 rmoveto
220 callsubr
-214 214 rmoveto
166 callsubr
-215 215 rmoveto
221 callsubr
429 -215 rmoveto
166 callsubr
-214 215 rmoveto
193 callsubr
428 -429 rmoveto
-39 -32 -32 -39 vhcurveto
0 vlineto
-39 -33 32 39 hvcurveto
214 vlineto
39 33 33 39 vhcurveto
0 vlineto
39 32 -33 -39 hvcurveto
-214 215 rmoveto
193 callsubr
214 178 rmoveto
-20 -16 -16 -20 vhcurveto
-714 hlineto
-20 -16 16 20 hvcurveto
143 vlineto
20 16 16 20 vhcurveto
714 hlineto
20 16 -16 -20 hvcurveto
-321 vmoveto
221 callsubr
72 357 rmoveto
39 -33 32 -39 vhcurveto
-786 hlineto
-39 -32 -32 -39 hvcurveto
-857 vlineto
-39 32 -33 39 vhcurveto
786 hlineto
39 33 33 39 hvcurveto
endchar
                </CharString>
                <CharString name="_463">
                    -107 5 847 -66 66 hintmask 10000000
848 497 rmoveto
-7 37 -17 30 -31 23 -4 3 -2 1 -1 -7 -4 -25 -7 -24 -8 -25 -18 -52 -28 -47 -41 -38 -45 -42 -55 -26 -60 -13 -45 -10 -47 -2 -40 1 rrcurveto
-28 1 -23 -1 -22 0 -13 0 -9 -8 -2 -13 -10 -62 -10 -63 -10 -62 -10 -62 -9 -63 -10 -62 -2 -16 9 -13 16 0 rrcurveto
140 hlineto
19 0 16 14 4 19 rrcurveto
1 8 30 194 3 10 rlineto
3 19 16 14 19 0 rrcurveto
24 hlineto
157 0 122 64 36 184 8 42 2 39 -7 33 rrcurveto
-96 157 rmoveto
0 85 -44 62 -79 31 -37 15 -56 10 -24 0 rrcurveto
-333 hlineto
-22 0 -20 -16 -3 -21 rrcurveto
-129 -821 rlineto
-2 -16 12 -15 17 0 rrcurveto
164 hlineto
4 0 2 2 1 4 9 56 31 198 8 42 7 36 22 17 36 0 33 0 35 -1 33 1 48 1 47 7 45 16 85 31 55 60 29 84 rrcurveto
15 42 11 44 0 46 rrcurveto
endchar
                </CharString>
                <CharString name="_464">
                    36 400 189 38 74 vstem
336 530 rmoveto
-66 62 -61 33 -6 3 -46 25 -57 -16 -25 -46 -25 -46 16 -56 46 -25 2 -1 164 -90 42 -161 68 103 -27 137 -25 78 rrcurveto
181 160 rmoveto
-17 33 -33 19 -35 0 -14 0 -14 -2 -13 -7 -47 -23 -19 -57 23 -47 1 -2 117 -250 -119 -169 -30 -43 11 -59 42 -30 17 -12 19 -5 19 0 rrcurveto
30 0 29 14 18 26 185 262 -163 337 -7 15 rrcurveto
179 -374 rmoveto
7 64 -1 65 -9 65 -2 16 -4 15 -3 14 -41 51 -42 38 -35 28 16 -39 23 -68 13 -83 11 -70 1 -69 -9 -63 16 -41 12 -45 7 -51 rrcurveto
21 56 13 58 6 59 rrcurveto
152 488 rmoveto
-18 34 -34 19 -36 0 -15 0 -15 -3 -15 -8 -49 -25 -19 -60 25 -49 2 -3 150 -296 -158 -344 -22 -50 21 -58 50 -23 13 -6 15 -3 14 0 rrcurveto
37 0 36 21 17 36 198 431 -189 371 -8 16 rrcurveto
endchar
                </CharString>
                <CharString name="_466">
                    321 0 136 80 21 73 31 30 26 -18 30 12 32 7 31 8 32 31 31 86 27 29 32 66 30 30 25 -17 30 22 29 19 33 116 136 hintmask 111100101111101110000000
374 336 rmoveto
-1 -18 -8 -12 -13 0 rrcurveto
-7 -4 6 7 12 9 5 17 hvcurveto
228 21 rmoveto
3 13 7 8 10 0 rrcurveto
18 -4 -19 -2 hvcurveto
267 -21 rmoveto
-1 -18 -8 -12 -13 0 rrcurveto
-7 -4 6 7 12 9 5 18 hvcurveto
184 15 rmoveto
-24 -10 -16 -15 -11 -5 7 16 23 10 17 14 11 6 -8 -15 vhcurveto
-806 79 rmoveto
-31 -91 -1 91 -45 0 -25 -147 rlineto
hintmask 000100000000000000000000
30 0 19 112 2 -112 22 0 39 113 -17 -113 31 0 24 147 rlineto
93 -60 rmoveto
23 -14 12 -27 vhcurveto
-11 0 -11 -3 -16 -4 -4 -25 0 -1 0 0 5 2 12 3 16 0 rrcurveto
hintmask 001010000000000000000000
15 5 -3 -8 hvcurveto
hintmask 000000000001010000000000
0 -2 0 -1 -1 -4 -5 1 -4 -1 -3 0 rrcurveto
-35 -21 -16 -29 hvcurveto
hintmask 000000000000100000000000
-19 12 -14 17 vhcurveto
14 0 11 5 8 10 rrcurveto
-1 -13 26 0 rlineto
1 9 6 38 3 17 1 10 1 7 0 6 rrcurveto
87 32 rmoveto
hintmask 000000000001010000000000
-8 2 -13 1 -7 0 -35 0 -12 -19 0 -22 0 -15 7 -10 17 -8 12 -6 3 -1 0 -6 rrcurveto
hintmask 000000000000000100000000
-7 -6 -4 -12 vhcurveto
-9 0 -9 2 -10 3 -4 -26 0 -1 0 0 7 -2 6 -2 19 0 33 -1 16 14 0 27 0 16 -7 10 -16 7 -13 6 -1 1 0 6 rrcurveto
6 5 4 10 vhcurveto
6 0 9 -1 8 -1 rrcurveto
53 27 rmoveto
4 18 -31 0 rlineto
-12 -70 -2 -11 0 0 -2 -12 -3 -15 0 -5 1 -17 9 -9 16 0 7 0 7 1 8 3 rrcurveto
4 26 rlineto
-2 -1 -3 0 -4 0 -7 0 -3 3 0 6 0 3 6 29 3 22 rrcurveto
16 0 4 29 rlineto
97 -40 rmoveto
26 -16 17 -26 -31 -23 -30 -41 -35 18 -18 35 vhcurveto
11 0 10 2 11 3 rrcurveto
5 30 rlineto
-11 -6 -11 -2 -11 0 -18 0 -10 8 2 17 rrcurveto
62 hlineto
3 12 0 9 0 8 rrcurveto
78 41 rmoveto
-13 3 -8 -7 -9 -15 1 6 2 6 -1 6 rrcurveto
-29 hlineto
-4 -37 -6 -37 -6 -37 rrcurveto
-2 -8 32 0 rlineto
11 73 3 14 17 -2 3 15 5 13 4 7 rrcurveto
104 23 rmoveto
-4 2 -17 5 -13 0 rrcurveto
-42 -29 -37 -52 -39 22 -24 33 hvcurveto
9 0 7 2 12 3 rrcurveto
6 33 rlineto
-11 -5 -8 -3 -8 0 rrcurveto
-18 -11 14 22 hvcurveto
hintmask 100000000000000010000000
32 16 23 23 vhcurveto
hintmask 010000000000000000000000
9 0 8 -2 11 -6 rrcurveto
96 -24 rmoveto
23 -14 12 -27 vhcurveto
-12 0 -9 -3 -16 -4 rrcurveto
hintmask 000001000000000000000000
-4 -25 -1 -1 0 0 rrcurveto
hintmask 000000100000000000000000
5 2 13 3 15 0 15 0 5 -3 0 -8 0 -2 0 -1 -1 -4 -4 1 -5 -1 -4 0 rrcurveto
hintmask 000001000000000000000000
-35 -19 -16 -29 -19 11 -14 17 hvcurveto
15 0 10 5 8 10 rrcurveto
-1 -13 26 0 rlineto
1 9 6 38 3 17 2 10 0 7 0 6 rrcurveto
78 33 rmoveto
-13 3 -7 -7 -10 -15 1 6 2 6 0 6 rrcurveto
-29 hlineto
-4 -37 -6 -37 -7 -37 rrcurveto
-1 -8 31 0 rlineto
12 73 2 14 18 -2 3 15 4 13 4 7 rrcurveto
hintmask 000000010000000000000000
79 27 rmoveto
-7 -43 rlineto
-8 11 -9 5 -12 0 rrcurveto
-28 -23 -33 -40 hvcurveto
hintmask 000000000010000000000000
-30 15 -19 23 vhcurveto
12 0 8 4 9 9 rrcurveto
-2 -11 29 0 24 147 rlineto
31 -73 rmoveto
-167 -135 -136 -168 vhcurveto
-69 0 -63 22 -51 39 rrcurveto
0 vlineto
43 40 32 50 17 57 rrcurveto
-28 hlineto
-17 -50 -29 -45 -39 -35 -39 35 -29 45 -17 50 rrcurveto
-28 hlineto
17 -57 32 -50 43 -40 rrcurveto
hintmask 000000000000001000000000
0 vlineto
-51 -39 -63 -22 -69 0 rrcurveto
-168 -135 136 167 167 135 137 168 hvcurveto
69 0 63 -23 51 -39 rrcurveto
0 vlineto
-46 -42 -33 -54 -16 -62 rrcurveto
28 hlineto
16 55 31 49 41 37 41 -37 31 -49 16 -55 rrcurveto
28 hlineto
-16 62 -33 54 -46 42 rrcurveto
0 vlineto
51 39 63 23 69 0 rrcurveto
168 135 -137 -167 hvcurveto
136 357 rmoveto
222 callsubr
endchar
                </CharString>
                <CharString name="_467">
                    321 0 59 36 79 38 17 36 23 119 12 143 11 367 16 103 24 36 5 -5 46 85 36 hintmask 1111111110100000
175 424 rmoveto
hintmask 0110000000000000
0 18 -7 17 -13 11 -12 11 -15 4 -23 0 rrcurveto
-10 -123 10 hlineto
23 0 16 5 11 10 rrcurveto
13 12 7 17 0 18 rrcurveto
991 36 rmoveto
hintmask 0000000110000000
18 -12 9 -23 vhcurveto
-12 -56 11 hlineto
23 13 10 19 hvcurveto
hintmask 0001110000100000
-954 -36 rmoveto
0 -27 -12 -27 -21 -18 rrcurveto
hintmask 0000110000000000
-18 -15 -21 -6 -28 0 rrcurveto
hintmask 0001110000100000
-53 186 53 hlineto
59 41 -38 -55 hvcurveto
17 -93 rmoveto
186 36 -186 vlineto
142 56 rmoveto
-36 -26 -25 -38 vhcurveto
-27 0 -20 11 -17 25 rrcurveto
23 22 rlineto
hintmask 0000001100000000
8 -16 15 -9 17 0 rrcurveto
hintmask 0000000001000000
16 12 12 15 hvcurveto
0 8 -4 7 -7 4 -4 3 -7 2 -14 5 -34 12 -11 14 0 26 0 30 25 23 33 0 20 0 18 -7 16 -14 rrcurveto
-19 -25 rlineto
-9 11 -9 4 -11 0 -16 0 -11 -8 0 -12 0 -10 6 -6 22 -8 41 -15 12 -13 0 -30 rrcurveto
155 -50 rmoveto
-16 -8 -13 -3 -16 0 rrcurveto
-55 -43 43 55 54 44 43 55 hvcurveto
16 0 12 -4 16 -8 rrcurveto
-42 vlineto
-15 15 -13 6 -17 0 rrcurveto
-34 -27 -28 -36 -37 26 -28 37 hvcurveto
16 0 12 6 15 15 rrcurveto
688 -380 rmoveto
-20 -16 -16 -20 vhcurveto
-875 hlineto
508 95 314 179 89 56 rrcurveto
-475 128 rmoveto
-56 -45 -45 -56 -56 -45 45 56 56 45 45 56 56 45 -45 -56 vhcurveto
85 -96 rmoveto
-20 0 -79 191 rlineto
hintmask 0000010000000000
40 0 49 -125 51 125 39 0 rlineto
16 -186 rmoveto
186 103 -32 -66 -41 64 -32 -64 -50 66 -31 vlineto
116 hmoveto
-51 74 -5 0 0 -74 -36 0 0 186 rlineto
hintmask 0000000001000000
54 hlineto
42 24 -21 -35 hvcurveto
0 -28 -15 -18 -27 -6 rrcurveto
hintmask 0000001000000000
58 -78 rlineto
67 380 rmoveto
41 -33 34 -41 vhcurveto
-1138 hlineto
-41 -33 -34 -41 hvcurveto
-708 vlineto
-41 33 -33 41 vhcurveto
1138 hlineto
41 33 33 41 hvcurveto
endchar
                </CharString>
                <CharString name="_469">
                    321 0 71 260 85 549 85 164 71 vstem
416 352 rmoveto
223 callsubr
438 83 rmoveto
24 -21 1 -19 vhcurveto
-10 hlineto
-4 0 -3 -2 -1 -4 rrcurveto
-9 -60 18 1 rlineto
29 20 7 33 hvcurveto
196 -83 rmoveto
223 callsubr
-764 95 rmoveto
-64 -38 -38 -64 vhcurveto
-11 0 -28 5 -2 -16 rrcurveto
-10 -61 rlineto
-1 -6 -5 -5 -6 0 rrcurveto
-42 hlineto
-4 0 -5 5 1 4 rrcurveto
37 228 rlineto
1 6 4 4 6 0 rrcurveto
90 hlineto
41 36 -15 -47 hvcurveto
173 -174 rmoveto
-1 -6 -6 -5 -6 0 rrcurveto
-38 hlineto
-5 -2 4 5 hvcurveto
0 3 1 6 1 3 -14 -16 -25 -9 -20 0 rrcurveto
-44 -27 28 44 53 41 48 55 hvcurveto
21 0 19 -3 13 -19 1 6 1 12 8 0 rrcurveto
42 hlineto
4 0 5 -4 -1 -4 rrcurveto
226 1 rmoveto
0 -2 0 -1 -1 -1 rrcurveto
-142 -206 rlineto
-2 -3 -4 -2 -4 0 rrcurveto
-43 hlineto
-4 -4 3 4 hvcurveto
0 7 40 52 6 8 -4 12 -43 126 0 3 rrcurveto
4 3 3 4 vhcurveto
42 hlineto
6 0 4 -3 2 -5 rrcurveto
25 -84 59 87 rlineto
2 3 4 2 4 0 rrcurveto
43 hlineto
4 3 -3 -4 hvcurveto
212 27 rmoveto
-64 -38 -38 -64 vhcurveto
-11 0 -28 5 -2 -16 rrcurveto
-10 -64 rlineto
-1 -4 -4 -4 -4 0 rrcurveto
-45 hlineto
-4 0 -5 5 1 4 rrcurveto
37 228 rlineto
1 6 5 4 6 0 rrcurveto
89 hlineto
41 36 -15 -47 hvcurveto
173 -174 rmoveto
-1 -6 -6 -5 -6 0 rrcurveto
-38 hlineto
-5 -2 4 5 hvcurveto
0 3 1 6 1 3 -13 -16 -25 -9 -21 0 rrcurveto
-44 -27 28 44 hvcurveto
53 41 48 55 vhcurveto
22 0 19 -3 12 -19 1 6 1 12 8 0 rrcurveto
42 hlineto
4 0 5 -4 -1 -4 rrcurveto
98 82 rmoveto
-36 -228 rlineto
-1 -6 -5 -5 -6 0 rrcurveto
-37 hlineto
-4 -3 4 4 hvcurveto
0 1 36 232 rlineto
1 3 4 3 3 0 rrcurveto
41 hlineto
4 3 -3 -4 hvcurveto
-995 -76 rmoveto
5 30 -19 4 -25 0 rrcurveto
-11 hlineto
-3 0 -3 -2 -1 -4 rrcurveto
-10 -60 19 1 rlineto
25 0 19 3 4 28 rrcurveto
1067 288 rmoveto
222 callsubr
endchar
                </CharString>
                <CharString name="_470">
                    321 0 75 191 39 130 27 145 21 83 33 84 64 82 17 83 61 79 71 vstem
891 353 rmoveto
45 -11 23 -21 vhcurveto
-4 0 -12 -1 -15 -15 rrcurveto
-125 vlineto
7 -3 7 -2 8 0 12 0 10 7 7 12 8 14 4 19 0 26 rrcurveto
245 20 rmoveto
-1 37 -11 18 -19 0 -19 0 -10 -18 -2 -37 rrcurveto
-808 -75 rmoveto
0 -28 -10 -22 -19 -15 -17 -13 -25 -8 -30 0 -38 0 -36 12 -20 11 rrcurveto
10 63 rlineto
23 -13 36 -11 21 0 17 0 10 6 0 11 0 12 -11 7 -29 11 -46 16 -27 20 0 46 0 25 9 21 18 15 17 14 23 7 28 0 rrcurveto
40 0 29 -11 14 -7 rrcurveto
-10 -62 rlineto
-18 9 -25 9 -26 0 -13 0 -8 -6 0 -9 0 -11 13 -7 25 -9 rrcurveto
0 vlineto
46 -17 29 -19 0 -47 rrcurveto
164 120 rmoveto
-43 -110 hlineto
-19 8 -9 16 vhcurveto
8 0 11 3 5 1 rrcurveto
-66 vlineto
-9 -2 -13 -4 -22 0 -28 0 -20 6 -14 11 -16 13 -8 22 0 32 rrcurveto
122 -35 vlineto
10 57 25 5 10 64 72 11 0 -75 54 0 rlineto
166 -76 rmoveto
-6 1 -5 0 -4 0 -20 0 -15 -4 -11 -13 rrcurveto
-171 -83 263 73 vlineto
5 -31 rlineto
7 22 20 12 23 0 5 0 5 0 6 -1 rrcurveto
20 -265 rmoveto
263 84 -263 vlineto
263 139 rmoveto
0 -50 -11 -38 -23 -25 -23 -26 -30 -5 -21 0 -12 0 -13 2 -13 4 rrcurveto
0 -84 -84 -14 0 360 rlineto
74 0 4 -26 rlineto
20 21 21 10 24 0 26 0 21 -9 15 -20 17 -21 8 -34 0 -45 rrcurveto
-261 194 rmoveto
-25 -19 -19 -25 vhcurveto
-25 -19 19 25 25 19 19 25 25 19 -19 -25 hvcurveto
501 -199 rmoveto
0 -6 0 -19 -1 -4 rrcurveto
-138 hlineto
2 -17 4 -13 9 -7 rrcurveto
8 -7 12 -3 16 0 27 0 23 6 21 11 rrcurveto
9 -58 rlineto
-21 -14 -32 -8 -36 0 -39 0 -30 10 -21 21 rrcurveto
-23 22 -12 36 0 47 0 85 44 52 71 0 35 0 28 -13 18 -23 18 -23 8 -33 0 -42 rrcurveto
72 363 rmoveto
222 callsubr
endchar
                </CharString>
                <CharString name="_471">
                    178 429 45 44 107 vstem
869 382 rmoveto
-440 -383 rlineto
1 -79 62 -63 79 0 rrcurveto
79 64 64 79 hvcurveto
250 hlineto
39 33 32 39 hvcurveto
-65 55 -74 90 -28 166 rrcurveto
-298 -480 rmoveto
-54 -44 44 54 5 4 4 5 5 4 -4 -5 -44 36 -36 44 5 4 -4 -5 -5 -4 -4 -5 hvcurveto
560 893 rmoveto
-47 53 rlineto
-6 8 -12 0 -7 -6 rrcurveto
-234 -202 rlineto
-38 66 -70 54 -96 14 3 7 1 7 0 8 rrcurveto
30 -24 23 -30 -30 -23 -23 -30 vhcurveto
0 -8 1 -7 3 -7 -148 -22 -88 -117 0 -107 0 -270 -96 -125 -83 -70 0 -13 4 -12 7 -11 rrcurveto
-104 -90 rlineto
-7 -6 -1 -11 6 -8 rrcurveto
47 -54 rlineto
6 -8 12 0 7 6 rrcurveto
1045 905 rlineto
7 7 1 11 -6 8 rrcurveto
endchar
                </CharString>
                <CharString name="_472">
                    178 286 71 72 45 44 107 vstem
580 -89 rmoveto
-5 -4 -4 -5 -54 -44 44 54 5 4 4 5 vhcurveto
5 4 -4 -5 -44 36 -36 44 5 4 -4 -5 hvcurveto
-299 265 rmoveto
51 98 25 119 0 143 0 72 68 106 146 0 106 0 65 -55 28 -59 rrcurveto
266 -529 rmoveto
-65 55 -74 90 -28 166 rrcurveto
-62 -54 rlineto
23 -102 42 -85 62 -70 rrcurveto
-422 0 -83 -72 rlineto
1 -79 62 -63 79 0 rrcurveto
79 64 64 79 hvcurveto
250 hlineto
39 33 32 39 hvcurveto
48 777 rmoveto
-6 8 -12 0 -7 -6 rrcurveto
-234 -202 rlineto
-38 66 -70 54 -96 14 3 7 1 7 0 8 rrcurveto
30 -24 23 -30 -30 -23 -23 -30 vhcurveto
0 -8 1 -7 3 -7 -148 -22 -88 -117 0 -107 0 -270 -96 -125 -83 -70 0 -13 4 -12 7 -11 rrcurveto
-104 -90 rlineto
-7 -6 -1 -11 6 -8 rrcurveto
47 -54 rlineto
6 -8 12 0 7 6 rrcurveto
1045 905 rlineto
7 7 1 11 -6 8 rrcurveto
endchar
                </CharString>
                <CharString name="_473">
                    -179 71 143 72 71 72 71 71 143 vstem
286 89 rmoveto
224 callsubr
143 -393 rmoveto
224 callsubr
142 -393 rmoveto
-10 -7 -8 -10 vhcurveto
-36 hlineto
-10 -8 8 10 hvcurveto
393 vlineto
10 8 8 10 vhcurveto
36 hlineto
10 7 -8 -10 hvcurveto
-303 161 rmoveto
109 callsubr
268 -18 rmoveto
110 callsubr
endchar
                </CharString>
                <CharString name="_474">
                    -107 0 71 99 91 290 84 -77 84 144 71 hintmask 11101000
642 258 rmoveto
5 -5 4 -4 vhcurveto
-67 hlineto
-4 -4 -4 -5 hvcurveto
-39 vlineto
-35 -76 -15 -40 -105 -76 82 112 108 73 75 104 46 67 -16 -35 vhcurveto
-39 vlineto
-5 4 -4 5 vhcurveto
hintmask 11011000
66 hlineto
5 3 4 5 hvcurveto
61 vlineto
89 -144 19 -55 -151 -114 -114 -151 -154 115 -117 153 79 125 29 79 vhcurveto
-213 517 rmoveto
197 160 -160 -197 hvcurveto
hintmask 11101000
-197 -160 -160 -197 -197 -161 160 197 197 161 160 197 vhcurveto
428 -357 rmoveto
118 callsubr
endchar
                </CharString>
                <CharString name="_475">
                    -107 0 71 82 85 274 81 193 71 vstem
542 425 rmoveto
-115 -78 -129 -112 -73 -41 48 83 149 99 92 93 70 42 -48 -80 vhcurveto
315 -68 rmoveto
256 -172 173 -256 -236 -193 -193 -236 -236 193 -192 236 vhcurveto
99 0 96 34 76 62 4 3 1 5 1 4 1 5 -1 5 -3 4 rrcurveto
-23 27 rlineto
-6 8 -11 1 -8 -7 -64 -52 -80 -28 -82 0 rrcurveto
-197 -161 160 197 197 161 160 197 hvcurveto
217 140 -140 -217 hvcurveto
0 -154 -123 -16 -38 -1 -23 0 -9 7 0 30 0 8 1 7 2 11 rrcurveto
67 343 rlineto
1 3 -1 4 -2 2 -2 2 -2 4 -3 0 rrcurveto
-66 hlineto
-4 0 -3 -6 -1 -4 rrcurveto
-6 -31 -1 -11 rlineto
-28 47 -53 29 -65 0 rrcurveto
-151 -123 -145 -178 -129 69 -75 120 hvcurveto
75 0 60 42 35 44 2 -18 5 -16 11 -12 17 -20 27 -10 35 0 8 0 3 1 7 0 106 3 124 65 0 174 rrcurveto
endchar
                </CharString>
                <CharString name="_476">
                    36 71 107 vstem
948 805 rmoveto
-70 70 -114 0 -69 -70 rrcurveto
-124 -126 -58 58 rlineto
-7 7 -12 0 -7 -7 rrcurveto
-117 -117 rlineto
-7 -7 0 -12 7 -7 rrcurveto
59 -58 -337 -337 rlineto
-13 -13 -8 -18 0 -19 rrcurveto
0 -113 -71 -143 36 -36 143 72 113 0 rlineto
19 0 18 7 13 13 rrcurveto
337 337 58 -59 rlineto
7 -7 12 0 7 7 rrcurveto
117 117 rlineto
7 7 0 12 -7 7 rrcurveto
-58 58 126 124 rlineto
70 69 0 114 -70 70 rrcurveto
-662 -769 rmoveto
-107 107 hlineto
321 321 107 -107 rlineto
endchar
                </CharString>
</ttFont>
